<svg xmlns="http://www.w3.org/2000/svg" viewBox="0 0 300 200" width="300" height="200" role="img"><polygon points="130.7,40.1 126.5,38.9 123.6,40.7 127.9,41.9" fill="#c1a16b" stroke="#c1a16b" stroke-width="0.5"/><polygon points="130.7,107.2 130.7,40.1 127.9,41.9 127.9,108.9" fill="#947c53" stroke="#947c53" stroke-width="0.5"/><polygon points="127.9,108.9 127.9,41.9 123.6,40.7 123.6,107.8" fill="#967d53" stroke="#967d53" stroke-width="0.5"/><polygon points="74.3,41.3 70,40.1 67.1,41.8 71.4,43" fill="#c1a16b" stroke="#c1a16b" stroke-width="0.5"/><polygon points="74.3,108.4 74.3,41.3 71.4,43 71.4,110.1" fill="#947c53" stroke="#947c53" stroke-width="0.5"/><polygon points="71.4,110.1 71.4,43 67.1,41.8 67.1,108.9" fill="#967d53" stroke="#967d53" stroke-width="0.5"/><polygon points="170.4,51 166.1,49.8 163.2,51.6 167.5,52.7" fill="#c1a16b" stroke="#c1a16b" stroke-width="0.5"/><polygon points="170.4,118.1 170.4,51 167.5,52.7 167.5,119.8" fill="#947c53" stroke="#947c53" stroke-width="0.5"/><polygon points="167.5,119.8 167.5,52.7 163.2,51.6 163.2,118.6" fill="#967d53" stroke="#967d53" stroke-width="0.5"/><polygon points="112.5,53 108.2,51.8 105.3,53.6 109.6,54.8" fill="#c1a16b" stroke="#c1a16b" stroke-width="0.5"/><polygon points="112.5,120.1 112.5,53 109.6,54.8 109.6,121.8" fill="#947c53" stroke="#947c53" stroke-width="0.5"/><polygon points="109.6,121.8 109.6,54.8 105.3,53.6 105.3,120.7" fill="#967d53" stroke="#967d53" stroke-width="0.5"/><polygon points="107.8,54 103.5,52.8 100.6,54.5 104.9,55.7" fill="#c1a16b" stroke="#c1a16b" stroke-width="0.5"/><polygon points="107.8,121.1 107.8,54 104.9,55.7 104.9,122.8" fill="#947c53" stroke="#947c53" stroke-width="0.5"/><polygon points="104.9,122.8 104.9,55.7 100.6,54.5 100.6,121.6" fill="#967d53" stroke="#967d53" stroke-width="0.5"/><polygon points="46.2,58.3 41.9,57.1 39,58.8 43.3,60" fill="#c1a16b" stroke="#c1a16b" stroke-width="0.5"/><polygon points="46.2,125.3 46.2,58.3 43.3,60 43.3,127.1" fill="#947c53" stroke="#947c53" stroke-width="0.5"/><polygon points="43.3,127.1 43.3,60 39,58.8 39,125.9" fill="#967d53" stroke="#967d53" stroke-width="0.5"/><polygon points="11.7,141.9 12.8,142.2 12.8,135.9 11.7,135.6" fill="#967d53" stroke="#967d53" stroke-width="0.5"/><polygon points="11.7,135.6 12.8,135.9 69.2,102 68,101.7" fill="#c1a16b" stroke="#c1a16b" stroke-width="0.5"/><polygon points="12.8,142.2 69.2,108.2 69.2,102 12.8,135.9" fill="#947c53" stroke="#947c53" stroke-width="0.5"/><polygon points="210,61.9 205.7,60.7 202.8,62.4 207.1,63.6" fill="#c1a16b" stroke="#c1a16b" stroke-width="0.5"/><polygon points="210,128.9 210,61.9 207.1,63.6 207.1,130.7" fill="#947c53" stroke="#947c53" stroke-width="0.5"/><polygon points="207.1,130.7 207.1,63.6 202.8,62.4 202.8,129.5" fill="#967d53" stroke="#967d53" stroke-width="0.5"/><polygon points="11.7,135.6 12.8,135.9 12.8,129.7 11.7,129.4" fill="#967d53" stroke="#967d53" stroke-width="0.5"/><polygon points="11.7,129.4 12.8,129.7 69.2,95.7 68,95.4" fill="#c1a16b" stroke="#c1a16b" stroke-width="0.5"/><polygon points="12.8,135.9 69.2,102 69.2,95.7 12.8,129.7" fill="#947c53" stroke="#947c53" stroke-width="0.5"/><polygon points="11.7,129.4 12.8,129.7 12.8,123.5 11.7,123.1" fill="#967d53" stroke="#967d53" stroke-width="0.5"/><polygon points="11.7,123.1 12.8,123.5 69.2,89.5 68,89.2" fill="#c1a16b" stroke="#c1a16b" stroke-width="0.5"/><polygon points="12.8,129.7 69.2,95.7 69.2,89.5 12.8,123.5" fill="#947c53" stroke="#947c53" stroke-width="0.5"/><polygon points="11.7,123.1 12.8,123.5 12.8,117.2 11.7,116.9" fill="#967d53" stroke="#967d53" stroke-width="0.5"/><polygon points="11.7,116.9 12.8,117.2 69.2,83.3 68,82.9" fill="#c1a16b" stroke="#c1a16b" stroke-width="0.5"/><polygon points="12.8,123.5 69.2,89.5 69.2,83.3 12.8,117.2" fill="#947c53" stroke="#947c53" stroke-width="0.5"/><polygon points="11.7,116.9 12.8,117.2 12.8,111 11.7,110.7" fill="#967d53" stroke="#967d53" stroke-width="0.5"/><polygon points="11.7,110.7 12.8,111 69.2,77 68,76.7" fill="#c1a16b" stroke="#c1a16b" stroke-width="0.5"/><polygon points="12.8,117.2 69.2,83.3 69.2,77 12.8,111" fill="#947c53" stroke="#947c53" stroke-width="0.5"/><polygon points="11.7,110.7 12.8,111 12.8,104.8 11.7,104.4" fill="#967d53" stroke="#967d53" stroke-width="0.5"/><polygon points="11.7,104.4 12.8,104.8 69.2,70.8 68,70.5" fill="#c1a16b" stroke="#c1a16b" stroke-width="0.5"/><polygon points="12.8,111 69.2,77 69.2,70.8 12.8,104.8" fill="#947c53" stroke="#947c53" stroke-width="0.5"/><polygon points="84.8,67.8 80.5,66.7 77.6,68.4 81.9,69.6" fill="#c1a16b" stroke="#c1a16b" stroke-width="0.5"/><polygon points="84.8,134.9 84.8,67.8 81.9,69.6 81.9,136.7" fill="#947c53" stroke="#947c53" stroke-width="0.5"/><polygon points="81.9,136.7 81.9,69.6 77.6,68.4 77.6,135.5" fill="#967d53" stroke="#967d53" stroke-width="0.5"/><polygon points="57.6,148.9 58.8,149.2 58.8,143 57.6,142.7" fill="#967d53" stroke="#967d53" stroke-width="0.5"/><polygon points="57.6,142.7 58.8,143 127.7,101.4 126.6,101.1" fill="#c1a16b" stroke="#c1a16b" stroke-width="0.5"/><polygon points="58.8,149.2 127.7,107.6 127.7,101.4 58.8,143" fill="#947c53" stroke="#947c53" stroke-width="0.5"/><polygon points="11.7,104.4 12.8,104.8 12.8,98.5 11.7,98.2" fill="#967d53" stroke="#967d53" stroke-width="0.5"/><polygon points="11.7,98.2 12.8,98.5 69.2,64.6 68,64.2" fill="#c1a16b" stroke="#c1a16b" stroke-width="0.5"/><polygon points="12.8,104.8 69.2,70.8 69.2,64.6 12.8,98.5" fill="#947c53" stroke="#947c53" stroke-width="0.5"/><polygon points="57.6,142.7 58.8,143 58.8,136.8 57.6,136.4" fill="#967d53" stroke="#967d53" stroke-width="0.5"/><polygon points="57.6,136.4 58.8,136.8 127.7,95.2 126.6,94.9" fill="#c1a16b" stroke="#c1a16b" stroke-width="0.5"/><polygon points="58.8,143 127.7,101.4 127.7,95.2 58.8,136.8" fill="#947c53" stroke="#947c53" stroke-width="0.5"/><polygon points="11.7,98.2 12.8,98.5 12.8,92.3 11.7,92" fill="#967d53" stroke="#967d53" stroke-width="0.5"/><polygon points="11.7,92 12.8,92.3 69.2,58.3 68,58" fill="#c1a16b" stroke="#c1a16b" stroke-width="0.5"/><polygon points="12.8,98.5 69.2,64.6 69.2,58.3 12.8,92.3" fill="#947c53" stroke="#947c53" stroke-width="0.5"/><polygon points="84.3,70 80,68.8 77.1,70.6 81.4,71.7" fill="#c1a16b" stroke="#c1a16b" stroke-width="0.5"/><polygon points="84.3,137.1 84.3,70 81.4,71.7 81.4,138.8" fill="#947c53" stroke="#947c53" stroke-width="0.5"/><polygon points="81.4,138.8 81.4,71.7 77.1,70.6 77.1,137.6" fill="#967d53" stroke="#967d53" stroke-width="0.5"/><polygon points="286,150.7 286,144.5 285.2,145 285.2,151.2" fill="#947c53" stroke="#947c53" stroke-width="0.5"/><polygon points="127.5,101 126.8,101.5 285.2,145 286,144.5" fill="#c1a16b" stroke="#c1a16b" stroke-width="0.5"/><polygon points="126.8,107.7 285.2,151.2 285.2,145 126.8,101.5" fill="#967d53" stroke="#967d53" stroke-width="0.5"/><polygon points="78.7,71 79.9,71.3 79.9,66.6 78.7,66.3" fill="#967d53" stroke="#967d53" stroke-width="0.5"/><polygon points="78.7,66.3 79.9,66.6 110.9,47.8 109.8,47.5" fill="#c1a16b" stroke="#c1a16b" stroke-width="0.5"/><polygon points="79.9,71.3 110.9,52.6 110.9,47.8 79.9,66.6" fill="#947c53" stroke="#947c53" stroke-width="0.5"/><polygon points="57.6,136.4 58.8,136.8 58.8,130.5 57.6,130.2" fill="#967d53" stroke="#967d53" stroke-width="0.5"/><polygon points="57.6,130.2 58.8,130.5 127.7,88.9 126.6,88.6" fill="#c1a16b" stroke="#c1a16b" stroke-width="0.5"/><polygon points="58.8,136.8 127.7,95.2 127.7,88.9 58.8,130.5" fill="#947c53" stroke="#947c53" stroke-width="0.5"/><polygon points="11.7,92 12.8,92.3 12.8,86.1 11.7,85.7" fill="#967d53" stroke="#967d53" stroke-width="0.5"/><polygon points="11.7,85.7 12.8,86.1 69.2,52.1 68,51.8" fill="#c1a16b" stroke="#c1a16b" stroke-width="0.5"/><polygon points="12.8,92.3 69.2,58.3 69.2,52.1 12.8,86.1" fill="#947c53" stroke="#947c53" stroke-width="0.5"/><polygon points="286,144.5 286,138.2 285.2,138.7 285.2,145" fill="#947c53" stroke="#947c53" stroke-width="0.5"/><polygon points="127.5,94.8 126.8,95.3 285.2,138.7 286,138.2" fill="#c1a16b" stroke="#c1a16b" stroke-width="0.5"/><polygon points="126.8,101.5 285.2,145 285.2,138.7 126.8,95.3" fill="#967d53" stroke="#967d53" stroke-width="0.5"/><polygon points="57.6,130.2 58.8,130.5 58.8,124.3 57.6,124" fill="#967d53" stroke="#967d53" stroke-width="0.5"/><polygon points="57.6,124 58.8,124.3 127.7,82.7 126.6,82.4" fill="#c1a16b" stroke="#c1a16b" stroke-width="0.5"/><polygon points="58.8,130.5 127.7,88.9 127.7,82.7 58.8,124.3" fill="#947c53" stroke="#947c53" stroke-width="0.5"/><polygon points="11.7,85.7 12.8,86.1 12.8,79.8 11.7,79.5" fill="#967d53" stroke="#967d53" stroke-width="0.5"/><polygon points="11.7,79.5 12.8,79.8 69.2,45.9 68,45.5" fill="#c1a16b" stroke="#c1a16b" stroke-width="0.5"/><polygon points="12.8,86.1 69.2,52.1 69.2,45.9 12.8,79.8" fill="#947c53" stroke="#947c53" stroke-width="0.5"/><polygon points="249.6,72.7 245.3,71.5 242.4,73.3 246.7,74.5" fill="#c1a16b" stroke="#c1a16b" stroke-width="0.5"/><polygon points="249.6,139.8 249.6,72.7 246.7,74.5 246.7,141.5" fill="#947c53" stroke="#947c53" stroke-width="0.5"/><polygon points="246.7,141.5 246.7,74.5 242.4,73.3 242.4,140.4" fill="#967d53" stroke="#967d53" stroke-width="0.5"/><polygon points="286,138.2 286,132 285.2,132.5 285.2,138.7" fill="#947c53" stroke="#947c53" stroke-width="0.5"/><polygon points="127.5,88.5 126.8,89 285.2,132.5 286,132" fill="#c1a16b" stroke="#c1a16b" stroke-width="0.5"/><polygon points="126.8,95.3 285.2,138.7 285.2,132.5 126.8,89" fill="#967d53" stroke="#967d53" stroke-width="0.5"/><polygon points="57.6,124 58.8,124.3 58.8,118.1 57.6,117.7" fill="#967d53" stroke="#967d53" stroke-width="0.5"/><polygon points="57.6,117.7 58.8,118.1 127.7,76.5 126.6,76.1" fill="#c1a16b" stroke="#c1a16b" stroke-width="0.5"/><polygon points="58.8,124.3 127.7,82.7 127.7,76.5 58.8,118.1" fill="#947c53" stroke="#947c53" stroke-width="0.5"/><polygon points="11.7,81 12.8,81.3 12.8,75.1 11.7,74.8" fill="#967d53" stroke="#967d53" stroke-width="0.5"/><polygon points="11.7,74.8 12.8,75.1 69.2,41.1 68,40.8" fill="#c1a16b" stroke="#c1a16b" stroke-width="0.5"/><polygon points="12.8,81.3 69.2,47.4 69.2,41.1 12.8,75.1" fill="#947c53" stroke="#947c53" stroke-width="0.5"/><polygon points="286,132 286,125.8 285.2,126.2 285.2,132.5" fill="#947c53" stroke="#947c53" stroke-width="0.5"/><polygon points="127.5,82.3 126.8,82.8 285.2,126.2 286,125.8" fill="#c1a16b" stroke="#c1a16b" stroke-width="0.5"/><polygon points="126.8,89 285.2,132.5 285.2,126.2 126.8,82.8" fill="#967d53" stroke="#967d53" stroke-width="0.5"/><polygon points="57.6,117.7 58.8,118.1 58.8,111.8 57.6,111.5" fill="#967d53" stroke="#967d53" stroke-width="0.5"/><polygon points="57.6,111.5 58.8,111.8 127.7,70.2 126.6,69.9" fill="#c1a16b" stroke="#c1a16b" stroke-width="0.5"/><polygon points="58.8,118.1 127.7,76.5 127.7,70.2 58.8,111.8" fill="#947c53" stroke="#947c53" stroke-width="0.5"/><polygon points="18,75.2 13.7,74.1 10.8,75.8 15.1,77" fill="#c1a16b" stroke="#c1a16b" stroke-width="0.5"/><polygon points="18,142.3 18,75.2 15.1,77 15.1,144.1" fill="#947c53" stroke="#947c53" stroke-width="0.5"/><polygon points="15.1,144.1 15.1,77 10.8,75.8 10.8,142.9" fill="#967d53" stroke="#967d53" stroke-width="0.5"/><polygon points="286,125.8 286,119.5 285.2,120 285.2,126.2" fill="#947c53" stroke="#947c53" stroke-width="0.5"/><polygon points="127.5,76.1 126.8,76.5 285.2,120 286,119.5" fill="#c1a16b" stroke="#c1a16b" stroke-width="0.5"/><polygon points="126.8,82.8 285.2,126.2 285.2,120 126.8,76.5" fill="#967d53" stroke="#967d53" stroke-width="0.5"/><polygon points="57.6,111.5 58.8,111.8 58.8,105.6 57.6,105.3" fill="#967d53" stroke="#967d53" stroke-width="0.5"/><polygon points="57.6,105.3 58.8,105.6 127.7,64 126.6,63.7" fill="#c1a16b" stroke="#c1a16b" stroke-width="0.5"/><polygon points="58.8,111.8 127.7,70.2 127.7,64 58.8,105.6" fill="#947c53" stroke="#947c53" stroke-width="0.5"/><polygon points="286,119.5 286,113.3 285.2,113.8 285.2,120" fill="#947c53" stroke="#947c53" stroke-width="0.5"/><polygon points="127.5,69.8 126.8,70.3 285.2,113.8 286,113.3" fill="#c1a16b" stroke="#c1a16b" stroke-width="0.5"/><polygon points="126.8,76.5 285.2,120 285.2,113.8 126.8,70.3" fill="#967d53" stroke="#967d53" stroke-width="0.5"/><polygon points="57.6,105.3 58.8,105.6 58.8,99.3 57.6,99" fill="#967d53" stroke="#967d53" stroke-width="0.5"/><polygon points="57.6,99 58.8,99.3 127.7,57.8 126.6,57.4" fill="#c1a16b" stroke="#c1a16b" stroke-width="0.5"/><polygon points="58.8,105.6 127.7,64 127.7,57.8 58.8,99.3" fill="#947c53" stroke="#947c53" stroke-width="0.5"/><polygon points="286,113.3 286,107.1 285.2,107.5 285.2,113.8" fill="#947c53" stroke="#947c53" stroke-width="0.5"/><polygon points="127.5,63.6 126.8,64.1 285.2,107.5 286,107.1" fill="#c1a16b" stroke="#c1a16b" stroke-width="0.5"/><polygon points="126.8,70.3 285.2,113.8 285.2,107.5 126.8,64.1" fill="#967d53" stroke="#967d53" stroke-width="0.5"/><polygon points="57.6,99 58.8,99.3 58.8,93.1 57.6,92.8" fill="#967d53" stroke="#967d53" stroke-width="0.5"/><polygon points="57.6,92.8 58.8,93.1 127.7,51.5 126.6,51.2" fill="#c1a16b" stroke="#c1a16b" stroke-width="0.5"/><polygon points="58.8,99.3 127.7,57.8 127.7,51.5 58.8,93.1" fill="#947c53" stroke="#947c53" stroke-width="0.5"/><polygon points="286,107.1 286,100.8 285.2,101.3 285.2,107.5" fill="#947c53" stroke="#947c53" stroke-width="0.5"/><polygon points="127.5,57.4 126.8,57.8 285.2,101.3 286,100.8" fill="#c1a16b" stroke="#c1a16b" stroke-width="0.5"/><polygon points="126.8,64.1 285.2,107.5 285.2,101.3 126.8,57.8" fill="#967d53" stroke="#967d53" stroke-width="0.5"/><polygon points="57.6,92.8 58.8,93.1 58.8,86.9 57.6,86.6" fill="#967d53" stroke="#967d53" stroke-width="0.5"/><polygon points="57.6,86.6 58.8,86.9 127.7,45.3 126.6,45" fill="#c1a16b" stroke="#c1a16b" stroke-width="0.5"/><polygon points="58.8,93.1 127.7,51.5 127.7,45.3 58.8,86.9" fill="#947c53" stroke="#947c53" stroke-width="0.5"/><polygon points="286,100.8 286,94.6 285.2,95.1 285.2,101.3" fill="#947c53" stroke="#947c53" stroke-width="0.5"/><polygon points="127.5,51.1 126.8,51.6 285.2,95.1 286,94.6" fill="#c1a16b" stroke="#c1a16b" stroke-width="0.5"/><polygon points="126.8,57.8 285.2,101.3 285.2,95.1 126.8,51.6" fill="#967d53" stroke="#967d53" stroke-width="0.5"/><polygon points="57.6,86.6 58.8,86.9 58.8,80.6 57.6,80.3" fill="#967d53" stroke="#967d53" stroke-width="0.5"/><polygon points="57.6,80.3 58.8,80.6 127.7,39.1 126.6,38.7" fill="#c1a16b" stroke="#c1a16b" stroke-width="0.5"/><polygon points="58.8,86.9 127.7,45.3 127.7,39.1 58.8,80.6" fill="#947c53" stroke="#947c53" stroke-width="0.5"/><polygon points="286,94.6 286,88.4 285.2,88.8 285.2,95.1" fill="#947c53" stroke="#947c53" stroke-width="0.5"/><polygon points="127.5,44.9 126.8,45.4 285.2,88.8 286,88.4" fill="#c1a16b" stroke="#c1a16b" stroke-width="0.5"/><polygon points="126.8,51.6 285.2,95.1 285.2,88.8 126.8,45.4" fill="#967d53" stroke="#967d53" stroke-width="0.5"/><polygon points="61.8,81.7 57.5,80.5 54.6,82.3 58.9,83.4" fill="#c1a16b" stroke="#c1a16b" stroke-width="0.5"/><polygon points="61.8,148.8 61.8,81.7 58.9,83.4 58.9,150.5" fill="#947c53" stroke="#947c53" stroke-width="0.5"/><polygon points="58.9,150.5 58.9,83.4 54.6,82.3 54.6,149.4" fill="#967d53" stroke="#967d53" stroke-width="0.5"/><polygon points="286,88.4 286,82.1 285.2,82.6 285.2,88.8" fill="#947c53" stroke="#947c53" stroke-width="0.5"/><polygon points="127.5,38.7 126.8,39.1 285.2,82.6 286,82.1" fill="#c1a16b" stroke="#c1a16b" stroke-width="0.5"/><polygon points="126.8,45.4 285.2,88.8 285.2,82.6 126.8,39.1" fill="#967d53" stroke="#967d53" stroke-width="0.5"/><polygon points="55.4,75 61,76.5 61,70.3 55.4,68.7" fill="#967d53" stroke="#967d53" stroke-width="0.5"/><polygon points="55.4,68.7 61,70.3 130,28.7 124.3,27.2" fill="#c1a16b" stroke="#c1a16b" stroke-width="0.5"/><polygon points="61,76.5 130,34.9 130,28.7 61,70.3" fill="#947c53" stroke="#947c53" stroke-width="0.5"/><polygon points="289.2,83.6 284.9,82.4 282,84.2 286.3,85.3" fill="#c1a16b" stroke="#c1a16b" stroke-width="0.5"/><polygon points="289.2,150.7 289.2,83.6 286.3,85.3 286.3,152.4" fill="#947c53" stroke="#947c53" stroke-width="0.5"/><polygon points="286.3,152.4 286.3,85.3 282,84.2 282,151.2" fill="#967d53" stroke="#967d53" stroke-width="0.5"/><polygon points="285.6,83.9 285.6,77.6 282.7,79.4 282.7,85.6" fill="#947c53" stroke="#947c53" stroke-width="0.5"/><polygon points="127.2,34.2 124.3,35.9 282.7,79.4 285.6,77.6" fill="#c1a16b" stroke="#c1a16b" stroke-width="0.5"/><polygon points="124.3,42.1 282.7,85.6 282.7,79.4 124.3,35.9" fill="#967d53" stroke="#967d53" stroke-width="0.5"/><polygon points="281.8,73.7 285.6,71.4 285.6,70.1 281.8,72.4" fill="#947c53" stroke="#947c53" stroke-width="0.5"/><polygon points="123.3,30.2 281.8,73.7 281.8,72.4 123.3,28.9" fill="#967d53" stroke="#967d53" stroke-width="0.5"/><polygon points="123.3,28.9 281.8,72.4 285.6,70.1 127.2,26.6" fill="#c1a16b" stroke="#c1a16b" stroke-width="0.5"/><polygon points="75.2,80.4 80.8,82 80.8,75.7 75.2,74.2" fill="#967d53" stroke="#967d53" stroke-width="0.5"/><polygon points="75.2,74.2 80.8,75.7 149.8,34.1 144.1,32.6" fill="#c1a16b" stroke="#c1a16b" stroke-width="0.5"/><polygon points="80.8,82 149.8,40.4 149.8,34.1 80.8,75.7" fill="#947c53" stroke="#947c53" stroke-width="0.5"/><polygon points="278,76 281.8,73.7 281.8,72.4 278,74.7" fill="#947c53" stroke="#947c53" stroke-width="0.5"/><polygon points="119.5,32.5 278,76 278,74.7 119.5,31.2" fill="#967d53" stroke="#967d53" stroke-width="0.5"/><polygon points="119.5,31.2 278,74.7 281.8,72.4 123.3,28.9" fill="#c1a16b" stroke="#c1a16b" stroke-width="0.5"/><polygon points="274.1,78.3 278,76 278,74.7 274.1,77" fill="#947c53" stroke="#947c53" stroke-width="0.5"/><polygon points="115.7,34.8 274.1,78.3 274.1,77 115.7,33.5" fill="#967d53" stroke="#967d53" stroke-width="0.5"/><polygon points="115.7,33.5 274.1,77 278,74.7 119.5,31.2" fill="#c1a16b" stroke="#c1a16b" stroke-width="0.5"/><polygon points="101.4,92.6 97.1,91.4 94.2,93.1 98.5,94.3" fill="#c1a16b" stroke="#c1a16b" stroke-width="0.5"/><polygon points="101.4,159.7 101.4,92.6 98.5,94.3 98.5,161.4" fill="#947c53" stroke="#947c53" stroke-width="0.5"/><polygon points="98.5,161.4 98.5,94.3 94.2,93.1 94.2,160.2" fill="#967d53" stroke="#967d53" stroke-width="0.5"/><polygon points="270.3,80.6 274.1,78.3 274.1,77 270.3,79.3" fill="#947c53" stroke="#947c53" stroke-width="0.5"/><polygon points="111.9,37.1 270.3,80.6 270.3,79.3 111.9,35.8" fill="#967d53" stroke="#967d53" stroke-width="0.5"/><polygon points="111.9,35.8 270.3,79.3 274.1,77 115.7,33.5" fill="#c1a16b" stroke="#c1a16b" stroke-width="0.5"/><polygon points="95,85.8 100.6,87.4 100.6,81.2 95,79.6" fill="#967d53" stroke="#967d53" stroke-width="0.5"/><polygon points="95,79.6 100.6,81.2 169.6,39.6 163.9,38" fill="#c1a16b" stroke="#c1a16b" stroke-width="0.5"/><polygon points="100.6,87.4 169.6,45.8 169.6,39.6 100.6,81.2" fill="#947c53" stroke="#947c53" stroke-width="0.5"/><polygon points="266.5,82.9 270.3,80.6 270.3,79.3 266.5,81.6" fill="#947c53" stroke="#947c53" stroke-width="0.5"/><polygon points="108.1,39.4 266.5,82.9 266.5,81.6 108.1,38.1" fill="#967d53" stroke="#967d53" stroke-width="0.5"/><polygon points="108.1,38.1 266.5,81.6 270.3,79.3 111.9,35.8" fill="#c1a16b" stroke="#c1a16b" stroke-width="0.5"/><polygon points="266.2,97.4 261.9,96.3 259,98 263.3,99.2" fill="#c1a16b" stroke="#c1a16b" stroke-width="0.5"/><polygon points="266.2,164.5 266.2,97.4 263.3,99.2 263.3,166.3" fill="#947c53" stroke="#947c53" stroke-width="0.5"/><polygon points="263.3,166.3 263.3,99.2 259,98 259,165.1" fill="#967d53" stroke="#967d53" stroke-width="0.5"/><polygon points="262.7,85.2 266.5,82.9 266.5,81.6 262.7,83.9" fill="#947c53" stroke="#947c53" stroke-width="0.5"/><polygon points="104.3,41.7 262.7,85.2 262.7,83.9 104.3,40.5" fill="#967d53" stroke="#967d53" stroke-width="0.5"/><polygon points="104.3,40.5 262.7,83.9 266.5,81.6 108.1,38.1" fill="#c1a16b" stroke="#c1a16b" stroke-width="0.5"/><polygon points="114.8,91.3 120.4,92.8 120.4,86.6 114.8,85" fill="#967d53" stroke="#967d53" stroke-width="0.5"/><polygon points="114.8,85 120.4,86.6 189.4,45 183.7,43.5" fill="#c1a16b" stroke="#c1a16b" stroke-width="0.5"/><polygon points="120.4,92.8 189.4,51.2 189.4,45 120.4,86.6" fill="#947c53" stroke="#947c53" stroke-width="0.5"/><polygon points="258.9,87.5 262.7,85.2 262.7,83.9 258.9,86.2" fill="#947c53" stroke="#947c53" stroke-width="0.5"/><polygon points="100.4,44 258.9,87.5 258.9,86.2 100.4,42.8" fill="#967d53" stroke="#967d53" stroke-width="0.5"/><polygon points="100.4,42.8 258.9,86.2 262.7,83.9 104.3,40.5" fill="#c1a16b" stroke="#c1a16b" stroke-width="0.5"/><polygon points="255.1,89.8 258.9,87.5 258.9,86.2 255.1,88.5" fill="#947c53" stroke="#947c53" stroke-width="0.5"/><polygon points="96.6,46.3 255.1,89.8 255.1,88.5 96.6,45.1" fill="#967d53" stroke="#967d53" stroke-width="0.5"/><polygon points="96.6,45.1 255.1,88.5 258.9,86.2 100.4,42.8" fill="#c1a16b" stroke="#c1a16b" stroke-width="0.5"/><polygon points="141,103.4 136.7,102.3 133.8,104 138.1,105.2" fill="#c1a16b" stroke="#c1a16b" stroke-width="0.5"/><polygon points="141,170.5 141,103.4 138.1,105.2 138.1,172.3" fill="#947c53" stroke="#947c53" stroke-width="0.5"/><polygon points="138.1,172.3 138.1,105.2 133.8,104 133.8,171.1" fill="#967d53" stroke="#967d53" stroke-width="0.5"/><polygon points="134.6,96.7 140.2,98.3 140.2,92 134.6,90.5" fill="#967d53" stroke="#967d53" stroke-width="0.5"/><polygon points="134.6,90.5 140.2,92 209.2,50.4 203.5,48.9" fill="#c1a16b" stroke="#c1a16b" stroke-width="0.5"/><polygon points="140.2,98.3 209.2,56.7 209.2,50.4 140.2,92" fill="#947c53" stroke="#947c53" stroke-width="0.5"/><polygon points="251.2,92.1 255.1,89.8 255.1,88.5 251.2,90.8" fill="#947c53" stroke="#947c53" stroke-width="0.5"/><polygon points="92.8,48.6 251.2,92.1 251.2,90.8 92.8,47.4" fill="#967d53" stroke="#967d53" stroke-width="0.5"/><polygon points="92.8,47.4 251.2,90.8 255.1,88.5 96.6,45.1" fill="#c1a16b" stroke="#c1a16b" stroke-width="0.5"/><polygon points="247.4,94.4 251.2,92.1 251.2,90.8 247.4,93.1" fill="#947c53" stroke="#947c53" stroke-width="0.5"/><polygon points="89,50.9 247.4,94.4 247.4,93.1 89,49.7" fill="#967d53" stroke="#967d53" stroke-width="0.5"/><polygon points="89,49.7 247.4,93.1 251.2,90.8 92.8,47.4" fill="#c1a16b" stroke="#c1a16b" stroke-width="0.5"/><polygon points="243.6,96.7 247.4,94.4 247.4,93.1 243.6,95.4" fill="#947c53" stroke="#947c53" stroke-width="0.5"/><polygon points="85.2,53.2 243.6,96.7 243.6,95.4 85.2,52" fill="#967d53" stroke="#967d53" stroke-width="0.5"/><polygon points="85.2,52 243.6,95.4 247.4,93.1 89,49.7" fill="#c1a16b" stroke="#c1a16b" stroke-width="0.5"/><polygon points="154.4,102.1 160,103.7 160,97.5 154.4,95.9" fill="#967d53" stroke="#967d53" stroke-width="0.5"/><polygon points="154.4,95.9 160,97.5 229,55.9 223.3,54.3" fill="#c1a16b" stroke="#c1a16b" stroke-width="0.5"/><polygon points="160,103.7 229,62.1 229,55.9 160,97.5" fill="#947c53" stroke="#947c53" stroke-width="0.5"/><polygon points="243.2,111.3 238.9,110.1 236,111.9 240.3,113.1" fill="#c1a16b" stroke="#c1a16b" stroke-width="0.5"/><polygon points="243.2,178.4 243.2,111.3 240.3,113.1 240.3,180.1" fill="#947c53" stroke="#947c53" stroke-width="0.5"/><polygon points="240.3,180.1 240.3,113.1 236,111.9 236,179" fill="#967d53" stroke="#967d53" stroke-width="0.5"/><polygon points="217.2,192.7 217.2,186.5 216,186.1 216,192.4" fill="#967d53" stroke="#967d53" stroke-width="0.5"/><polygon points="286.2,144.9 285,144.6 216,186.1 217.2,186.5" fill="#c1a16b" stroke="#c1a16b" stroke-width="0.5"/><polygon points="286.2,151.1 286.2,144.9 217.2,186.5 217.2,192.7" fill="#947c53" stroke="#947c53" stroke-width="0.5"/><polygon points="216.2,192.8 217,192.3 217,186.1 216.2,186.5" fill="#947c53" stroke="#947c53" stroke-width="0.5"/><polygon points="216.2,186.5 217,186.1 58.6,142.6 57.8,143.1" fill="#c1a16b" stroke="#c1a16b" stroke-width="0.5"/><polygon points="216.2,192.8 216.2,186.5 57.8,143.1 57.8,149.3" fill="#967d53" stroke="#967d53" stroke-width="0.5"/><polygon points="239.8,99 243.6,96.7 243.6,95.4 239.8,97.7" fill="#947c53" stroke="#947c53" stroke-width="0.5"/><polygon points="81.4,55.5 239.8,99 239.8,97.7 81.4,54.3" fill="#967d53" stroke="#967d53" stroke-width="0.5"/><polygon points="81.4,54.3 239.8,97.7 243.6,95.4 85.2,52" fill="#c1a16b" stroke="#c1a16b" stroke-width="0.5"/><polygon points="217.2,186.5 217.2,180.2 216,179.9 216,186.1" fill="#967d53" stroke="#967d53" stroke-width="0.5"/><polygon points="286.2,138.6 285,138.3 216,179.9 217.2,180.2" fill="#c1a16b" stroke="#c1a16b" stroke-width="0.5"/><polygon points="286.2,144.9 286.2,138.6 217.2,180.2 217.2,186.5" fill="#947c53" stroke="#947c53" stroke-width="0.5"/><polygon points="216.2,186.5 217,186.1 217,179.8 216.2,180.3" fill="#947c53" stroke="#947c53" stroke-width="0.5"/><polygon points="216.2,180.3 217,179.8 58.6,136.4 57.8,136.8" fill="#c1a16b" stroke="#c1a16b" stroke-width="0.5"/><polygon points="216.2,186.5 216.2,180.3 57.8,136.8 57.8,143.1" fill="#967d53" stroke="#967d53" stroke-width="0.5"/><polygon points="217.2,180.2 217.2,174 216,173.7 216,179.9" fill="#967d53" stroke="#967d53" stroke-width="0.5"/><polygon points="286.2,132.4 285,132.1 216,173.7 217.2,174" fill="#c1a16b" stroke="#c1a16b" stroke-width="0.5"/><polygon points="286.2,138.6 286.2,132.4 217.2,174 217.2,180.2" fill="#947c53" stroke="#947c53" stroke-width="0.5"/><polygon points="180.6,114.3 176.3,113.1 173.4,114.9 177.7,116" fill="#c1a16b" stroke="#c1a16b" stroke-width="0.5"/><polygon points="180.6,181.4 180.6,114.3 177.7,116 177.7,183.1" fill="#947c53" stroke="#947c53" stroke-width="0.5"/><polygon points="177.7,183.1 177.7,116 173.4,114.9 173.4,182" fill="#967d53" stroke="#967d53" stroke-width="0.5"/><polygon points="216.2,180.3 217,179.8 217,173.6 216.2,174.1" fill="#947c53" stroke="#947c53" stroke-width="0.5"/><polygon points="216.2,174.1 217,173.6 58.6,130.1 57.8,130.6" fill="#c1a16b" stroke="#c1a16b" stroke-width="0.5"/><polygon points="216.2,180.3 216.2,174.1 57.8,130.6 57.8,136.8" fill="#967d53" stroke="#967d53" stroke-width="0.5"/><polygon points="236,101.3 239.8,99 239.8,97.7 236,100" fill="#947c53" stroke="#947c53" stroke-width="0.5"/><polygon points="77.5,57.9 236,101.3 236,100 77.5,56.6" fill="#967d53" stroke="#967d53" stroke-width="0.5"/><polygon points="77.5,56.6 236,100 239.8,97.7 81.4,54.3" fill="#c1a16b" stroke="#c1a16b" stroke-width="0.5"/><polygon points="217.2,174 217.2,167.8 216,167.4 216,173.7" fill="#967d53" stroke="#967d53" stroke-width="0.5"/><polygon points="286.2,126.2 285,125.9 216,167.4 217.2,167.8" fill="#c1a16b" stroke="#c1a16b" stroke-width="0.5"/><polygon points="286.2,132.4 286.2,126.2 217.2,167.8 217.2,174" fill="#947c53" stroke="#947c53" stroke-width="0.5"/><polygon points="216.2,174.1 217,173.6 217,167.4 216.2,167.8" fill="#947c53" stroke="#947c53" stroke-width="0.5"/><polygon points="216.2,167.8 217,167.4 58.6,123.9 57.8,124.4" fill="#c1a16b" stroke="#c1a16b" stroke-width="0.5"/><polygon points="216.2,174.1 216.2,167.8 57.8,124.4 57.8,130.6" fill="#967d53" stroke="#967d53" stroke-width="0.5"/><polygon points="174.2,107.6 179.8,109.1 179.8,102.9 174.2,101.3" fill="#967d53" stroke="#967d53" stroke-width="0.5"/><polygon points="174.2,101.3 179.8,102.9 248.8,61.3 243.2,59.8" fill="#c1a16b" stroke="#c1a16b" stroke-width="0.5"/><polygon points="179.8,109.1 248.8,67.5 248.8,61.3 179.8,102.9" fill="#947c53" stroke="#947c53" stroke-width="0.5"/><polygon points="217.2,167.8 217.2,161.5 216,161.2 216,167.4" fill="#967d53" stroke="#967d53" stroke-width="0.5"/><polygon points="286.2,119.9 285,119.6 216,161.2 217.2,161.5" fill="#c1a16b" stroke="#c1a16b" stroke-width="0.5"/><polygon points="286.2,126.2 286.2,119.9 217.2,161.5 217.2,167.8" fill="#947c53" stroke="#947c53" stroke-width="0.5"/><polygon points="216.2,167.8 217,167.4 217,161.1 216.2,161.6" fill="#947c53" stroke="#947c53" stroke-width="0.5"/><polygon points="216.2,161.6 217,161.1 58.6,117.7 57.8,118.1" fill="#c1a16b" stroke="#c1a16b" stroke-width="0.5"/><polygon points="216.2,167.8 216.2,161.6 57.8,118.1 57.8,124.4" fill="#967d53" stroke="#967d53" stroke-width="0.5"/><polygon points="232.2,103.6 236,101.3 236,100 232.2,102.3" fill="#947c53" stroke="#947c53" stroke-width="0.5"/><polygon points="73.7,60.2 232.2,103.6 232.2,102.3 73.7,58.9" fill="#967d53" stroke="#967d53" stroke-width="0.5"/><polygon points="73.7,58.9 232.2,102.3 236,100 77.5,56.6" fill="#c1a16b" stroke="#c1a16b" stroke-width="0.5"/><polygon points="217.2,161.5 217.2,155.3 216,155 216,161.2" fill="#967d53" stroke="#967d53" stroke-width="0.5"/><polygon points="286.2,113.7 285,113.4 216,155 217.2,155.3" fill="#c1a16b" stroke="#c1a16b" stroke-width="0.5"/><polygon points="286.2,119.9 286.2,113.7 217.2,155.3 217.2,161.5" fill="#947c53" stroke="#947c53" stroke-width="0.5"/><polygon points="216.2,161.6 217,161.1 217,154.9 216.2,155.4" fill="#947c53" stroke="#947c53" stroke-width="0.5"/><polygon points="216.2,155.4 217,154.9 58.6,111.4 57.8,111.9" fill="#c1a16b" stroke="#c1a16b" stroke-width="0.5"/><polygon points="216.2,161.6 216.2,155.4 57.8,111.9 57.8,118.1" fill="#967d53" stroke="#967d53" stroke-width="0.5"/><polygon points="217.2,155.3 217.2,149.1 216,148.7 216,155" fill="#967d53" stroke="#967d53" stroke-width="0.5"/><polygon points="286.2,107.5 285,107.1 216,148.7 217.2,149.1" fill="#c1a16b" stroke="#c1a16b" stroke-width="0.5"/><polygon points="286.2,113.7 286.2,107.5 217.2,149.1 217.2,155.3" fill="#947c53" stroke="#947c53" stroke-width="0.5"/><polygon points="216.2,155.4 217,154.9 217,148.7 216.2,149.1" fill="#947c53" stroke="#947c53" stroke-width="0.5"/><polygon points="216.2,149.1 217,148.7 58.6,105.2 57.8,105.7" fill="#c1a16b" stroke="#c1a16b" stroke-width="0.5"/><polygon points="216.2,155.4 216.2,149.1 57.8,105.7 57.8,111.9" fill="#967d53" stroke="#967d53" stroke-width="0.5"/><polygon points="228.3,105.9 232.2,103.6 232.2,102.3 228.3,104.6" fill="#947c53" stroke="#947c53" stroke-width="0.5"/><polygon points="69.9,62.5 228.3,105.9 228.3,104.6 69.9,61.2" fill="#967d53" stroke="#967d53" stroke-width="0.5"/><polygon points="69.9,61.2 228.3,104.6 232.2,102.3 73.7,58.9" fill="#c1a16b" stroke="#c1a16b" stroke-width="0.5"/><polygon points="217.2,149.1 217.2,142.8 216,142.5 216,148.7" fill="#967d53" stroke="#967d53" stroke-width="0.5"/><polygon points="286.2,101.2 285,100.9 216,142.5 217.2,142.8" fill="#c1a16b" stroke="#c1a16b" stroke-width="0.5"/><polygon points="286.2,107.5 286.2,101.2 217.2,142.8 217.2,149.1" fill="#947c53" stroke="#947c53" stroke-width="0.5"/><polygon points="216.2,149.1 217,148.7 217,142.4 216.2,142.9" fill="#947c53" stroke="#947c53" stroke-width="0.5"/><polygon points="216.2,142.9 217,142.4 58.6,99 57.8,99.4" fill="#c1a16b" stroke="#c1a16b" stroke-width="0.5"/><polygon points="216.2,149.1 216.2,142.9 57.8,99.4 57.8,105.7" fill="#967d53" stroke="#967d53" stroke-width="0.5"/><polygon points="194,113 199.7,114.6 199.7,108.3 194,106.8" fill="#967d53" stroke="#967d53" stroke-width="0.5"/><polygon points="194,106.8 199.7,108.3 268.6,66.7 263,65.2" fill="#c1a16b" stroke="#c1a16b" stroke-width="0.5"/><polygon points="199.7,114.6 268.6,73 268.6,66.7 199.7,108.3" fill="#947c53" stroke="#947c53" stroke-width="0.5"/><polygon points="224.5,108.2 228.3,105.9 228.3,104.6 224.5,106.9" fill="#947c53" stroke="#947c53" stroke-width="0.5"/><polygon points="66.1,64.8 224.5,108.2 224.5,106.9 66.1,63.5" fill="#967d53" stroke="#967d53" stroke-width="0.5"/><polygon points="66.1,63.5 224.5,106.9 228.3,104.6 69.9,61.2" fill="#c1a16b" stroke="#c1a16b" stroke-width="0.5"/><polygon points="217.2,142.8 217.2,136.6 216,136.3 216,142.5" fill="#967d53" stroke="#967d53" stroke-width="0.5"/><polygon points="286.2,95 285,94.7 216,136.3 217.2,136.6" fill="#c1a16b" stroke="#c1a16b" stroke-width="0.5"/><polygon points="286.2,101.2 286.2,95 217.2,136.6 217.2,142.8" fill="#947c53" stroke="#947c53" stroke-width="0.5"/><polygon points="216.2,142.9 217,142.4 217,136.2 216.2,136.7" fill="#947c53" stroke="#947c53" stroke-width="0.5"/><polygon points="216.2,136.7 217,136.2 58.6,92.7 57.8,93.2" fill="#c1a16b" stroke="#c1a16b" stroke-width="0.5"/><polygon points="216.2,142.9 216.2,136.7 57.8,93.2 57.8,99.4" fill="#967d53" stroke="#967d53" stroke-width="0.5"/><polygon points="217.2,136.6 217.2,130.3 216,130 216,136.3" fill="#967d53" stroke="#967d53" stroke-width="0.5"/><polygon points="286.2,88.8 285,88.4 216,130 217.2,130.3" fill="#c1a16b" stroke="#c1a16b" stroke-width="0.5"/><polygon points="286.2,95 286.2,88.8 217.2,130.3 217.2,136.6" fill="#947c53" stroke="#947c53" stroke-width="0.5"/><polygon points="216.2,136.7 217,136.2 217,129.9 216.2,130.4" fill="#947c53" stroke="#947c53" stroke-width="0.5"/><polygon points="216.2,130.4 217,129.9 58.6,86.5 57.8,87" fill="#c1a16b" stroke="#c1a16b" stroke-width="0.5"/><polygon points="216.2,136.7 216.2,130.4 57.8,87 57.8,93.2" fill="#967d53" stroke="#967d53" stroke-width="0.5"/><polygon points="220.7,110.5 224.5,108.2 224.5,106.9 220.7,109.2" fill="#947c53" stroke="#947c53" stroke-width="0.5"/><polygon points="62.3,67.1 220.7,110.5 220.7,109.2 62.3,65.8" fill="#967d53" stroke="#967d53" stroke-width="0.5"/><polygon points="62.3,65.8 220.7,109.2 224.5,106.9 66.1,63.5" fill="#c1a16b" stroke="#c1a16b" stroke-width="0.5"/><polygon points="217.2,130.3 217.2,124.1 216,123.8 216,130" fill="#967d53" stroke="#967d53" stroke-width="0.5"/><polygon points="286.2,82.5 285,82.2 216,123.8 217.2,124.1" fill="#c1a16b" stroke="#c1a16b" stroke-width="0.5"/><polygon points="286.2,88.8 286.2,82.5 217.2,124.1 217.2,130.3" fill="#947c53" stroke="#947c53" stroke-width="0.5"/><polygon points="216.2,130.4 217,129.9 217,123.7 216.2,124.2" fill="#947c53" stroke="#947c53" stroke-width="0.5"/><polygon points="216.2,124.2 217,123.7 58.6,80.2 57.8,80.7" fill="#c1a16b" stroke="#c1a16b" stroke-width="0.5"/><polygon points="216.2,130.4 216.2,124.2 57.8,80.7 57.8,87" fill="#967d53" stroke="#967d53" stroke-width="0.5"/><polygon points="219.5,123.7 219.5,117.5 216.6,119.2 216.6,125.5" fill="#947c53" stroke="#947c53" stroke-width="0.5"/><polygon points="61.1,74 58.2,75.8 216.6,119.2 219.5,117.5" fill="#c1a16b" stroke="#c1a16b" stroke-width="0.5"/><polygon points="58.2,82 216.6,125.5 216.6,119.2 58.2,75.8" fill="#967d53" stroke="#967d53" stroke-width="0.5"/><polygon points="220.2,125.2 215.9,124 213,125.7 217.3,126.9" fill="#c1a16b" stroke="#c1a16b" stroke-width="0.5"/><polygon points="220.2,192.3 220.2,125.2 217.3,126.9 217.3,194" fill="#947c53" stroke="#947c53" stroke-width="0.5"/><polygon points="217.3,194 217.3,126.9 213,125.7 213,192.8" fill="#967d53" stroke="#967d53" stroke-width="0.5"/><polygon points="216.9,112.8 220.7,110.5 220.7,109.2 216.9,111.5" fill="#947c53" stroke="#947c53" stroke-width="0.5"/><polygon points="58.5,69.4 216.9,112.8 216.9,111.5 58.5,68.1" fill="#967d53" stroke="#967d53" stroke-width="0.5"/><polygon points="58.5,68.1 216.9,111.5 220.7,109.2 62.3,65.8" fill="#c1a16b" stroke="#c1a16b" stroke-width="0.5"/><polygon points="213.8,118.4 219.5,120 219.5,113.8 213.8,112.2" fill="#967d53" stroke="#967d53" stroke-width="0.5"/><polygon points="213.8,112.2 219.5,113.8 288.4,72.2 282.8,70.6" fill="#c1a16b" stroke="#c1a16b" stroke-width="0.5"/><polygon points="219.5,120 288.4,78.4 288.4,72.2 219.5,113.8" fill="#947c53" stroke="#947c53" stroke-width="0.5"/><polygon points="285.6,70.1 285.6,49.5 216.6,91.1 216.6,111.7" fill="#665a45" stroke="#665a45" stroke-width="0.5"/><polygon points="127.2,6 58.2,47.6 216.6,91.1 285.6,49.5" fill="#84755a" stroke="#84755a" stroke-width="0.5"/><polygon points="58.2,68.2 216.6,111.7 216.6,91.1 58.2,47.6" fill="#675b46" stroke="#675b46" stroke-width="0.5"/></svg>
