<svg xmlns="http://www.w3.org/2000/svg" viewBox="0 0 220 150" width="220" height="150" role="img"><g fill="none" stroke="#6b6250" stroke-width="0.6" stroke-linecap="round"><path d="M8.3 90L68.8 53.6M14 91.6L74.5 55.1M20 93.3L80.5 56.8M25.9 94.9L86.4 58.4M31.9 96.5L92.4 60.1M37.9 98.2L98.4 61.7M43.9 99.8L104.4 63.3M49.9 101.5L110.4 65M55.8 103.1L116.3 66.6M61.8 104.7L122.3 68.3M67.8 106.4L128.3 69.9M73.8 108L134.3 71.5M79.8 109.7L140.2 73.2M85.7 111.3L146.2 74.8M91.7 112.9L152.2 76.5M97.7 114.6L158.2 78.1M103.7 116.2L164.2 79.7M109.6 117.9L170.1 81.4M115.6 119.5L176.1 83M121.6 121.1L182.1 84.7M127.6 122.8L188.1 86.3M133.6 124.4L194.1 87.9M139.5 126.1L200 89.6M145.5 127.7L206 91.2M151.2 129.3L211.7 92.8M68.4 52L68.4 19.9M68.4 19.9L38.9 17.9M9.4 87.6L9.4 55.5M9.4 55.5L38.9 17.9M10.3 55.7L69.3 20.2M85.7 56.8L85.7 24.6M85.7 24.6L56.2 22.7M26.7 92.3L26.7 60.2M26.7 60.2L56.2 22.7M27.6 60.5L86.6 24.9M103.6 61.7L103.6 29.6M103.6 29.6L74.1 27.6M44.6 97.2L44.6 65.1M44.6 65.1L74.1 27.6M45.6 65.4L104.6 29.8M121.6 66.6L121.6 34.5M121.6 34.5L92.1 32.5M62.6 102.2L62.6 70M62.6 70L92 32.5M63.5 70.3L122.5 34.7M139.5 71.5L139.5 39.4M139.5 39.4L110 37.4M80.5 107.1L80.5 75M80.5 75L110 37.4M81.4 75.2L140.4 39.7M157.4 76.4L157.4 44.3M157.4 44.3L128 42.3M98.4 112L98.4 79.9M98.4 79.9L127.9 42.4M99.4 80.1L158.4 44.6M175.4 81.4L175.4 49.2M175.4 49.2L145.9 47.3M116.4 116.9L116.4 84.8M116.4 84.8L145.9 47.3M117.3 85.1L176.3 49.5M193.3 86.3L193.3 54.2M193.3 54.2L163.8 52.2M134.3 121.9L134.3 89.7M134.3 89.7L163.8 52.2M135.3 90L194.2 54.4M210.6 91L210.6 58.9M210.6 58.9L181.1 56.9M151.6 126.6L151.6 94.5M151.6 94.5L181.1 57M150.7 94.2L209.7 58.7M34 38.7L43.8 32.8M176.2 77.7L186 71.8"/></g><g fill="none" stroke="#2b2419" stroke-width="1.1" stroke-linecap="round"><path d="M68.5 57.2L67.6 57.8M68.5 55L67.6 55.5M212 96.6L211.1 97.2M212 94.4L211.1 94.9M68.5 57.2L68.5 55M67.6 57.8L67.6 55.5M212 96.6L212 94.4M211.1 97.2L211.1 94.9M68.5 57.2L212 96.6M67.6 57.8L211.1 97.2M68.5 55L212 94.4M67.6 55.5L211.1 94.9M38.7 75.2L37.8 75.8M38.7 73L37.8 73.5M182.2 114.6L181.3 115.1M182.2 112.3L181.3 112.9M38.7 75.2L38.7 73M37.8 75.8L37.8 73.5M182.2 114.6L182.2 112.3M181.3 115.1L181.3 112.9M38.7 75.2L182.2 114.6M37.8 75.8L181.3 115.1M38.7 73L182.2 112.3M37.8 73.5L181.3 112.9M8.9 93.2L8 93.7M8.9 90.9L8 91.5M152.4 132.6L151.5 133.1M152.4 130.3L151.5 130.8M8.9 93.2L8.9 90.9M8 93.7L8 91.5M152.4 132.6L152.4 130.3M151.5 133.1L151.5 130.8M8.9 93.2L152.4 132.6M8 93.7L151.5 133.1M8.9 90.9L152.4 130.3M8 91.5L151.5 130.8M38.4 18.3L38.1 18.6M38.4 16.9L38.1 17.1M181.9 57.7L181.6 57.9M181.9 56.3L181.6 56.5M38.4 18.3L38.4 16.9M38.1 18.6L38.1 17.1M181.9 57.7L181.9 56.3M181.6 57.9L181.6 56.5M38.4 18.3L181.9 57.7M38.1 18.6L181.6 57.9M38.4 16.9L181.9 56.3M38.1 17.1L181.6 56.5M44.5 67L44.1 67.2M43.2 66.7L42.8 66.9M44.5 34.1L44.1 34.3M43.2 33.7L42.8 33.9M44.5 67L43.2 66.7M44.1 67.2L42.8 66.9M44.5 34.1L43.2 33.7M44.1 34.3L42.8 33.9M44.5 67L44.5 34.1M44.1 67.2L44.1 34.3M43.2 66.7L43.2 33.7M42.8 66.9L42.8 33.9M35 72.7L34.6 72.9M33.7 72.4L33.3 72.6M35 39.8L34.6 40M33.7 39.4L33.3 39.6M35 72.7L33.7 72.4M34.6 72.9L33.3 72.6M35 39.8L33.7 39.4M34.6 40L33.3 39.6M35 72.7L35 39.8M34.6 72.9L34.6 40M33.7 72.4L33.7 39.4M33.3 72.6L33.3 39.6M186.7 106L186.3 106.3M185.4 105.7L185 105.9M186.7 73.1L186.3 73.3M185.4 72.7L185 73M186.7 106L185.4 105.7M186.3 106.3L185 105.9M186.7 73.1L185.4 72.7M186.3 73.3L185 73M186.7 106L186.7 73.1M186.3 106.3L186.3 73.3M185.4 105.7L185.4 72.7M185 105.9L185 73M177.2 111.7L176.8 112M175.9 111.4L175.5 111.6M177.2 78.8L176.8 79M175.9 78.4L175.5 78.7M177.2 111.7L175.9 111.4M176.8 112L175.5 111.6M177.2 78.8L175.9 78.4M176.8 79L175.5 78.7M177.2 111.7L177.2 78.8M176.8 112L176.8 79M175.9 111.4L175.9 78.4M175.5 111.6L175.5 78.7"/></g><g fill="none" stroke="#9a5b3d" stroke-width="1.2" stroke-linecap="round" opacity="0.9"><path d="M66.3 52.7L66.3 23M33.9 29.9L98.8 29.9"/></g></svg>
