<svg xmlns="http://www.w3.org/2000/svg" viewBox="0 0 300 200" width="300" height="200" role="img"><polygon points="91.7,22.3 89.8,21.8 89.3,22.1 91.2,22.6" fill="#c1a16b" stroke="#c1a16b" stroke-width="0.5"/><polygon points="91.7,67.5 91.7,22.3 91.2,22.6 91.2,67.8" fill="#947c53" stroke="#947c53" stroke-width="0.5"/><polygon points="91.2,67.8 91.2,22.6 89.3,22.1 89.3,67.3" fill="#967d53" stroke="#967d53" stroke-width="0.5"/><polygon points="116.9,29.2 115.1,28.7 114.6,29 116.4,29.5" fill="#c1a16b" stroke="#c1a16b" stroke-width="0.5"/><polygon points="116.9,74.4 116.9,29.2 116.4,29.5 116.4,74.7" fill="#947c53" stroke="#947c53" stroke-width="0.5"/><polygon points="116.4,74.7 116.4,29.5 114.6,29 114.6,74.2" fill="#967d53" stroke="#967d53" stroke-width="0.5"/><polygon points="142.2,36.1 140.4,35.6 139.8,35.9 141.7,36.4" fill="#c1a16b" stroke="#c1a16b" stroke-width="0.5"/><polygon points="142.2,81.3 142.2,36.1 141.7,36.4 141.7,81.7" fill="#947c53" stroke="#947c53" stroke-width="0.5"/><polygon points="141.7,81.7 141.7,36.4 139.8,35.9 139.8,81.2" fill="#967d53" stroke="#967d53" stroke-width="0.5"/><polygon points="167.5,43.1 165.6,42.5 165.1,42.9 166.9,43.4" fill="#c1a16b" stroke="#c1a16b" stroke-width="0.5"/><polygon points="167.5,88.3 167.5,43.1 166.9,43.4 166.9,88.6" fill="#947c53" stroke="#947c53" stroke-width="0.5"/><polygon points="166.9,88.6 166.9,43.4 165.1,42.9 165.1,88.1" fill="#967d53" stroke="#967d53" stroke-width="0.5"/><polygon points="192.7,50 190.9,49.5 190.3,49.8 192.2,50.3" fill="#c1a16b" stroke="#c1a16b" stroke-width="0.5"/><polygon points="192.7,95.2 192.7,50 192.2,50.3 192.2,95.5" fill="#947c53" stroke="#947c53" stroke-width="0.5"/><polygon points="192.2,95.5 192.2,50.3 190.3,49.8 190.3,95" fill="#967d53" stroke="#967d53" stroke-width="0.5"/><polygon points="49.1,20.6 49.6,18.4 48.8,18.2 48.4,20.4" fill="#ae9161" stroke="#ae9161" stroke-width="0.5"/><polygon points="91.1,21.2 90.3,21 48.8,18.2 49.6,18.4" fill="#b29563" stroke="#b29563" stroke-width="0.5"/><polygon points="90.7,23.4 91.1,21.2 49.6,18.4 49.1,20.6" fill="#947c53" stroke="#947c53" stroke-width="0.5"/><polygon points="218,56.9 216.1,56.4 215.6,56.7 217.4,57.2" fill="#c1a16b" stroke="#c1a16b" stroke-width="0.5"/><polygon points="218,102.1 218,56.9 217.4,57.2 217.4,102.5" fill="#947c53" stroke="#947c53" stroke-width="0.5"/><polygon points="217.4,102.5 217.4,57.2 215.6,56.7 215.6,101.9" fill="#967d53" stroke="#967d53" stroke-width="0.5"/><polygon points="74.4,27.5 74.9,25.3 74.1,25.1 73.6,27.3" fill="#ae9161" stroke="#ae9161" stroke-width="0.5"/><polygon points="116.4,28.1 115.6,27.9 74.1,25.1 74.9,25.3" fill="#b29563" stroke="#b29563" stroke-width="0.5"/><polygon points="115.9,30.3 116.4,28.1 74.9,25.3 74.4,27.5" fill="#947c53" stroke="#947c53" stroke-width="0.5"/><polygon points="6,123.1 6.8,123.3 6.8,119.1 6,118.9" fill="#967d53" stroke="#967d53" stroke-width="0.5"/><polygon points="6,118.9 6.8,119.1 92,67.7 91.2,67.5" fill="#c1a16b" stroke="#c1a16b" stroke-width="0.5"/><polygon points="6.8,123.3 92,71.9 92,67.7 6.8,119.1" fill="#947c53" stroke="#947c53" stroke-width="0.5"/><polygon points="243.2,63.8 241.4,63.3 240.8,63.7 242.7,64.2" fill="#c1a16b" stroke="#c1a16b" stroke-width="0.5"/><polygon points="243.2,109.1 243.2,63.8 242.7,64.2 242.7,109.4" fill="#947c53" stroke="#947c53" stroke-width="0.5"/><polygon points="242.7,109.4 242.7,64.2 240.8,63.7 240.8,108.9" fill="#967d53" stroke="#967d53" stroke-width="0.5"/><polygon points="14.4,125.4 15.2,125.6 15.2,121.4 14.4,121.2" fill="#967d53" stroke="#967d53" stroke-width="0.5"/><polygon points="14.4,121.2 15.2,121.4 100.4,70 99.6,69.8" fill="#c1a16b" stroke="#c1a16b" stroke-width="0.5"/><polygon points="15.2,125.6 100.4,74.2 100.4,70 15.2,121.4" fill="#947c53" stroke="#947c53" stroke-width="0.5"/><polygon points="99.6,34.4 100.1,32.3 99.3,32.1 98.9,34.2" fill="#ae9161" stroke="#ae9161" stroke-width="0.5"/><polygon points="141.6,35.1 140.9,34.8 99.3,32.1 100.1,32.3" fill="#b29563" stroke="#b29563" stroke-width="0.5"/><polygon points="141.2,37.2 141.6,35.1 100.1,32.3 99.6,34.4" fill="#947c53" stroke="#947c53" stroke-width="0.5"/><polygon points="293.6,130.4 293.6,127.3 292.4,128 292.4,131.2" fill="#947c53" stroke="#947c53" stroke-width="0.5"/><polygon points="91.6,71.8 90.3,72.6 292.4,128 293.6,127.3" fill="#c1a16b" stroke="#c1a16b" stroke-width="0.5"/><polygon points="90.3,75.8 292.4,131.2 292.4,128 90.3,72.6" fill="#967d53" stroke="#967d53" stroke-width="0.5"/><polygon points="22.8,127.7 23.6,127.9 23.6,123.7 22.8,123.5" fill="#967d53" stroke="#967d53" stroke-width="0.5"/><polygon points="22.8,123.5 23.6,123.7 108.8,72.4 108,72.1" fill="#c1a16b" stroke="#c1a16b" stroke-width="0.5"/><polygon points="23.6,127.9 108.8,76.6 108.8,72.4 23.6,123.7" fill="#947c53" stroke="#947c53" stroke-width="0.5"/><polygon points="291.7,124.2 293.6,123.1 293.6,122.2 291.7,123.4" fill="#947c53" stroke="#947c53" stroke-width="0.5"/><polygon points="89.6,68.8 291.7,124.2 291.7,123.4 89.6,67.9" fill="#967d53" stroke="#967d53" stroke-width="0.5"/><polygon points="89.6,67.9 291.7,123.4 293.6,122.2 91.6,66.8" fill="#c1a16b" stroke="#c1a16b" stroke-width="0.5"/><polygon points="289.7,125.4 291.7,124.2 291.7,123.4 289.7,124.5" fill="#947c53" stroke="#947c53" stroke-width="0.5"/><polygon points="87.7,70 289.7,125.4 289.7,124.5 87.7,69.1" fill="#967d53" stroke="#967d53" stroke-width="0.5"/><polygon points="87.7,69.1 289.7,124.5 291.7,123.4 89.6,67.9" fill="#c1a16b" stroke="#c1a16b" stroke-width="0.5"/><polygon points="31.3,130 32,130.2 32,126 31.3,125.8" fill="#967d53" stroke="#967d53" stroke-width="0.5"/><polygon points="31.3,125.8 32,126 117.2,74.7 116.4,74.4" fill="#c1a16b" stroke="#c1a16b" stroke-width="0.5"/><polygon points="32,130.2 117.2,78.9 117.2,74.7 32,126" fill="#947c53" stroke="#947c53" stroke-width="0.5"/><polygon points="268.5,70.8 266.6,70.3 266.1,70.6 267.9,71.1" fill="#c1a16b" stroke="#c1a16b" stroke-width="0.5"/><polygon points="268.5,116 268.5,70.8 267.9,71.1 267.9,116.3" fill="#947c53" stroke="#947c53" stroke-width="0.5"/><polygon points="267.9,116.3 267.9,71.1 266.1,70.6 266.1,115.8" fill="#967d53" stroke="#967d53" stroke-width="0.5"/><polygon points="287.7,126.6 289.7,125.4 289.7,124.5 287.7,125.7" fill="#947c53" stroke="#947c53" stroke-width="0.5"/><polygon points="85.7,71.2 287.7,126.6 287.7,125.7 85.7,70.3" fill="#967d53" stroke="#967d53" stroke-width="0.5"/><polygon points="85.7,70.3 287.7,125.7 289.7,124.5 87.7,69.1" fill="#c1a16b" stroke="#c1a16b" stroke-width="0.5"/><polygon points="7.1,73.2 7.9,73.4 7.9,71.3 7.1,71.1" fill="#967d53" stroke="#967d53" stroke-width="0.5"/><polygon points="7.1,71.1 7.9,71.3 90.9,21.3 90.1,21.1" fill="#c1a16b" stroke="#c1a16b" stroke-width="0.5"/><polygon points="7.9,73.4 90.9,23.3 90.9,21.3 7.9,71.3" fill="#947c53" stroke="#947c53" stroke-width="0.5"/><polygon points="8.6,72.3 6.8,71.8 6.3,72.2 8.1,72.7" fill="#c1a16b" stroke="#c1a16b" stroke-width="0.5"/><polygon points="8.6,117.6 8.6,72.3 8.1,72.7 8.1,117.9" fill="#947c53" stroke="#947c53" stroke-width="0.5"/><polygon points="8.1,117.9 8.1,72.7 6.3,72.2 6.3,117.4" fill="#967d53" stroke="#967d53" stroke-width="0.5"/><polygon points="7.3,72.9 8.1,73.2 7.6,71.6 6.8,71.3" fill="#7d6845" stroke="#7d6845" stroke-width="0.5"/><polygon points="6.8,71.3 7.6,71.6 49.1,18.7 48.4,18.5" fill="#c5a56e" stroke="#c5a56e" stroke-width="0.5"/><polygon points="8.1,73.2 49.6,20.3 49.1,18.7 7.6,71.6" fill="#947c53" stroke="#947c53" stroke-width="0.5"/><polygon points="285.8,127.8 287.7,126.6 287.7,125.7 285.8,126.9" fill="#947c53" stroke="#947c53" stroke-width="0.5"/><polygon points="83.8,72.3 285.8,127.8 285.8,126.9 83.8,71.5" fill="#967d53" stroke="#967d53" stroke-width="0.5"/><polygon points="83.8,71.5 285.8,126.9 287.7,125.7 85.7,70.3" fill="#c1a16b" stroke="#c1a16b" stroke-width="0.5"/><polygon points="39.7,132.3 40.5,132.5 40.5,128.3 39.7,128.1" fill="#967d53" stroke="#967d53" stroke-width="0.5"/><polygon points="39.7,128.1 40.5,128.3 125.6,77 124.8,76.8" fill="#c1a16b" stroke="#c1a16b" stroke-width="0.5"/><polygon points="40.5,132.5 125.6,81.2 125.6,77 40.5,128.3" fill="#947c53" stroke="#947c53" stroke-width="0.5"/><polygon points="124.9,41.4 125.4,39.2 124.6,39 124.1,41.1" fill="#ae9161" stroke="#ae9161" stroke-width="0.5"/><polygon points="166.9,42 166.1,41.8 124.6,39 125.4,39.2" fill="#b29563" stroke="#b29563" stroke-width="0.5"/><polygon points="166.4,44.1 166.9,42 125.4,39.2 124.9,41.4" fill="#947c53" stroke="#947c53" stroke-width="0.5"/><polygon points="283.8,128.9 285.8,127.8 285.8,126.9 283.8,128.1" fill="#947c53" stroke="#947c53" stroke-width="0.5"/><polygon points="81.8,73.5 283.8,128.9 283.8,128.1 81.8,72.6" fill="#967d53" stroke="#967d53" stroke-width="0.5"/><polygon points="81.8,72.6 283.8,128.1 285.8,126.9 83.8,71.5" fill="#c1a16b" stroke="#c1a16b" stroke-width="0.5"/><polygon points="281.9,130.1 283.8,128.9 283.8,128.1 281.9,129.2" fill="#947c53" stroke="#947c53" stroke-width="0.5"/><polygon points="79.9,74.7 281.9,130.1 281.9,129.2 79.9,73.8" fill="#967d53" stroke="#967d53" stroke-width="0.5"/><polygon points="79.9,73.8 281.9,129.2 283.8,128.1 81.8,72.6" fill="#c1a16b" stroke="#c1a16b" stroke-width="0.5"/><polygon points="48.1,134.6 48.9,134.8 48.9,130.6 48.1,130.4" fill="#967d53" stroke="#967d53" stroke-width="0.5"/><polygon points="48.1,130.4 48.9,130.6 134.1,79.3 133.3,79.1" fill="#c1a16b" stroke="#c1a16b" stroke-width="0.5"/><polygon points="48.9,134.8 134.1,83.5 134.1,79.3 48.9,130.6" fill="#947c53" stroke="#947c53" stroke-width="0.5"/><polygon points="279.9,131.3 281.9,130.1 281.9,129.2 279.9,130.4" fill="#947c53" stroke="#947c53" stroke-width="0.5"/><polygon points="77.9,75.9 279.9,131.3 279.9,130.4 77.9,75" fill="#967d53" stroke="#967d53" stroke-width="0.5"/><polygon points="77.9,75 279.9,130.4 281.9,129.2 79.9,73.8" fill="#c1a16b" stroke="#c1a16b" stroke-width="0.5"/><polygon points="278,132.5 279.9,131.3 279.9,130.4 278,131.6" fill="#947c53" stroke="#947c53" stroke-width="0.5"/><polygon points="76,77 278,132.5 278,131.6 76,76.2" fill="#967d53" stroke="#967d53" stroke-width="0.5"/><polygon points="76,76.2 278,131.6 279.9,130.4 77.9,75" fill="#c1a16b" stroke="#c1a16b" stroke-width="0.5"/><polygon points="56.5,136.9 57.3,137.2 57.3,133 56.5,132.7" fill="#967d53" stroke="#967d53" stroke-width="0.5"/><polygon points="56.5,132.7 57.3,133 142.5,81.6 141.7,81.4" fill="#c1a16b" stroke="#c1a16b" stroke-width="0.5"/><polygon points="57.3,137.2 142.5,85.8 142.5,81.6 57.3,133" fill="#947c53" stroke="#947c53" stroke-width="0.5"/><polygon points="293.7,77.7 291.9,77.2 291.4,77.5 293.2,78" fill="#c1a16b" stroke="#c1a16b" stroke-width="0.5"/><polygon points="293.7,122.9 293.7,77.7 293.2,78 293.2,123.2" fill="#947c53" stroke="#947c53" stroke-width="0.5"/><polygon points="293.2,123.2 293.2,78 291.4,77.5 291.4,122.7" fill="#967d53" stroke="#967d53" stroke-width="0.5"/><polygon points="276,133.6 278,132.5 278,131.6 276,132.8" fill="#947c53" stroke="#947c53" stroke-width="0.5"/><polygon points="74,78.2 276,133.6 276,132.8 74,77.3" fill="#967d53" stroke="#967d53" stroke-width="0.5"/><polygon points="74,77.3 276,132.8 278,131.6 76,76.2" fill="#c1a16b" stroke="#c1a16b" stroke-width="0.5"/><polygon points="32.3,80.1 33.1,80.3 33.1,78.3 32.3,78.1" fill="#967d53" stroke="#967d53" stroke-width="0.5"/><polygon points="32.3,78.1 33.1,78.3 116.2,28.2 115.4,28" fill="#c1a16b" stroke="#c1a16b" stroke-width="0.5"/><polygon points="33.1,80.3 116.2,30.2 116.2,28.2 33.1,78.3" fill="#947c53" stroke="#947c53" stroke-width="0.5"/><polygon points="33.9,79.3 32.1,78.8 31.5,79.1 33.4,79.6" fill="#c1a16b" stroke="#c1a16b" stroke-width="0.5"/><polygon points="33.9,124.5 33.9,79.3 33.4,79.6 33.4,124.8" fill="#947c53" stroke="#947c53" stroke-width="0.5"/><polygon points="33.4,124.8 33.4,79.6 31.5,79.1 31.5,124.3" fill="#967d53" stroke="#967d53" stroke-width="0.5"/><polygon points="32.6,79.9 33.3,80.1 32.9,78.5 32.1,78.3" fill="#7d6845" stroke="#7d6845" stroke-width="0.5"/><polygon points="32.1,78.3 32.9,78.5 74.4,25.6 73.6,25.4" fill="#c5a56e" stroke="#c5a56e" stroke-width="0.5"/><polygon points="33.3,80.1 74.9,27.2 74.4,25.6 32.9,78.5" fill="#947c53" stroke="#947c53" stroke-width="0.5"/><polygon points="274.1,134.8 276,133.6 276,132.8 274.1,134" fill="#947c53" stroke="#947c53" stroke-width="0.5"/><polygon points="72,79.4 274.1,134.8 274.1,134 72,78.5" fill="#967d53" stroke="#967d53" stroke-width="0.5"/><polygon points="72,78.5 274.1,134 276,132.8 74,77.3" fill="#c1a16b" stroke="#c1a16b" stroke-width="0.5"/><polygon points="64.9,139.2 65.7,139.5 65.7,135.3 64.9,135" fill="#967d53" stroke="#967d53" stroke-width="0.5"/><polygon points="64.9,135 65.7,135.3 150.9,83.9 150.1,83.7" fill="#c1a16b" stroke="#c1a16b" stroke-width="0.5"/><polygon points="65.7,139.5 150.9,88.1 150.9,83.9 65.7,135.3" fill="#947c53" stroke="#947c53" stroke-width="0.5"/><polygon points="150.2,48.3 150.6,46.1 149.8,45.9 149.4,48.1" fill="#ae9161" stroke="#ae9161" stroke-width="0.5"/><polygon points="192.2,48.9 191.4,48.7 149.8,45.9 150.6,46.1" fill="#b29563" stroke="#b29563" stroke-width="0.5"/><polygon points="191.7,51.1 192.2,48.9 150.6,46.1 150.2,48.3" fill="#947c53" stroke="#947c53" stroke-width="0.5"/><polygon points="272.1,136 274.1,134.8 274.1,134 272.1,135.1" fill="#947c53" stroke="#947c53" stroke-width="0.5"/><polygon points="70.1,80.6 272.1,136 272.1,135.1 70.1,79.7" fill="#967d53" stroke="#967d53" stroke-width="0.5"/><polygon points="70.1,79.7 272.1,135.1 274.1,134 72,78.5" fill="#c1a16b" stroke="#c1a16b" stroke-width="0.5"/><polygon points="270.2,137.2 272.1,136 272.1,135.1 270.2,136.3" fill="#947c53" stroke="#947c53" stroke-width="0.5"/><polygon points="68.1,81.7 270.2,137.2 270.2,136.3 68.1,80.9" fill="#967d53" stroke="#967d53" stroke-width="0.5"/><polygon points="68.1,80.9 270.2,136.3 272.1,135.1 70.1,79.7" fill="#c1a16b" stroke="#c1a16b" stroke-width="0.5"/><polygon points="73.3,141.6 74.1,141.8 74.1,137.6 73.3,137.4" fill="#967d53" stroke="#967d53" stroke-width="0.5"/><polygon points="73.3,137.4 74.1,137.6 159.3,86.2 158.5,86" fill="#c1a16b" stroke="#c1a16b" stroke-width="0.5"/><polygon points="74.1,141.8 159.3,90.4 159.3,86.2 74.1,137.6" fill="#947c53" stroke="#947c53" stroke-width="0.5"/><polygon points="268.2,138.4 270.2,137.2 270.2,136.3 268.2,137.5" fill="#947c53" stroke="#947c53" stroke-width="0.5"/><polygon points="66.2,82.9 268.2,138.4 268.2,137.5 66.2,82.1" fill="#967d53" stroke="#967d53" stroke-width="0.5"/><polygon points="66.2,82.1 268.2,137.5 270.2,136.3 68.1,80.9" fill="#c1a16b" stroke="#c1a16b" stroke-width="0.5"/><polygon points="266.3,139.5 268.2,138.4 268.2,137.5 266.3,138.7" fill="#947c53" stroke="#947c53" stroke-width="0.5"/><polygon points="64.2,84.1 266.3,139.5 266.3,138.7 64.2,83.2" fill="#967d53" stroke="#967d53" stroke-width="0.5"/><polygon points="64.2,83.2 266.3,138.7 268.2,137.5 66.2,82.1" fill="#c1a16b" stroke="#c1a16b" stroke-width="0.5"/><polygon points="81.8,143.9 82.6,144.1 82.6,139.9 81.8,139.7" fill="#967d53" stroke="#967d53" stroke-width="0.5"/><polygon points="81.8,139.7 82.6,139.9 167.7,88.5 166.9,88.3" fill="#c1a16b" stroke="#c1a16b" stroke-width="0.5"/><polygon points="82.6,144.1 167.7,92.7 167.7,88.5 82.6,139.9" fill="#947c53" stroke="#947c53" stroke-width="0.5"/><polygon points="264.3,140.7 266.3,139.5 266.3,138.7 264.3,139.8" fill="#947c53" stroke="#947c53" stroke-width="0.5"/><polygon points="62.3,85.3 264.3,140.7 264.3,139.8 62.3,84.4" fill="#967d53" stroke="#967d53" stroke-width="0.5"/><polygon points="62.3,84.4 264.3,139.8 266.3,138.7 64.2,83.2" fill="#c1a16b" stroke="#c1a16b" stroke-width="0.5"/><polygon points="57.6,87 58.4,87.2 58.4,85.2 57.6,85" fill="#967d53" stroke="#967d53" stroke-width="0.5"/><polygon points="57.6,85 58.4,85.2 141.4,35.1 140.6,34.9" fill="#c1a16b" stroke="#c1a16b" stroke-width="0.5"/><polygon points="58.4,87.2 141.4,37.2 141.4,35.1 58.4,85.2" fill="#947c53" stroke="#947c53" stroke-width="0.5"/><polygon points="59.2,86.2 57.3,85.7 56.8,86 58.6,86.5" fill="#c1a16b" stroke="#c1a16b" stroke-width="0.5"/><polygon points="59.2,131.4 59.2,86.2 58.6,86.5 58.6,131.7" fill="#947c53" stroke="#947c53" stroke-width="0.5"/><polygon points="58.6,131.7 58.6,86.5 56.8,86 56.8,131.2" fill="#967d53" stroke="#967d53" stroke-width="0.5"/><polygon points="57.8,86.8 58.6,87 58.1,85.4 57.3,85.2" fill="#7d6845" stroke="#7d6845" stroke-width="0.5"/><polygon points="57.3,85.2 58.1,85.4 99.6,32.6 98.9,32.3" fill="#c5a56e" stroke="#c5a56e" stroke-width="0.5"/><polygon points="58.6,87 100.1,34.1 99.6,32.6 58.1,85.4" fill="#947c53" stroke="#947c53" stroke-width="0.5"/><polygon points="262.4,141.9 264.3,140.7 264.3,139.8 262.4,141" fill="#947c53" stroke="#947c53" stroke-width="0.5"/><polygon points="60.3,86.5 262.4,141.9 262.4,141 60.3,85.6" fill="#967d53" stroke="#967d53" stroke-width="0.5"/><polygon points="60.3,85.6 262.4,141 264.3,139.8 62.3,84.4" fill="#c1a16b" stroke="#c1a16b" stroke-width="0.5"/><polygon points="90.2,146.2 91,146.4 91,142.2 90.2,142" fill="#967d53" stroke="#967d53" stroke-width="0.5"/><polygon points="90.2,142 91,142.2 176.1,90.8 175.4,90.6" fill="#c1a16b" stroke="#c1a16b" stroke-width="0.5"/><polygon points="91,146.4 176.1,95 176.1,90.8 91,142.2" fill="#947c53" stroke="#947c53" stroke-width="0.5"/><polygon points="175.4,55.2 175.9,53.1 175.1,52.8 174.6,55" fill="#ae9161" stroke="#ae9161" stroke-width="0.5"/><polygon points="217.4,55.8 216.6,55.6 175.1,52.8 175.9,53.1" fill="#b29563" stroke="#b29563" stroke-width="0.5"/><polygon points="216.9,58 217.4,55.8 175.9,53.1 175.4,55.2" fill="#947c53" stroke="#947c53" stroke-width="0.5"/><polygon points="260.4,143.1 262.4,141.9 262.4,141 260.4,142.2" fill="#947c53" stroke="#947c53" stroke-width="0.5"/><polygon points="58.4,87.6 260.4,143.1 260.4,142.2 58.4,86.8" fill="#967d53" stroke="#967d53" stroke-width="0.5"/><polygon points="58.4,86.8 260.4,142.2 262.4,141 60.3,85.6" fill="#c1a16b" stroke="#c1a16b" stroke-width="0.5"/><polygon points="258.5,144.2 260.4,143.1 260.4,142.2 258.5,143.4" fill="#947c53" stroke="#947c53" stroke-width="0.5"/><polygon points="56.4,88.8 258.5,144.2 258.5,143.4 56.4,87.9" fill="#967d53" stroke="#967d53" stroke-width="0.5"/><polygon points="56.4,87.9 258.5,143.4 260.4,142.2 58.4,86.8" fill="#c1a16b" stroke="#c1a16b" stroke-width="0.5"/><polygon points="98.6,148.5 99.4,148.7 99.4,144.5 98.6,144.3" fill="#967d53" stroke="#967d53" stroke-width="0.5"/><polygon points="98.6,144.3 99.4,144.5 184.6,93.1 183.8,92.9" fill="#c1a16b" stroke="#c1a16b" stroke-width="0.5"/><polygon points="99.4,148.7 184.6,97.3 184.6,93.1 99.4,144.5" fill="#947c53" stroke="#947c53" stroke-width="0.5"/><polygon points="256.5,145.4 258.5,144.2 258.5,143.4 256.5,144.5" fill="#947c53" stroke="#947c53" stroke-width="0.5"/><polygon points="54.5,90 256.5,145.4 256.5,144.5 54.5,89.1" fill="#967d53" stroke="#967d53" stroke-width="0.5"/><polygon points="54.5,89.1 256.5,144.5 258.5,143.4 56.4,87.9" fill="#c1a16b" stroke="#c1a16b" stroke-width="0.5"/><polygon points="254.6,146.6 256.5,145.4 256.5,144.5 254.6,145.7" fill="#947c53" stroke="#947c53" stroke-width="0.5"/><polygon points="52.5,91.2 254.6,146.6 254.6,145.7 52.5,90.3" fill="#967d53" stroke="#967d53" stroke-width="0.5"/><polygon points="52.5,90.3 254.6,145.7 256.5,144.5 54.5,89.1" fill="#c1a16b" stroke="#c1a16b" stroke-width="0.5"/><polygon points="107,150.8 107.8,151 107.8,146.8 107,146.6" fill="#967d53" stroke="#967d53" stroke-width="0.5"/><polygon points="107,146.6 107.8,146.8 193,95.4 192.2,95.2" fill="#c1a16b" stroke="#c1a16b" stroke-width="0.5"/><polygon points="107.8,151 193,99.7 193,95.4 107.8,146.8" fill="#947c53" stroke="#947c53" stroke-width="0.5"/><polygon points="252.6,147.8 254.6,146.6 254.6,145.7 252.6,146.9" fill="#947c53" stroke="#947c53" stroke-width="0.5"/><polygon points="50.6,92.3 252.6,147.8 252.6,146.9 50.6,91.5" fill="#967d53" stroke="#967d53" stroke-width="0.5"/><polygon points="50.6,91.5 252.6,146.9 254.6,145.7 52.5,90.3" fill="#c1a16b" stroke="#c1a16b" stroke-width="0.5"/><polygon points="251.6,155.8 251.6,152.6 250.4,153.3 250.4,156.5" fill="#947c53" stroke="#947c53" stroke-width="0.5"/><polygon points="49.6,97.1 48.4,97.9 250.4,153.3 251.6,152.6" fill="#c1a16b" stroke="#c1a16b" stroke-width="0.5"/><polygon points="48.4,101.1 250.4,156.5 250.4,153.3 48.4,97.9" fill="#967d53" stroke="#967d53" stroke-width="0.5"/><polygon points="82.8,93.9 83.6,94.2 83.6,92.1 82.8,91.9" fill="#967d53" stroke="#967d53" stroke-width="0.5"/><polygon points="82.8,91.9 83.6,92.1 166.7,42.1 165.9,41.8" fill="#c1a16b" stroke="#c1a16b" stroke-width="0.5"/><polygon points="83.6,94.2 166.7,44.1 166.7,42.1 83.6,92.1" fill="#947c53" stroke="#947c53" stroke-width="0.5"/><polygon points="84.4,93.1 82.6,92.6 82,92.9 83.9,93.4" fill="#c1a16b" stroke="#c1a16b" stroke-width="0.5"/><polygon points="84.4,138.4 84.4,93.1 83.9,93.4 83.9,138.7" fill="#947c53" stroke="#947c53" stroke-width="0.5"/><polygon points="83.9,138.7 83.9,93.4 82,92.9 82,138.2" fill="#967d53" stroke="#967d53" stroke-width="0.5"/><polygon points="83.1,93.7 83.9,93.9 83.4,92.3 82.6,92.1" fill="#7d6845" stroke="#7d6845" stroke-width="0.5"/><polygon points="82.6,92.1 83.4,92.3 124.9,39.5 124.1,39.3" fill="#c5a56e" stroke="#c5a56e" stroke-width="0.5"/><polygon points="83.9,93.9 125.4,41.1 124.9,39.5 83.4,92.3" fill="#947c53" stroke="#947c53" stroke-width="0.5"/><polygon points="115.4,153.1 116.2,153.3 116.2,149.1 115.4,148.9" fill="#967d53" stroke="#967d53" stroke-width="0.5"/><polygon points="115.4,148.9 116.2,149.1 201.4,97.8 200.6,97.5" fill="#c1a16b" stroke="#c1a16b" stroke-width="0.5"/><polygon points="116.2,153.3 201.4,102 201.4,97.8 116.2,149.1" fill="#947c53" stroke="#947c53" stroke-width="0.5"/><polygon points="250.7,148.9 252.6,147.8 252.6,146.9 250.7,148.1" fill="#947c53" stroke="#947c53" stroke-width="0.5"/><polygon points="48.6,93.5 250.7,148.9 250.7,148.1 48.6,92.6" fill="#967d53" stroke="#967d53" stroke-width="0.5"/><polygon points="48.6,92.6 250.7,148.1 252.6,146.9 50.6,91.5" fill="#c1a16b" stroke="#c1a16b" stroke-width="0.5"/><polygon points="200.7,62.1 201.1,60 200.4,59.8 199.9,61.9" fill="#ae9161" stroke="#ae9161" stroke-width="0.5"/><polygon points="242.7,62.8 241.9,62.6 200.4,59.8 201.1,60" fill="#b29563" stroke="#b29563" stroke-width="0.5"/><polygon points="242.2,64.9 242.7,62.8 201.1,60 200.7,62.1" fill="#947c53" stroke="#947c53" stroke-width="0.5"/><polygon points="248.7,150.1 250.7,148.9 250.7,148.1 248.7,149.3" fill="#947c53" stroke="#947c53" stroke-width="0.5"/><polygon points="46.7,94.7 248.7,150.1 248.7,149.3 46.7,93.8" fill="#967d53" stroke="#967d53" stroke-width="0.5"/><polygon points="46.7,93.8 248.7,149.3 250.7,148.1 48.6,92.6" fill="#c1a16b" stroke="#c1a16b" stroke-width="0.5"/><polygon points="123.9,155.4 124.6,155.6 124.6,151.4 123.9,151.2" fill="#967d53" stroke="#967d53" stroke-width="0.5"/><polygon points="123.9,151.2 124.6,151.4 209.8,100.1 209,99.8" fill="#c1a16b" stroke="#c1a16b" stroke-width="0.5"/><polygon points="124.6,155.6 209.8,104.3 209.8,100.1 124.6,151.4" fill="#947c53" stroke="#947c53" stroke-width="0.5"/><polygon points="246.8,151.3 248.7,150.1 248.7,149.3 246.8,150.4" fill="#947c53" stroke="#947c53" stroke-width="0.5"/><polygon points="44.7,95.9 246.8,151.3 246.8,150.4 44.7,95" fill="#967d53" stroke="#967d53" stroke-width="0.5"/><polygon points="44.7,95 246.8,150.4 248.7,149.3 46.7,93.8" fill="#c1a16b" stroke="#c1a16b" stroke-width="0.5"/><polygon points="244.8,152.5 246.8,151.3 246.8,150.4 244.8,151.6" fill="#947c53" stroke="#947c53" stroke-width="0.5"/><polygon points="42.8,97 244.8,152.5 244.8,151.6 42.8,96.2" fill="#967d53" stroke="#967d53" stroke-width="0.5"/><polygon points="42.8,96.2 244.8,151.6 246.8,150.4 44.7,95" fill="#c1a16b" stroke="#c1a16b" stroke-width="0.5"/><polygon points="132.3,157.7 133.1,157.9 133.1,153.7 132.3,153.5" fill="#967d53" stroke="#967d53" stroke-width="0.5"/><polygon points="132.3,153.5 133.1,153.7 218.2,102.4 217.4,102.2" fill="#c1a16b" stroke="#c1a16b" stroke-width="0.5"/><polygon points="133.1,157.9 218.2,106.6 218.2,102.4 133.1,153.7" fill="#947c53" stroke="#947c53" stroke-width="0.5"/><polygon points="242.9,153.7 244.8,152.5 244.8,151.6 242.9,152.8" fill="#947c53" stroke="#947c53" stroke-width="0.5"/><polygon points="40.8,98.2 242.9,153.7 242.9,152.8 40.8,97.4" fill="#967d53" stroke="#967d53" stroke-width="0.5"/><polygon points="40.8,97.4 242.9,152.8 244.8,151.6 42.8,96.2" fill="#c1a16b" stroke="#c1a16b" stroke-width="0.5"/><polygon points="240.9,154.8 242.9,153.7 242.9,152.8 240.9,154" fill="#947c53" stroke="#947c53" stroke-width="0.5"/><polygon points="38.9,99.4 240.9,154.8 240.9,154 38.9,98.5" fill="#967d53" stroke="#967d53" stroke-width="0.5"/><polygon points="38.9,98.5 240.9,154 242.9,152.8 40.8,97.4" fill="#c1a16b" stroke="#c1a16b" stroke-width="0.5"/><polygon points="108.1,100.9 108.9,101.1 108.9,99.1 108.1,98.8" fill="#967d53" stroke="#967d53" stroke-width="0.5"/><polygon points="108.1,98.8 108.9,99.1 191.9,49 191.1,48.8" fill="#c1a16b" stroke="#c1a16b" stroke-width="0.5"/><polygon points="108.9,101.1 191.9,51 191.9,49 108.9,99.1" fill="#947c53" stroke="#947c53" stroke-width="0.5"/><polygon points="109.7,100.1 107.8,99.6 107.3,99.9 109.1,100.4" fill="#c1a16b" stroke="#c1a16b" stroke-width="0.5"/><polygon points="109.7,145.3 109.7,100.1 109.1,100.4 109.1,145.6" fill="#947c53" stroke="#947c53" stroke-width="0.5"/><polygon points="109.1,145.6 109.1,100.4 107.3,99.9 107.3,145.1" fill="#967d53" stroke="#967d53" stroke-width="0.5"/><polygon points="108.3,100.7 109.1,100.9 108.6,99.3 107.8,99.1" fill="#7d6845" stroke="#7d6845" stroke-width="0.5"/><polygon points="107.8,99.1 108.6,99.3 150.2,46.4 149.4,46.2" fill="#c5a56e" stroke="#c5a56e" stroke-width="0.5"/><polygon points="109.1,100.9 150.6,48 150.2,46.4 108.6,99.3" fill="#947c53" stroke="#947c53" stroke-width="0.5"/><polygon points="140.7,160 141.5,160.2 141.5,156 140.7,155.8" fill="#967d53" stroke="#967d53" stroke-width="0.5"/><polygon points="140.7,155.8 141.5,156 226.7,104.7 225.9,104.5" fill="#c1a16b" stroke="#c1a16b" stroke-width="0.5"/><polygon points="141.5,160.2 226.7,108.9 226.7,104.7 141.5,156" fill="#947c53" stroke="#947c53" stroke-width="0.5"/><polygon points="239,156 240.9,154.8 240.9,154 239,155.1" fill="#947c53" stroke="#947c53" stroke-width="0.5"/><polygon points="36.9,100.6 239,156 239,155.1 36.9,99.7" fill="#967d53" stroke="#967d53" stroke-width="0.5"/><polygon points="36.9,99.7 239,155.1 240.9,154 38.9,98.5" fill="#c1a16b" stroke="#c1a16b" stroke-width="0.5"/><polygon points="225.9,69.1 226.4,66.9 225.6,66.7 225.1,68.9" fill="#ae9161" stroke="#ae9161" stroke-width="0.5"/><polygon points="267.9,69.7 267.1,69.5 225.6,66.7 226.4,66.9" fill="#b29563" stroke="#b29563" stroke-width="0.5"/><polygon points="267.4,71.9 267.9,69.7 226.4,66.9 225.9,69.1" fill="#947c53" stroke="#947c53" stroke-width="0.5"/><polygon points="237,157.2 239,156 239,155.1 237,156.3" fill="#947c53" stroke="#947c53" stroke-width="0.5"/><polygon points="35,101.8 237,157.2 237,156.3 35,100.9" fill="#967d53" stroke="#967d53" stroke-width="0.5"/><polygon points="35,100.9 237,156.3 239,155.1 36.9,99.7" fill="#c1a16b" stroke="#c1a16b" stroke-width="0.5"/><polygon points="149.1,162.3 149.9,162.6 149.9,158.4 149.1,158.1" fill="#967d53" stroke="#967d53" stroke-width="0.5"/><polygon points="149.1,158.1 149.9,158.4 235.1,107 234.3,106.8" fill="#c1a16b" stroke="#c1a16b" stroke-width="0.5"/><polygon points="149.9,162.6 235.1,111.2 235.1,107 149.9,158.4" fill="#947c53" stroke="#947c53" stroke-width="0.5"/><polygon points="235,158.4 237,157.2 237,156.3 235,157.5" fill="#947c53" stroke="#947c53" stroke-width="0.5"/><polygon points="33,102.9 235,158.4 235,157.5 33,102.1" fill="#967d53" stroke="#967d53" stroke-width="0.5"/><polygon points="33,102.1 235,157.5 237,156.3 35,100.9" fill="#c1a16b" stroke="#c1a16b" stroke-width="0.5"/><polygon points="233.1,159.5 235,158.4 235,157.5 233.1,158.7" fill="#947c53" stroke="#947c53" stroke-width="0.5"/><polygon points="31.1,104.1 233.1,159.5 233.1,158.7 31.1,103.2" fill="#967d53" stroke="#967d53" stroke-width="0.5"/><polygon points="31.1,103.2 233.1,158.7 235,157.5 33,102.1" fill="#c1a16b" stroke="#c1a16b" stroke-width="0.5"/><polygon points="157.5,164.7 158.3,164.9 158.3,160.7 157.5,160.4" fill="#967d53" stroke="#967d53" stroke-width="0.5"/><polygon points="157.5,160.4 158.3,160.7 243.5,109.3 242.7,109.1" fill="#c1a16b" stroke="#c1a16b" stroke-width="0.5"/><polygon points="158.3,164.9 243.5,113.5 243.5,109.3 158.3,160.7" fill="#947c53" stroke="#947c53" stroke-width="0.5"/><polygon points="231.1,160.7 233.1,159.5 233.1,158.7 231.1,159.8" fill="#947c53" stroke="#947c53" stroke-width="0.5"/><polygon points="29.1,105.3 231.1,160.7 231.1,159.8 29.1,104.4" fill="#967d53" stroke="#967d53" stroke-width="0.5"/><polygon points="29.1,104.4 231.1,159.8 233.1,158.7 31.1,103.2" fill="#c1a16b" stroke="#c1a16b" stroke-width="0.5"/><polygon points="229.2,161.9 231.1,160.7 231.1,159.8 229.2,161" fill="#947c53" stroke="#947c53" stroke-width="0.5"/><polygon points="27.2,106.5 229.2,161.9 229.2,161 27.2,105.6" fill="#967d53" stroke="#967d53" stroke-width="0.5"/><polygon points="27.2,105.6 229.2,161 231.1,159.8 29.1,104.4" fill="#c1a16b" stroke="#c1a16b" stroke-width="0.5"/><polygon points="133.3,107.8 134.1,108 134.1,106 133.3,105.8" fill="#967d53" stroke="#967d53" stroke-width="0.5"/><polygon points="133.3,105.8 134.1,106 217.2,55.9 216.4,55.7" fill="#c1a16b" stroke="#c1a16b" stroke-width="0.5"/><polygon points="134.1,108 217.2,57.9 217.2,55.9 134.1,106" fill="#947c53" stroke="#947c53" stroke-width="0.5"/><polygon points="134.9,107 133.1,106.5 132.5,106.8 134.4,107.3" fill="#c1a16b" stroke="#c1a16b" stroke-width="0.5"/><polygon points="134.9,152.2 134.9,107 134.4,107.3 134.4,152.5" fill="#947c53" stroke="#947c53" stroke-width="0.5"/><polygon points="134.4,152.5 134.4,107.3 132.5,106.8 132.5,152" fill="#967d53" stroke="#967d53" stroke-width="0.5"/><polygon points="133.6,107.6 134.4,107.8 133.9,106.2 133.1,106" fill="#7d6845" stroke="#7d6845" stroke-width="0.5"/><polygon points="133.1,106 133.9,106.2 175.4,53.3 174.6,53.1" fill="#c5a56e" stroke="#c5a56e" stroke-width="0.5"/><polygon points="134.4,107.8 175.9,54.9 175.4,53.3 133.9,106.2" fill="#947c53" stroke="#947c53" stroke-width="0.5"/><polygon points="165.9,167 166.7,167.2 166.7,163 165.9,162.8" fill="#967d53" stroke="#967d53" stroke-width="0.5"/><polygon points="165.9,162.8 166.7,163 251.9,111.6 251.1,111.4" fill="#c1a16b" stroke="#c1a16b" stroke-width="0.5"/><polygon points="166.7,167.2 251.9,115.8 251.9,111.6 166.7,163" fill="#947c53" stroke="#947c53" stroke-width="0.5"/><polygon points="227.2,163.1 229.2,161.9 229.2,161 227.2,162.2" fill="#947c53" stroke="#947c53" stroke-width="0.5"/><polygon points="25.2,107.6 227.2,163.1 227.2,162.2 25.2,106.8" fill="#967d53" stroke="#967d53" stroke-width="0.5"/><polygon points="25.2,106.8 227.2,162.2 229.2,161 27.2,105.6" fill="#c1a16b" stroke="#c1a16b" stroke-width="0.5"/><polygon points="251.2,76 251.6,73.8 250.9,73.6 250.4,75.8" fill="#ae9161" stroke="#ae9161" stroke-width="0.5"/><polygon points="293.2,76.6 292.4,76.4 250.9,73.6 251.6,73.8" fill="#b29563" stroke="#b29563" stroke-width="0.5"/><polygon points="292.7,78.8 293.2,76.6 251.6,73.8 251.2,76" fill="#947c53" stroke="#947c53" stroke-width="0.5"/><polygon points="251.3,75.7 251.3,73.6 250.8,74 250.8,76" fill="#947c53" stroke="#947c53" stroke-width="0.5"/><polygon points="49.2,18.2 48.7,18.5 250.8,74 251.3,73.6" fill="#c1a16b" stroke="#c1a16b" stroke-width="0.5"/><polygon points="48.7,20.6 250.8,76 250.8,74 48.7,18.5" fill="#967d53" stroke="#967d53" stroke-width="0.5"/><polygon points="225.3,164.2 227.2,163.1 227.2,162.2 225.3,163.4" fill="#947c53" stroke="#947c53" stroke-width="0.5"/><polygon points="23.3,108.8 225.3,164.2 225.3,163.4 23.3,108" fill="#967d53" stroke="#967d53" stroke-width="0.5"/><polygon points="23.3,108 225.3,163.4 227.2,162.2 25.2,106.8" fill="#c1a16b" stroke="#c1a16b" stroke-width="0.5"/><polygon points="174.4,169.3 175.2,169.5 175.2,165.3 174.4,165.1" fill="#967d53" stroke="#967d53" stroke-width="0.5"/><polygon points="174.4,165.1 175.2,165.3 260.3,113.9 259.5,113.7" fill="#c1a16b" stroke="#c1a16b" stroke-width="0.5"/><polygon points="175.2,169.5 260.3,118.1 260.3,113.9 175.2,165.3" fill="#947c53" stroke="#947c53" stroke-width="0.5"/><polygon points="223.3,165.4 225.3,164.2 225.3,163.4 223.3,164.6" fill="#947c53" stroke="#947c53" stroke-width="0.5"/><polygon points="21.3,110 223.3,165.4 223.3,164.6 21.3,109.1" fill="#967d53" stroke="#967d53" stroke-width="0.5"/><polygon points="21.3,109.1 223.3,164.6 225.3,163.4 23.3,108" fill="#c1a16b" stroke="#c1a16b" stroke-width="0.5"/><polygon points="221.4,166.6 223.3,165.4 223.3,164.6 221.4,165.7" fill="#947c53" stroke="#947c53" stroke-width="0.5"/><polygon points="19.3,111.2 221.4,166.6 221.4,165.7 19.3,110.3" fill="#967d53" stroke="#967d53" stroke-width="0.5"/><polygon points="19.3,110.3 221.4,165.7 223.3,164.6 21.3,109.1" fill="#c1a16b" stroke="#c1a16b" stroke-width="0.5"/><polygon points="182.8,171.6 183.6,171.8 183.6,167.6 182.8,167.4" fill="#967d53" stroke="#967d53" stroke-width="0.5"/><polygon points="182.8,167.4 183.6,167.6 268.7,116.2 268,116" fill="#c1a16b" stroke="#c1a16b" stroke-width="0.5"/><polygon points="183.6,171.8 268.7,120.4 268.7,116.2 183.6,167.6" fill="#947c53" stroke="#947c53" stroke-width="0.5"/><polygon points="219.4,167.8 221.4,166.6 221.4,165.7 219.4,166.9" fill="#947c53" stroke="#947c53" stroke-width="0.5"/><polygon points="17.4,112.4 219.4,167.8 219.4,166.9 17.4,111.5" fill="#967d53" stroke="#967d53" stroke-width="0.5"/><polygon points="17.4,111.5 219.4,166.9 221.4,165.7 19.3,110.3" fill="#c1a16b" stroke="#c1a16b" stroke-width="0.5"/><polygon points="217.5,169 219.4,167.8 219.4,166.9 217.5,168.1" fill="#947c53" stroke="#947c53" stroke-width="0.5"/><polygon points="15.4,113.5 217.5,169 217.5,168.1 15.4,112.7" fill="#967d53" stroke="#967d53" stroke-width="0.5"/><polygon points="15.4,112.7 217.5,168.1 219.4,166.9 17.4,111.5" fill="#c1a16b" stroke="#c1a16b" stroke-width="0.5"/><polygon points="158.6,114.7 159.4,114.9 159.4,112.9 158.6,112.7" fill="#967d53" stroke="#967d53" stroke-width="0.5"/><polygon points="158.6,112.7 159.4,112.9 242.4,62.8 241.6,62.6" fill="#c1a16b" stroke="#c1a16b" stroke-width="0.5"/><polygon points="159.4,114.9 242.4,64.9 242.4,62.8 159.4,112.9" fill="#947c53" stroke="#947c53" stroke-width="0.5"/><polygon points="160.2,113.9 158.3,113.4 157.8,113.7 159.6,114.2" fill="#c1a16b" stroke="#c1a16b" stroke-width="0.5"/><polygon points="160.2,159.1 160.2,113.9 159.6,114.2 159.6,159.5" fill="#947c53" stroke="#947c53" stroke-width="0.5"/><polygon points="159.6,159.5 159.6,114.2 157.8,113.7 157.8,159" fill="#967d53" stroke="#967d53" stroke-width="0.5"/><polygon points="158.8,114.5 159.6,114.7 159.1,113.1 158.4,112.9" fill="#7d6845" stroke="#7d6845" stroke-width="0.5"/><polygon points="158.4,112.9 159.1,113.1 200.7,60.3 199.9,60.1" fill="#c5a56e" stroke="#c5a56e" stroke-width="0.5"/><polygon points="159.6,114.7 201.1,61.9 200.7,60.3 159.1,113.1" fill="#947c53" stroke="#947c53" stroke-width="0.5"/><polygon points="191.2,173.9 192,174.1 192,169.9 191.2,169.7" fill="#967d53" stroke="#967d53" stroke-width="0.5"/><polygon points="191.2,169.7 192,169.9 277.2,118.5 276.4,118.3" fill="#c1a16b" stroke="#c1a16b" stroke-width="0.5"/><polygon points="192,174.1 277.2,122.7 277.2,118.5 192,169.9" fill="#947c53" stroke="#947c53" stroke-width="0.5"/><polygon points="215.5,170.1 217.5,169 217.5,168.1 215.5,169.3" fill="#947c53" stroke="#947c53" stroke-width="0.5"/><polygon points="13.5,114.7 215.5,170.1 215.5,169.3 13.5,113.8" fill="#967d53" stroke="#967d53" stroke-width="0.5"/><polygon points="13.5,113.8 215.5,169.3 217.5,168.1 15.4,112.7" fill="#c1a16b" stroke="#c1a16b" stroke-width="0.5"/><polygon points="213.6,171.3 215.5,170.1 215.5,169.3 213.6,170.4" fill="#947c53" stroke="#947c53" stroke-width="0.5"/><polygon points="11.5,115.9 213.6,171.3 213.6,170.4 11.5,115" fill="#967d53" stroke="#967d53" stroke-width="0.5"/><polygon points="11.5,115 213.6,170.4 215.5,169.3 13.5,113.8" fill="#c1a16b" stroke="#c1a16b" stroke-width="0.5"/><polygon points="199.6,176.2 200.4,176.4 200.4,172.2 199.6,172" fill="#967d53" stroke="#967d53" stroke-width="0.5"/><polygon points="199.6,172 200.4,172.2 285.6,120.9 284.8,120.6" fill="#c1a16b" stroke="#c1a16b" stroke-width="0.5"/><polygon points="200.4,176.4 285.6,125.1 285.6,120.9 200.4,172.2" fill="#947c53" stroke="#947c53" stroke-width="0.5"/><polygon points="211.6,172.5 213.6,171.3 213.6,170.4 211.6,171.6" fill="#947c53" stroke="#947c53" stroke-width="0.5"/><polygon points="9.6,117.1 211.6,172.5 211.6,171.6 9.6,116.2" fill="#967d53" stroke="#967d53" stroke-width="0.5"/><polygon points="9.6,116.2 211.6,171.6 213.6,170.4 11.5,115" fill="#c1a16b" stroke="#c1a16b" stroke-width="0.5"/><polygon points="209.7,181.1 209.7,177.9 208.4,178.6 208.4,181.8" fill="#947c53" stroke="#947c53" stroke-width="0.5"/><polygon points="7.6,122.4 6.4,123.2 208.4,178.6 209.7,177.9" fill="#c1a16b" stroke="#c1a16b" stroke-width="0.5"/><polygon points="6.4,126.4 208.4,181.8 208.4,178.6 6.4,123.2" fill="#967d53" stroke="#967d53" stroke-width="0.5"/><polygon points="209.7,173.7 211.6,172.5 211.6,171.6 209.7,172.8" fill="#947c53" stroke="#947c53" stroke-width="0.5"/><polygon points="7.6,118.2 209.7,173.7 209.7,172.8 7.6,117.4" fill="#967d53" stroke="#967d53" stroke-width="0.5"/><polygon points="7.6,117.4 209.7,172.8 211.6,171.6 9.6,116.2" fill="#c1a16b" stroke="#c1a16b" stroke-width="0.5"/><polygon points="208,178.5 208.8,178.7 208.8,174.5 208,174.3" fill="#967d53" stroke="#967d53" stroke-width="0.5"/><polygon points="208,174.3 208.8,174.5 294,123.2 293.2,122.9" fill="#c1a16b" stroke="#c1a16b" stroke-width="0.5"/><polygon points="208.8,178.7 294,127.4 294,123.2 208.8,174.5" fill="#947c53" stroke="#947c53" stroke-width="0.5"/><polygon points="208.4,174.4 210.4,173.2 210.4,172.4 208.4,173.5" fill="#947c53" stroke="#947c53" stroke-width="0.5"/><polygon points="6.4,119 208.4,174.4 208.4,173.5 6.4,118.1" fill="#967d53" stroke="#967d53" stroke-width="0.5"/><polygon points="6.4,118.1 208.4,173.5 210.4,172.4 8.3,116.9" fill="#c1a16b" stroke="#c1a16b" stroke-width="0.5"/><polygon points="183.8,121.7 184.6,121.9 184.6,119.8 183.8,119.6" fill="#967d53" stroke="#967d53" stroke-width="0.5"/><polygon points="183.8,119.6 184.6,119.8 267.7,69.8 266.9,69.6" fill="#c1a16b" stroke="#c1a16b" stroke-width="0.5"/><polygon points="184.6,121.9 267.7,71.8 267.7,69.8 184.6,119.8" fill="#947c53" stroke="#947c53" stroke-width="0.5"/><polygon points="185.4,120.8 183.6,120.3 183.1,120.7 184.9,121.2" fill="#c1a16b" stroke="#c1a16b" stroke-width="0.5"/><polygon points="185.4,166.1 185.4,120.8 184.9,121.2 184.9,166.4" fill="#947c53" stroke="#947c53" stroke-width="0.5"/><polygon points="184.9,166.4 184.9,121.2 183.1,120.7 183.1,165.9" fill="#967d53" stroke="#967d53" stroke-width="0.5"/><polygon points="184.1,121.4 184.9,121.7 184.4,120.1 183.6,119.8" fill="#7d6845" stroke="#7d6845" stroke-width="0.5"/><polygon points="183.6,119.8 184.4,120.1 225.9,67.2 225.1,67" fill="#c5a56e" stroke="#c5a56e" stroke-width="0.5"/><polygon points="184.9,121.7 226.4,68.8 225.9,67.2 184.4,120.1" fill="#947c53" stroke="#947c53" stroke-width="0.5"/><polygon points="209.1,128.6 209.9,128.8 209.9,126.8 209.1,126.6" fill="#967d53" stroke="#967d53" stroke-width="0.5"/><polygon points="209.1,126.6 209.9,126.8 292.9,76.7 292.1,76.5" fill="#c1a16b" stroke="#c1a16b" stroke-width="0.5"/><polygon points="209.9,128.8 292.9,78.7 292.9,76.7 209.9,126.8" fill="#947c53" stroke="#947c53" stroke-width="0.5"/><polygon points="210.7,127.8 208.8,127.3 208.3,127.6 210.2,128.1" fill="#c1a16b" stroke="#c1a16b" stroke-width="0.5"/><polygon points="210.7,173 210.7,127.8 210.2,128.1 210.2,173.3" fill="#947c53" stroke="#947c53" stroke-width="0.5"/><polygon points="210.2,173.3 210.2,128.1 208.3,127.6 208.3,172.8" fill="#967d53" stroke="#967d53" stroke-width="0.5"/><polygon points="209.3,128.4 210.1,128.6 209.7,127 208.9,126.8" fill="#7d6845" stroke="#7d6845" stroke-width="0.5"/><polygon points="208.9,126.8 209.7,127 251.2,74.1 250.4,73.9" fill="#c5a56e" stroke="#c5a56e" stroke-width="0.5"/><polygon points="210.1,128.6 251.6,75.7 251.2,74.1 209.7,127" fill="#947c53" stroke="#947c53" stroke-width="0.5"/></svg>
