<svg xmlns="http://www.w3.org/2000/svg" viewBox="0 0 300 200" width="300" height="200" role="img"><polygon points="92.5,22.3 90.6,21.8 90.1,22.1 91.9,22.6" fill="#c1a16b" stroke="#c1a16b" stroke-width="0.5"/><polygon points="92.5,67.6 92.5,22.3 91.9,22.6 91.9,68" fill="#947c53" stroke="#947c53" stroke-width="0.5"/><polygon points="91.9,68 91.9,22.6 90.1,22.1 90.1,67.5" fill="#967d53" stroke="#967d53" stroke-width="0.5"/><polygon points="116.9,29 115,28.5 114.5,28.8 116.3,29.3" fill="#c1a16b" stroke="#c1a16b" stroke-width="0.5"/><polygon points="116.9,74.3 116.9,29 116.3,29.3 116.3,74.7" fill="#947c53" stroke="#947c53" stroke-width="0.5"/><polygon points="116.3,74.7 116.3,29.3 114.5,28.8 114.5,74.2" fill="#967d53" stroke="#967d53" stroke-width="0.5"/><polygon points="142.2,35.9 140.3,35.4 139.8,35.8 141.6,36.3" fill="#c1a16b" stroke="#c1a16b" stroke-width="0.5"/><polygon points="142.2,81.3 142.2,35.9 141.6,36.3 141.6,81.6" fill="#947c53" stroke="#947c53" stroke-width="0.5"/><polygon points="141.6,81.6 141.6,36.3 139.8,35.8 139.8,81.1" fill="#967d53" stroke="#967d53" stroke-width="0.5"/><polygon points="167.5,42.9 165.7,42.4 165.1,42.7 167,43.2" fill="#c1a16b" stroke="#c1a16b" stroke-width="0.5"/><polygon points="167.5,88.2 167.5,42.9 167,43.2 167,88.6" fill="#947c53" stroke="#947c53" stroke-width="0.5"/><polygon points="167,88.6 167,43.2 165.1,42.7 165.1,88.1" fill="#967d53" stroke="#967d53" stroke-width="0.5"/><polygon points="57.5,42.2 55.6,41.7 55.1,42 57,42.5" fill="#c1a16b" stroke="#c1a16b" stroke-width="0.5"/><polygon points="57.5,88.7 57.5,42.2 57,42.5 57,89.1" fill="#947c53" stroke="#947c53" stroke-width="0.5"/><polygon points="57,89.1 57,42.5 55.1,42 55.1,88.5" fill="#967d53" stroke="#967d53" stroke-width="0.5"/><polygon points="192.8,49.8 191,49.3 190.4,49.7 192.3,50.2" fill="#c1a16b" stroke="#c1a16b" stroke-width="0.5"/><polygon points="192.8,95.2 192.8,49.8 192.3,50.2 192.3,95.5" fill="#947c53" stroke="#947c53" stroke-width="0.5"/><polygon points="192.3,95.5 192.3,50.2 190.4,49.7 190.4,95" fill="#967d53" stroke="#967d53" stroke-width="0.5"/><polygon points="44.1,50.3 42.3,49.8 41.8,50.1 43.6,50.6" fill="#c1a16b" stroke="#c1a16b" stroke-width="0.5"/><polygon points="44.1,96.8 44.1,50.3 43.6,50.6 43.6,97.1" fill="#947c53" stroke="#947c53" stroke-width="0.5"/><polygon points="43.6,97.1 43.6,50.6 41.8,50.1 41.8,96.6" fill="#967d53" stroke="#967d53" stroke-width="0.5"/><polygon points="42.3,50.2 43.1,50.4 43.1,47.2 42.3,47" fill="#967d53" stroke="#967d53" stroke-width="0.5"/><polygon points="42.3,47 43.1,47.2 57,38.9 56.2,38.7" fill="#c1a16b" stroke="#c1a16b" stroke-width="0.5"/><polygon points="43.1,50.4 57,42.1 57,38.9 43.1,47.2" fill="#947c53" stroke="#947c53" stroke-width="0.5"/><polygon points="49.8,20.6 50.3,18.4 49.5,18.2 49,20.4" fill="#ae9161" stroke="#ae9161" stroke-width="0.5"/><polygon points="91.9,21.2 91.1,21 49.5,18.2 50.3,18.4" fill="#b29563" stroke="#b29563" stroke-width="0.5"/><polygon points="91.4,23.4 91.9,21.2 50.3,18.4 49.8,20.6" fill="#947c53" stroke="#947c53" stroke-width="0.5"/><polygon points="218.2,56.8 216.3,56.3 215.8,56.6 217.6,57.1" fill="#c1a16b" stroke="#c1a16b" stroke-width="0.5"/><polygon points="218.2,102.1 218.2,56.8 217.6,57.1 217.6,102.5" fill="#947c53" stroke="#947c53" stroke-width="0.5"/><polygon points="217.6,102.5 217.6,57.1 215.8,56.6 215.8,101.9" fill="#967d53" stroke="#967d53" stroke-width="0.5"/><polygon points="74.2,27.3 74.7,25.1 73.9,24.9 73.4,27.1" fill="#ae9161" stroke="#ae9161" stroke-width="0.5"/><polygon points="116.3,27.9 115.5,27.7 73.9,24.9 74.7,25.1" fill="#b29563" stroke="#b29563" stroke-width="0.5"/><polygon points="115.8,30.1 116.3,27.9 74.7,25.1 74.2,27.3" fill="#947c53" stroke="#947c53" stroke-width="0.5"/><polygon points="6,123.2 6.8,123.5 6.8,119.2 6,119" fill="#967d53" stroke="#967d53" stroke-width="0.5"/><polygon points="6,119 6.8,119.2 92.2,67.7 91.4,67.5" fill="#c1a16b" stroke="#c1a16b" stroke-width="0.5"/><polygon points="6.8,123.5 92.2,72 92.2,67.7 6.8,119.2" fill="#947c53" stroke="#947c53" stroke-width="0.5"/><polygon points="243.5,63.7 241.6,63.2 241.1,63.5 242.9,64.1" fill="#c1a16b" stroke="#c1a16b" stroke-width="0.5"/><polygon points="243.5,109.1 243.5,63.7 242.9,64.1 242.9,109.4" fill="#947c53" stroke="#947c53" stroke-width="0.5"/><polygon points="242.9,109.4 242.9,64.1 241.1,63.5 241.1,108.9" fill="#967d53" stroke="#967d53" stroke-width="0.5"/><polygon points="14,125.5 14.8,125.7 14.8,121.5 14,121.2" fill="#967d53" stroke="#967d53" stroke-width="0.5"/><polygon points="14,121.2 14.8,121.5 100.2,70 99.5,69.7" fill="#c1a16b" stroke="#c1a16b" stroke-width="0.5"/><polygon points="14.8,125.7 100.2,74.2 100.2,70 14.8,121.5" fill="#947c53" stroke="#947c53" stroke-width="0.5"/><polygon points="99.5,34.2 100,32.1 99.2,31.9 98.8,34" fill="#ae9161" stroke="#ae9161" stroke-width="0.5"/><polygon points="141.6,34.9 140.8,34.7 99.2,31.9 100,32.1" fill="#b29563" stroke="#b29563" stroke-width="0.5"/><polygon points="141.1,37 141.6,34.9 100,32.1 99.5,34.2" fill="#947c53" stroke="#947c53" stroke-width="0.5"/><polygon points="294,130.5 294,127.3 292.8,128.1 292.8,131.3" fill="#947c53" stroke="#947c53" stroke-width="0.5"/><polygon points="91.4,71.7 90.2,72.5 292.8,128.1 294,127.3" fill="#c1a16b" stroke="#c1a16b" stroke-width="0.5"/><polygon points="90.2,75.7 292.8,131.3 292.8,128.1 90.2,72.5" fill="#967d53" stroke="#967d53" stroke-width="0.5"/><polygon points="22.5,127.8 23.3,128 23.3,123.8 22.5,123.6" fill="#967d53" stroke="#967d53" stroke-width="0.5"/><polygon points="22.5,123.6 23.3,123.8 108.7,72.3 107.9,72.1" fill="#c1a16b" stroke="#c1a16b" stroke-width="0.5"/><polygon points="23.3,128 108.7,76.5 108.7,72.3 23.3,123.8" fill="#947c53" stroke="#947c53" stroke-width="0.5"/><polygon points="292,124.3 294,123.1 294,122.2 292,123.4" fill="#947c53" stroke="#947c53" stroke-width="0.5"/><polygon points="89.4,68.7 292,124.3 292,123.4 89.4,67.8" fill="#967d53" stroke="#967d53" stroke-width="0.5"/><polygon points="89.4,67.8 292,123.4 294,122.2 91.4,66.7" fill="#c1a16b" stroke="#c1a16b" stroke-width="0.5"/><polygon points="290.1,125.5 292,124.3 292,123.4 290.1,124.6" fill="#947c53" stroke="#947c53" stroke-width="0.5"/><polygon points="87.5,69.9 290.1,125.5 290.1,124.6 87.5,69" fill="#967d53" stroke="#967d53" stroke-width="0.5"/><polygon points="87.5,69 290.1,124.6 292,123.4 89.4,67.8" fill="#c1a16b" stroke="#c1a16b" stroke-width="0.5"/><polygon points="30.9,130.1 31.7,130.3 31.7,126.1 30.9,125.9" fill="#967d53" stroke="#967d53" stroke-width="0.5"/><polygon points="30.9,125.9 31.7,126.1 117.1,74.6 116.3,74.4" fill="#c1a16b" stroke="#c1a16b" stroke-width="0.5"/><polygon points="31.7,130.3 117.1,78.8 117.1,74.6 31.7,126.1" fill="#947c53" stroke="#947c53" stroke-width="0.5"/><polygon points="268.8,70.7 267,70.2 266.4,70.5 268.3,71" fill="#c1a16b" stroke="#c1a16b" stroke-width="0.5"/><polygon points="268.8,116 268.8,70.7 268.3,71 268.3,116.3" fill="#947c53" stroke="#947c53" stroke-width="0.5"/><polygon points="268.3,116.3 268.3,71 266.4,70.5 266.4,115.8" fill="#967d53" stroke="#967d53" stroke-width="0.5"/><polygon points="288.1,126.7 290.1,125.5 290.1,124.6 288.1,125.8" fill="#947c53" stroke="#947c53" stroke-width="0.5"/><polygon points="85.5,71.1 288.1,126.7 288.1,125.8 85.5,70.2" fill="#967d53" stroke="#967d53" stroke-width="0.5"/><polygon points="85.5,70.2 288.1,125.8 290.1,124.6 87.5,69" fill="#c1a16b" stroke="#c1a16b" stroke-width="0.5"/><polygon points="286.2,127.8 288.1,126.7 288.1,125.8 286.2,127" fill="#947c53" stroke="#947c53" stroke-width="0.5"/><polygon points="83.6,72.2 286.2,127.8 286.2,127 83.6,71.4" fill="#967d53" stroke="#967d53" stroke-width="0.5"/><polygon points="83.6,71.4 286.2,127 288.1,125.8 85.5,70.2" fill="#c1a16b" stroke="#c1a16b" stroke-width="0.5"/><polygon points="9.2,72.5 7.3,72 6.8,72.3 8.6,72.8" fill="#c1a16b" stroke="#c1a16b" stroke-width="0.5"/><polygon points="9.2,117.9 9.2,72.5 8.6,72.8 8.6,118.2" fill="#947c53" stroke="#947c53" stroke-width="0.5"/><polygon points="8.6,118.2 8.6,72.8 6.8,72.3 6.8,117.7" fill="#967d53" stroke="#967d53" stroke-width="0.5"/><polygon points="7.8,73.1 8.6,73.3 8.2,71.7 7.4,71.5" fill="#7d6845" stroke="#7d6845" stroke-width="0.5"/><polygon points="7.4,71.5 8.2,71.7 49.8,18.8 49,18.5" fill="#c5a56e" stroke="#c5a56e" stroke-width="0.5"/><polygon points="8.6,73.3 50.2,20.4 49.8,18.8 8.2,71.7" fill="#947c53" stroke="#947c53" stroke-width="0.5"/><polygon points="39.4,132.4 40.2,132.6 40.2,128.4 39.4,128.2" fill="#967d53" stroke="#967d53" stroke-width="0.5"/><polygon points="39.4,128.2 40.2,128.4 125.6,76.9 124.8,76.7" fill="#c1a16b" stroke="#c1a16b" stroke-width="0.5"/><polygon points="40.2,132.6 125.6,81.1 125.6,76.9 40.2,128.4" fill="#947c53" stroke="#947c53" stroke-width="0.5"/><polygon points="8.9,73.7 9.7,73.9 9.7,71.9 8.9,71.7" fill="#967d53" stroke="#967d53" stroke-width="0.5"/><polygon points="8.9,71.7 9.7,71.9 93,21.7 92.2,21.4" fill="#c1a16b" stroke="#c1a16b" stroke-width="0.5"/><polygon points="9.7,73.9 93,23.7 93,21.7 9.7,71.9" fill="#947c53" stroke="#947c53" stroke-width="0.5"/><polygon points="124.9,41.2 125.3,39 124.5,38.8 124.1,41" fill="#ae9161" stroke="#ae9161" stroke-width="0.5"/><polygon points="166.9,41.8 166.2,41.6 124.5,38.8 125.3,39" fill="#b29563" stroke="#b29563" stroke-width="0.5"/><polygon points="166.5,44 166.9,41.8 125.3,39 124.9,41.2" fill="#947c53" stroke="#947c53" stroke-width="0.5"/><polygon points="284.2,129 286.2,127.8 286.2,127 284.2,128.1" fill="#947c53" stroke="#947c53" stroke-width="0.5"/><polygon points="81.6,73.4 284.2,129 284.2,128.1 81.6,72.6" fill="#967d53" stroke="#967d53" stroke-width="0.5"/><polygon points="81.6,72.6 284.2,128.1 286.2,127 83.6,71.4" fill="#c1a16b" stroke="#c1a16b" stroke-width="0.5"/><polygon points="282.3,130.2 284.2,129 284.2,128.1 282.3,129.3" fill="#947c53" stroke="#947c53" stroke-width="0.5"/><polygon points="79.7,74.6 282.3,130.2 282.3,129.3 79.7,73.7" fill="#967d53" stroke="#967d53" stroke-width="0.5"/><polygon points="79.7,73.7 282.3,129.3 284.2,128.1 81.6,72.6" fill="#c1a16b" stroke="#c1a16b" stroke-width="0.5"/><polygon points="47.8,134.7 48.6,134.9 48.6,130.7 47.8,130.5" fill="#967d53" stroke="#967d53" stroke-width="0.5"/><polygon points="47.8,130.5 48.6,130.7 134,79.2 133.2,79" fill="#c1a16b" stroke="#c1a16b" stroke-width="0.5"/><polygon points="48.6,134.9 134,83.4 134,79.2 48.6,130.7" fill="#947c53" stroke="#947c53" stroke-width="0.5"/><polygon points="280.3,131.4 282.3,130.2 282.3,129.3 280.3,130.5" fill="#947c53" stroke="#947c53" stroke-width="0.5"/><polygon points="77.7,75.8 280.3,131.4 280.3,130.5 77.7,74.9" fill="#967d53" stroke="#967d53" stroke-width="0.5"/><polygon points="77.7,74.9 280.3,130.5 282.3,129.3 79.7,73.7" fill="#c1a16b" stroke="#c1a16b" stroke-width="0.5"/><polygon points="278.3,132.6 280.3,131.4 280.3,130.5 278.3,131.7" fill="#947c53" stroke="#947c53" stroke-width="0.5"/><polygon points="75.7,77 278.3,132.6 278.3,131.7 75.7,76.1" fill="#967d53" stroke="#967d53" stroke-width="0.5"/><polygon points="75.7,76.1 278.3,131.7 280.3,130.5 77.7,74.9" fill="#c1a16b" stroke="#c1a16b" stroke-width="0.5"/><polygon points="56.3,137 57,137.2 57,133 56.3,132.8" fill="#967d53" stroke="#967d53" stroke-width="0.5"/><polygon points="56.3,132.8 57,133 142.5,81.5 141.7,81.3" fill="#c1a16b" stroke="#c1a16b" stroke-width="0.5"/><polygon points="57,137.2 142.5,85.7 142.5,81.5 57,133" fill="#947c53" stroke="#947c53" stroke-width="0.5"/><polygon points="293.2,77.4 291.4,76.9 290.8,77.2 292.7,77.7" fill="#c1a16b" stroke="#c1a16b" stroke-width="0.5"/><polygon points="293.2,122.7 293.2,77.4 292.7,77.7 292.7,123" fill="#947c53" stroke="#947c53" stroke-width="0.5"/><polygon points="292.7,123 292.7,77.7 290.8,77.2 290.8,122.5" fill="#967d53" stroke="#967d53" stroke-width="0.5"/><polygon points="276.4,133.7 278.3,132.6 278.3,131.7 276.4,132.9" fill="#947c53" stroke="#947c53" stroke-width="0.5"/><polygon points="73.8,78.2 276.4,133.7 276.4,132.9 73.8,77.3" fill="#967d53" stroke="#967d53" stroke-width="0.5"/><polygon points="73.8,77.3 276.4,132.9 278.3,131.7 75.7,76.1" fill="#c1a16b" stroke="#c1a16b" stroke-width="0.5"/><polygon points="33.6,79.2 31.7,78.7 31.2,79 33,79.5" fill="#c1a16b" stroke="#c1a16b" stroke-width="0.5"/><polygon points="33.6,124.6 33.6,79.2 33,79.5 33,124.9" fill="#947c53" stroke="#947c53" stroke-width="0.5"/><polygon points="33,124.9 33,79.5 31.2,79 31.2,124.4" fill="#967d53" stroke="#967d53" stroke-width="0.5"/><polygon points="32.2,79.8 33,80 32.6,78.4 31.8,78.2" fill="#7d6845" stroke="#7d6845" stroke-width="0.5"/><polygon points="31.8,78.2 32.6,78.4 74.2,25.5 73.4,25.2" fill="#c5a56e" stroke="#c5a56e" stroke-width="0.5"/><polygon points="33,80 74.6,27 74.2,25.5 32.6,78.4" fill="#947c53" stroke="#947c53" stroke-width="0.5"/><polygon points="274.4,134.9 276.4,133.7 276.4,132.9 274.4,134" fill="#947c53" stroke="#947c53" stroke-width="0.5"/><polygon points="71.8,79.3 274.4,134.9 274.4,134 71.8,78.5" fill="#967d53" stroke="#967d53" stroke-width="0.5"/><polygon points="71.8,78.5 274.4,134 276.4,132.9 73.8,77.3" fill="#c1a16b" stroke="#c1a16b" stroke-width="0.5"/><polygon points="33.3,80.4 34.1,80.6 34.1,78.6 33.3,78.4" fill="#967d53" stroke="#967d53" stroke-width="0.5"/><polygon points="33.3,78.4 34.1,78.6 117.4,28.4 116.6,28.1" fill="#c1a16b" stroke="#c1a16b" stroke-width="0.5"/><polygon points="34.1,80.6 117.4,30.4 117.4,28.4 34.1,78.6" fill="#947c53" stroke="#947c53" stroke-width="0.5"/><polygon points="64.7,139.3 65.5,139.6 65.5,135.3 64.7,135.1" fill="#967d53" stroke="#967d53" stroke-width="0.5"/><polygon points="64.7,135.1 65.5,135.3 150.9,83.8 150.1,83.6" fill="#c1a16b" stroke="#c1a16b" stroke-width="0.5"/><polygon points="65.5,139.6 150.9,88.1 150.9,83.8 65.5,135.3" fill="#947c53" stroke="#947c53" stroke-width="0.5"/><polygon points="150.2,48.1 150.7,46 149.9,45.8 149.4,47.9" fill="#ae9161" stroke="#ae9161" stroke-width="0.5"/><polygon points="192.3,48.8 191.5,48.6 149.9,45.8 150.7,46" fill="#b29563" stroke="#b29563" stroke-width="0.5"/><polygon points="191.8,50.9 192.3,48.8 150.7,46 150.2,48.1" fill="#947c53" stroke="#947c53" stroke-width="0.5"/><polygon points="272.5,136.1 274.4,134.9 274.4,134 272.5,135.2" fill="#947c53" stroke="#947c53" stroke-width="0.5"/><polygon points="69.9,80.5 272.5,136.1 272.5,135.2 69.9,79.6" fill="#967d53" stroke="#967d53" stroke-width="0.5"/><polygon points="69.9,79.6 272.5,135.2 274.4,134 71.8,78.5" fill="#c1a16b" stroke="#c1a16b" stroke-width="0.5"/><polygon points="270.5,137.3 272.5,136.1 272.5,135.2 270.5,136.4" fill="#947c53" stroke="#947c53" stroke-width="0.5"/><polygon points="67.9,81.7 270.5,137.3 270.5,136.4 67.9,80.8" fill="#967d53" stroke="#967d53" stroke-width="0.5"/><polygon points="67.9,80.8 270.5,136.4 272.5,135.2 69.9,79.6" fill="#c1a16b" stroke="#c1a16b" stroke-width="0.5"/><polygon points="73.1,141.7 73.9,141.9 73.9,137.7 73.1,137.4" fill="#967d53" stroke="#967d53" stroke-width="0.5"/><polygon points="73.1,137.4 73.9,137.7 159.3,86.2 158.5,85.9" fill="#c1a16b" stroke="#c1a16b" stroke-width="0.5"/><polygon points="73.9,141.9 159.3,90.4 159.3,86.2 73.9,137.7" fill="#947c53" stroke="#947c53" stroke-width="0.5"/><polygon points="268.6,138.5 270.5,137.3 270.5,136.4 268.6,137.6" fill="#947c53" stroke="#947c53" stroke-width="0.5"/><polygon points="66,82.9 268.6,138.5 268.6,137.6 66,82" fill="#967d53" stroke="#967d53" stroke-width="0.5"/><polygon points="66,82 268.6,137.6 270.5,136.4 67.9,80.8" fill="#c1a16b" stroke="#c1a16b" stroke-width="0.5"/><polygon points="266.6,139.6 268.6,138.5 268.6,137.6 266.6,138.8" fill="#947c53" stroke="#947c53" stroke-width="0.5"/><polygon points="64,84.1 266.6,139.6 266.6,138.8 64,83.2" fill="#967d53" stroke="#967d53" stroke-width="0.5"/><polygon points="64,83.2 266.6,138.8 268.6,137.6 66,82" fill="#c1a16b" stroke="#c1a16b" stroke-width="0.5"/><polygon points="81.6,144 82.4,144.2 82.4,140 81.6,139.8" fill="#967d53" stroke="#967d53" stroke-width="0.5"/><polygon points="81.6,139.8 82.4,140 167.8,88.5 167,88.3" fill="#c1a16b" stroke="#c1a16b" stroke-width="0.5"/><polygon points="82.4,144.2 167.8,92.7 167.8,88.5 82.4,140" fill="#947c53" stroke="#947c53" stroke-width="0.5"/><polygon points="264.6,140.8 266.6,139.6 266.6,138.8 264.6,139.9" fill="#947c53" stroke="#947c53" stroke-width="0.5"/><polygon points="62,85.2 264.6,140.8 264.6,139.9 62,84.4" fill="#967d53" stroke="#967d53" stroke-width="0.5"/><polygon points="62,84.4 264.6,139.9 266.6,138.8 64,83.2" fill="#c1a16b" stroke="#c1a16b" stroke-width="0.5"/><polygon points="58.9,86.2 57.1,85.6 56.5,86 58.4,86.5" fill="#c1a16b" stroke="#c1a16b" stroke-width="0.5"/><polygon points="58.9,131.5 58.9,86.2 58.4,86.5 58.4,131.8" fill="#947c53" stroke="#947c53" stroke-width="0.5"/><polygon points="58.4,131.8 58.4,86.5 56.5,86 56.5,131.3" fill="#967d53" stroke="#967d53" stroke-width="0.5"/><polygon points="57.6,86.8 58.3,87 57.9,85.4 57.1,85.2" fill="#7d6845" stroke="#7d6845" stroke-width="0.5"/><polygon points="57.1,85.2 57.9,85.4 99.5,32.4 98.7,32.2" fill="#c5a56e" stroke="#c5a56e" stroke-width="0.5"/><polygon points="58.3,87 100,34 99.5,32.4 57.9,85.4" fill="#947c53" stroke="#947c53" stroke-width="0.5"/><polygon points="58.6,87.3 59.4,87.6 59.4,85.5 58.6,85.3" fill="#967d53" stroke="#967d53" stroke-width="0.5"/><polygon points="58.6,85.3 59.4,85.5 142.7,35.3 141.9,35.1" fill="#c1a16b" stroke="#c1a16b" stroke-width="0.5"/><polygon points="59.4,87.6 142.7,37.3 142.7,35.3 59.4,85.5" fill="#947c53" stroke="#947c53" stroke-width="0.5"/><polygon points="262.7,142 264.6,140.8 264.6,139.9 262.7,141.1" fill="#947c53" stroke="#947c53" stroke-width="0.5"/><polygon points="60.1,86.4 262.7,142 262.7,141.1 60.1,85.5" fill="#967d53" stroke="#967d53" stroke-width="0.5"/><polygon points="60.1,85.5 262.7,141.1 264.6,139.9 62,84.4" fill="#c1a16b" stroke="#c1a16b" stroke-width="0.5"/><polygon points="90,146.3 90.8,146.5 90.8,142.3 90,142.1" fill="#967d53" stroke="#967d53" stroke-width="0.5"/><polygon points="90,142.1 90.8,142.3 176.2,90.8 175.4,90.6" fill="#c1a16b" stroke="#c1a16b" stroke-width="0.5"/><polygon points="90.8,146.5 176.2,95 176.2,90.8 90.8,142.3" fill="#947c53" stroke="#947c53" stroke-width="0.5"/><polygon points="175.5,55.1 176,52.9 175.2,52.7 174.7,54.9" fill="#ae9161" stroke="#ae9161" stroke-width="0.5"/><polygon points="217.6,55.7 216.8,55.5 175.2,52.7 176,52.9" fill="#b29563" stroke="#b29563" stroke-width="0.5"/><polygon points="217.1,57.9 217.6,55.7 176,52.9 175.5,55.1" fill="#947c53" stroke="#947c53" stroke-width="0.5"/><polygon points="260.7,143.2 262.7,142 262.7,141.1 260.7,142.3" fill="#947c53" stroke="#947c53" stroke-width="0.5"/><polygon points="58.1,87.6 260.7,143.2 260.7,142.3 58.1,86.7" fill="#967d53" stroke="#967d53" stroke-width="0.5"/><polygon points="58.1,86.7 260.7,142.3 262.7,141.1 60.1,85.5" fill="#c1a16b" stroke="#c1a16b" stroke-width="0.5"/><polygon points="258.8,144.4 260.7,143.2 260.7,142.3 258.8,143.5" fill="#947c53" stroke="#947c53" stroke-width="0.5"/><polygon points="56.2,88.8 258.8,144.4 258.8,143.5 56.2,87.9" fill="#967d53" stroke="#967d53" stroke-width="0.5"/><polygon points="56.2,87.9 258.8,143.5 260.7,142.3 58.1,86.7" fill="#c1a16b" stroke="#c1a16b" stroke-width="0.5"/><polygon points="98.5,148.6 99.3,148.8 99.3,144.6 98.5,144.4" fill="#967d53" stroke="#967d53" stroke-width="0.5"/><polygon points="98.5,144.4 99.3,144.6 184.7,93.1 183.9,92.9" fill="#c1a16b" stroke="#c1a16b" stroke-width="0.5"/><polygon points="99.3,148.8 184.7,97.3 184.7,93.1 99.3,144.6" fill="#947c53" stroke="#947c53" stroke-width="0.5"/><polygon points="256.8,145.5 258.8,144.4 258.8,143.5 256.8,144.7" fill="#947c53" stroke="#947c53" stroke-width="0.5"/><polygon points="54.2,90 256.8,145.5 256.8,144.7 54.2,89.1" fill="#967d53" stroke="#967d53" stroke-width="0.5"/><polygon points="54.2,89.1 256.8,144.7 258.8,143.5 56.2,87.9" fill="#c1a16b" stroke="#c1a16b" stroke-width="0.5"/><polygon points="254.9,146.7 256.8,145.5 256.8,144.7 254.9,145.8" fill="#947c53" stroke="#947c53" stroke-width="0.5"/><polygon points="52.3,91.1 254.9,146.7 254.9,145.8 52.3,90.3" fill="#967d53" stroke="#967d53" stroke-width="0.5"/><polygon points="52.3,90.3 254.9,145.8 256.8,144.7 54.2,89.1" fill="#c1a16b" stroke="#c1a16b" stroke-width="0.5"/><polygon points="106.9,150.9 107.7,151.1 107.7,146.9 106.9,146.7" fill="#967d53" stroke="#967d53" stroke-width="0.5"/><polygon points="106.9,146.7 107.7,146.9 193.1,95.4 192.3,95.2" fill="#c1a16b" stroke="#c1a16b" stroke-width="0.5"/><polygon points="107.7,151.1 193.1,99.6 193.1,95.4 107.7,146.9" fill="#947c53" stroke="#947c53" stroke-width="0.5"/><polygon points="252.9,147.9 254.9,146.7 254.9,145.8 252.9,147" fill="#947c53" stroke="#947c53" stroke-width="0.5"/><polygon points="50.3,92.3 252.9,147.9 252.9,147 50.3,91.4" fill="#967d53" stroke="#967d53" stroke-width="0.5"/><polygon points="50.3,91.4 252.9,147 254.9,145.8 52.3,90.3" fill="#c1a16b" stroke="#c1a16b" stroke-width="0.5"/><polygon points="251.9,155.9 251.9,152.7 250.7,153.5 250.7,156.6" fill="#947c53" stroke="#947c53" stroke-width="0.5"/><polygon points="49.3,97.1 48.1,97.9 250.7,153.5 251.9,152.7" fill="#c1a16b" stroke="#c1a16b" stroke-width="0.5"/><polygon points="48.1,101.1 250.7,156.6 250.7,153.5 48.1,97.9" fill="#967d53" stroke="#967d53" stroke-width="0.5"/><polygon points="84.2,93.1 82.4,92.6 81.8,92.9 83.7,93.4" fill="#c1a16b" stroke="#c1a16b" stroke-width="0.5"/><polygon points="84.2,138.4 84.2,93.1 83.7,93.4 83.7,138.8" fill="#947c53" stroke="#947c53" stroke-width="0.5"/><polygon points="83.7,138.8 83.7,93.4 81.8,92.9 81.8,138.3" fill="#967d53" stroke="#967d53" stroke-width="0.5"/><polygon points="82.9,93.7 83.7,93.9 83.2,92.3 82.4,92.1" fill="#7d6845" stroke="#7d6845" stroke-width="0.5"/><polygon points="82.4,92.1 83.2,92.3 124.8,39.3 124,39.1" fill="#c5a56e" stroke="#c5a56e" stroke-width="0.5"/><polygon points="83.7,93.9 125.3,40.9 124.8,39.3 83.2,92.3" fill="#947c53" stroke="#947c53" stroke-width="0.5"/><polygon points="84,94.3 84.8,94.5 84.8,92.5 84,92.2" fill="#967d53" stroke="#967d53" stroke-width="0.5"/><polygon points="84,92.2 84.8,92.5 168,42.2 167.2,42" fill="#c1a16b" stroke="#c1a16b" stroke-width="0.5"/><polygon points="84.8,94.5 168,44.3 168,42.2 84.8,92.5" fill="#947c53" stroke="#947c53" stroke-width="0.5"/><polygon points="115.3,153.2 116.1,153.5 116.1,149.2 115.3,149" fill="#967d53" stroke="#967d53" stroke-width="0.5"/><polygon points="115.3,149 116.1,149.2 201.5,97.7 200.7,97.5" fill="#c1a16b" stroke="#c1a16b" stroke-width="0.5"/><polygon points="116.1,153.5 201.5,102 201.5,97.7 116.1,149.2" fill="#947c53" stroke="#947c53" stroke-width="0.5"/><polygon points="250.9,149.1 252.9,147.9 252.9,147 250.9,148.2" fill="#947c53" stroke="#947c53" stroke-width="0.5"/><polygon points="48.3,93.5 250.9,149.1 250.9,148.2 48.3,92.6" fill="#967d53" stroke="#967d53" stroke-width="0.5"/><polygon points="48.3,92.6 250.9,148.2 252.9,147 50.3,91.4" fill="#c1a16b" stroke="#c1a16b" stroke-width="0.5"/><polygon points="200.8,62 201.3,59.9 200.5,59.7 200,61.8" fill="#ae9161" stroke="#ae9161" stroke-width="0.5"/><polygon points="242.9,62.7 242.1,62.4 200.5,59.7 201.3,59.9" fill="#b29563" stroke="#b29563" stroke-width="0.5"/><polygon points="242.4,64.8 242.9,62.7 201.3,59.9 200.8,62" fill="#947c53" stroke="#947c53" stroke-width="0.5"/><polygon points="249,150.3 250.9,149.1 250.9,148.2 249,149.4" fill="#947c53" stroke="#947c53" stroke-width="0.5"/><polygon points="46.4,94.7 249,150.3 249,149.4 46.4,93.8" fill="#967d53" stroke="#967d53" stroke-width="0.5"/><polygon points="46.4,93.8 249,149.4 250.9,148.2 48.3,92.6" fill="#c1a16b" stroke="#c1a16b" stroke-width="0.5"/><polygon points="123.8,155.6 124.6,155.8 124.6,151.6 123.8,151.3" fill="#967d53" stroke="#967d53" stroke-width="0.5"/><polygon points="123.8,151.3 124.6,151.6 210,100.1 209.2,99.8" fill="#c1a16b" stroke="#c1a16b" stroke-width="0.5"/><polygon points="124.6,155.8 210,104.3 210,100.1 124.6,151.6" fill="#947c53" stroke="#947c53" stroke-width="0.5"/><polygon points="247,151.4 249,150.3 249,149.4 247,150.6" fill="#947c53" stroke="#947c53" stroke-width="0.5"/><polygon points="44.4,95.9 247,151.4 247,150.6 44.4,95" fill="#967d53" stroke="#967d53" stroke-width="0.5"/><polygon points="44.4,95 247,150.6 249,149.4 46.4,93.8" fill="#c1a16b" stroke="#c1a16b" stroke-width="0.5"/><polygon points="245.1,152.6 247,151.4 247,150.6 245.1,151.7" fill="#947c53" stroke="#947c53" stroke-width="0.5"/><polygon points="42.5,97 245.1,152.6 245.1,151.7 42.5,96.2" fill="#967d53" stroke="#967d53" stroke-width="0.5"/><polygon points="42.5,96.2 245.1,151.7 247,150.6 44.4,95" fill="#c1a16b" stroke="#c1a16b" stroke-width="0.5"/><polygon points="132.2,157.9 133,158.1 133,153.9 132.2,153.7" fill="#967d53" stroke="#967d53" stroke-width="0.5"/><polygon points="132.2,153.7 133,153.9 218.4,102.4 217.6,102.2" fill="#c1a16b" stroke="#c1a16b" stroke-width="0.5"/><polygon points="133,158.1 218.4,106.6 218.4,102.4 133,153.9" fill="#947c53" stroke="#947c53" stroke-width="0.5"/><polygon points="243.1,153.8 245.1,152.6 245.1,151.7 243.1,152.9" fill="#947c53" stroke="#947c53" stroke-width="0.5"/><polygon points="40.5,98.2 243.1,153.8 243.1,152.9 40.5,97.3" fill="#967d53" stroke="#967d53" stroke-width="0.5"/><polygon points="40.5,97.3 243.1,152.9 245.1,151.7 42.5,96.2" fill="#c1a16b" stroke="#c1a16b" stroke-width="0.5"/><polygon points="258.2,97.3 256.4,96.8 255.9,97.1 257.7,97.6" fill="#c1a16b" stroke="#c1a16b" stroke-width="0.5"/><polygon points="258.2,143.8 258.2,97.3 257.7,97.6 257.7,144.1" fill="#947c53" stroke="#947c53" stroke-width="0.5"/><polygon points="257.7,144.1 257.7,97.6 255.9,97.1 255.9,143.6" fill="#967d53" stroke="#967d53" stroke-width="0.5"/><polygon points="241.2,155 243.1,153.8 243.1,152.9 241.2,154.1" fill="#947c53" stroke="#947c53" stroke-width="0.5"/><polygon points="38.6,99.4 241.2,155 241.2,154.1 38.6,98.5" fill="#967d53" stroke="#967d53" stroke-width="0.5"/><polygon points="38.6,98.5 241.2,154.1 243.1,152.9 40.5,97.3" fill="#c1a16b" stroke="#c1a16b" stroke-width="0.5"/><polygon points="109.6,100.1 107.7,99.5 107.2,99.9 109,100.4" fill="#c1a16b" stroke="#c1a16b" stroke-width="0.5"/><polygon points="109.6,145.4 109.6,100.1 109,100.4 109,145.7" fill="#947c53" stroke="#947c53" stroke-width="0.5"/><polygon points="109,145.7 109,100.4 107.2,99.9 107.2,145.2" fill="#967d53" stroke="#967d53" stroke-width="0.5"/><polygon points="108.2,100.6 109,100.9 108.5,99.3 107.7,99.1" fill="#7d6845" stroke="#7d6845" stroke-width="0.5"/><polygon points="107.7,99.1 108.5,99.3 150.1,46.3 149.3,46.1" fill="#c5a56e" stroke="#c5a56e" stroke-width="0.5"/><polygon points="109,100.9 150.6,47.9 150.1,46.3 108.5,99.3" fill="#947c53" stroke="#947c53" stroke-width="0.5"/><polygon points="109.3,101.2 110.1,101.4 110.1,99.4 109.3,99.2" fill="#967d53" stroke="#967d53" stroke-width="0.5"/><polygon points="109.3,99.2 110.1,99.4 193.4,49.2 192.6,49" fill="#c1a16b" stroke="#c1a16b" stroke-width="0.5"/><polygon points="110.1,101.4 193.4,51.2 193.4,49.2 110.1,99.4" fill="#947c53" stroke="#947c53" stroke-width="0.5"/><polygon points="140.7,160.2 141.5,160.4 141.5,156.2 140.7,156" fill="#967d53" stroke="#967d53" stroke-width="0.5"/><polygon points="140.7,156 141.5,156.2 226.9,104.7 226.1,104.5" fill="#c1a16b" stroke="#c1a16b" stroke-width="0.5"/><polygon points="141.5,160.4 226.9,108.9 226.9,104.7 141.5,156.2" fill="#947c53" stroke="#947c53" stroke-width="0.5"/><polygon points="239.2,156.2 241.2,155 241.2,154.1 239.2,155.3" fill="#947c53" stroke="#947c53" stroke-width="0.5"/><polygon points="36.6,100.6 239.2,156.2 239.2,155.3 36.6,99.7" fill="#967d53" stroke="#967d53" stroke-width="0.5"/><polygon points="36.6,99.7 239.2,155.3 241.2,154.1 38.6,98.5" fill="#c1a16b" stroke="#c1a16b" stroke-width="0.5"/><polygon points="226.2,69 226.6,66.8 225.8,66.6 225.4,68.8" fill="#ae9161" stroke="#ae9161" stroke-width="0.5"/><polygon points="268.2,69.6 267.4,69.4 225.8,66.6 226.6,66.8" fill="#b29563" stroke="#b29563" stroke-width="0.5"/><polygon points="267.8,71.8 268.2,69.6 226.6,66.8 226.2,69" fill="#947c53" stroke="#947c53" stroke-width="0.5"/><polygon points="237.2,157.3 239.2,156.2 239.2,155.3 237.2,156.5" fill="#947c53" stroke="#947c53" stroke-width="0.5"/><polygon points="34.6,101.8 237.2,157.3 237.2,156.5 34.6,100.9" fill="#967d53" stroke="#967d53" stroke-width="0.5"/><polygon points="34.6,100.9 237.2,156.5 239.2,155.3 36.6,99.7" fill="#c1a16b" stroke="#c1a16b" stroke-width="0.5"/><polygon points="149.1,162.5 149.9,162.7 149.9,158.5 149.1,158.3" fill="#967d53" stroke="#967d53" stroke-width="0.5"/><polygon points="149.1,158.3 149.9,158.5 235.3,107 234.5,106.8" fill="#c1a16b" stroke="#c1a16b" stroke-width="0.5"/><polygon points="149.9,162.7 235.3,111.2 235.3,107 149.9,158.5" fill="#947c53" stroke="#947c53" stroke-width="0.5"/><polygon points="235.3,158.5 237.2,157.3 237.2,156.5 235.3,157.6" fill="#947c53" stroke="#947c53" stroke-width="0.5"/><polygon points="32.7,102.9 235.3,158.5 235.3,157.6 32.7,102.1" fill="#967d53" stroke="#967d53" stroke-width="0.5"/><polygon points="32.7,102.1 235.3,157.6 237.2,156.5 34.6,100.9" fill="#c1a16b" stroke="#c1a16b" stroke-width="0.5"/><polygon points="233.3,159.7 235.3,158.5 235.3,157.6 233.3,158.8" fill="#947c53" stroke="#947c53" stroke-width="0.5"/><polygon points="30.7,104.1 233.3,159.7 233.3,158.8 30.7,103.2" fill="#967d53" stroke="#967d53" stroke-width="0.5"/><polygon points="30.7,103.2 233.3,158.8 235.3,157.6 32.7,102.1" fill="#c1a16b" stroke="#c1a16b" stroke-width="0.5"/><polygon points="157.5,164.8 158.3,165 158.3,160.8 157.5,160.6" fill="#967d53" stroke="#967d53" stroke-width="0.5"/><polygon points="157.5,160.6 158.3,160.8 243.7,109.3 243,109.1" fill="#c1a16b" stroke="#c1a16b" stroke-width="0.5"/><polygon points="158.3,165 243.7,113.5 243.7,109.3 158.3,160.8" fill="#947c53" stroke="#947c53" stroke-width="0.5"/><polygon points="231.4,160.9 233.3,159.7 233.3,158.8 231.4,160" fill="#947c53" stroke="#947c53" stroke-width="0.5"/><polygon points="28.8,105.3 231.4,160.9 231.4,160 28.8,104.4" fill="#967d53" stroke="#967d53" stroke-width="0.5"/><polygon points="28.8,104.4 231.4,160 233.3,158.8 30.7,103.2" fill="#c1a16b" stroke="#c1a16b" stroke-width="0.5"/><polygon points="229.4,162.1 231.4,160.9 231.4,160 229.4,161.2" fill="#947c53" stroke="#947c53" stroke-width="0.5"/><polygon points="26.8,106.5 229.4,162.1 229.4,161.2 26.8,105.6" fill="#967d53" stroke="#967d53" stroke-width="0.5"/><polygon points="26.8,105.6 229.4,161.2 231.4,160 28.8,104.4" fill="#c1a16b" stroke="#c1a16b" stroke-width="0.5"/><polygon points="244.9,105.3 243,104.8 242.5,105.2 244.4,105.7" fill="#c1a16b" stroke="#c1a16b" stroke-width="0.5"/><polygon points="244.9,151.9 244.9,105.3 244.4,105.7 244.4,152.2" fill="#947c53" stroke="#947c53" stroke-width="0.5"/><polygon points="244.4,152.2 244.4,105.7 242.5,105.2 242.5,151.7" fill="#967d53" stroke="#967d53" stroke-width="0.5"/><polygon points="134.9,107 133,106.5 132.5,106.8 134.3,107.3" fill="#c1a16b" stroke="#c1a16b" stroke-width="0.5"/><polygon points="134.9,152.3 134.9,107 134.3,107.3 134.3,152.7" fill="#947c53" stroke="#947c53" stroke-width="0.5"/><polygon points="134.3,152.7 134.3,107.3 132.5,106.8 132.5,152.2" fill="#967d53" stroke="#967d53" stroke-width="0.5"/><polygon points="133.5,107.6 134.3,107.8 133.8,106.2 133.1,106" fill="#7d6845" stroke="#7d6845" stroke-width="0.5"/><polygon points="133.1,106 133.8,106.2 175.5,53.2 174.7,53" fill="#c5a56e" stroke="#c5a56e" stroke-width="0.5"/><polygon points="134.3,107.8 175.9,54.8 175.5,53.2 133.8,106.2" fill="#947c53" stroke="#947c53" stroke-width="0.5"/><polygon points="243,105.3 243.8,105.5 243.8,102.3 243,102.1" fill="#967d53" stroke="#967d53" stroke-width="0.5"/><polygon points="243,102.1 243.8,102.3 257.7,94 256.9,93.7" fill="#c1a16b" stroke="#c1a16b" stroke-width="0.5"/><polygon points="243.8,105.5 257.7,97.1 257.7,94 243.8,102.3" fill="#947c53" stroke="#947c53" stroke-width="0.5"/><polygon points="134.6,108.2 135.4,108.4 135.4,106.4 134.6,106.1" fill="#967d53" stroke="#967d53" stroke-width="0.5"/><polygon points="134.6,106.1 135.4,106.4 218.7,56.1 217.9,55.9" fill="#c1a16b" stroke="#c1a16b" stroke-width="0.5"/><polygon points="135.4,108.4 218.7,58.2 218.7,56.1 135.4,106.4" fill="#947c53" stroke="#947c53" stroke-width="0.5"/><polygon points="166,167.1 166.8,167.4 166.8,163.1 166,162.9" fill="#967d53" stroke="#967d53" stroke-width="0.5"/><polygon points="166,162.9 166.8,163.1 252.2,111.6 251.4,111.4" fill="#c1a16b" stroke="#c1a16b" stroke-width="0.5"/><polygon points="166.8,167.4 252.2,115.9 252.2,111.6 166.8,163.1" fill="#947c53" stroke="#947c53" stroke-width="0.5"/><polygon points="227.5,163.2 229.4,162.1 229.4,161.2 227.5,162.4" fill="#947c53" stroke="#947c53" stroke-width="0.5"/><polygon points="24.9,107.7 227.5,163.2 227.5,162.4 24.9,106.8" fill="#967d53" stroke="#967d53" stroke-width="0.5"/><polygon points="24.9,106.8 227.5,162.4 229.4,161.2 26.8,105.6" fill="#c1a16b" stroke="#c1a16b" stroke-width="0.5"/><polygon points="250.6,75.7 251,73.5 250.2,73.3 249.8,75.5" fill="#ae9161" stroke="#ae9161" stroke-width="0.5"/><polygon points="292.6,76.3 291.8,76.1 250.2,73.3 251,73.5" fill="#b29563" stroke="#b29563" stroke-width="0.5"/><polygon points="292.2,78.5 292.6,76.3 251,73.5 250.6,75.7" fill="#947c53" stroke="#947c53" stroke-width="0.5"/><polygon points="251.6,75.6 251.6,73.6 251,73.9 251,75.9" fill="#947c53" stroke="#947c53" stroke-width="0.5"/><polygon points="49,18 48.4,18.3 251,73.9 251.6,73.6" fill="#c1a16b" stroke="#c1a16b" stroke-width="0.5"/><polygon points="48.4,20.3 251,75.9 251,73.9 48.4,18.3" fill="#967d53" stroke="#967d53" stroke-width="0.5"/><polygon points="225.5,164.4 227.5,163.2 227.5,162.4 225.5,163.5" fill="#947c53" stroke="#947c53" stroke-width="0.5"/><polygon points="22.9,108.8 225.5,164.4 225.5,163.5 22.9,108" fill="#967d53" stroke="#967d53" stroke-width="0.5"/><polygon points="22.9,108 225.5,163.5 227.5,162.4 24.9,106.8" fill="#c1a16b" stroke="#c1a16b" stroke-width="0.5"/><polygon points="174.4,169.5 175.2,169.7 175.2,165.5 174.4,165.2" fill="#967d53" stroke="#967d53" stroke-width="0.5"/><polygon points="174.4,165.2 175.2,165.5 260.6,114 259.8,113.7" fill="#c1a16b" stroke="#c1a16b" stroke-width="0.5"/><polygon points="175.2,169.7 260.6,118.2 260.6,114 175.2,165.5" fill="#947c53" stroke="#947c53" stroke-width="0.5"/><polygon points="223.5,165.6 225.5,164.4 225.5,163.5 223.5,164.7" fill="#947c53" stroke="#947c53" stroke-width="0.5"/><polygon points="20.9,110 223.5,165.6 223.5,164.7 20.9,109.1" fill="#967d53" stroke="#967d53" stroke-width="0.5"/><polygon points="20.9,109.1 223.5,164.7 225.5,163.5 22.9,108" fill="#c1a16b" stroke="#c1a16b" stroke-width="0.5"/><polygon points="221.6,166.8 223.5,165.6 223.5,164.7 221.6,165.9" fill="#947c53" stroke="#947c53" stroke-width="0.5"/><polygon points="19,111.2 221.6,166.8 221.6,165.9 19,110.3" fill="#967d53" stroke="#967d53" stroke-width="0.5"/><polygon points="19,110.3 221.6,165.9 223.5,164.7 20.9,109.1" fill="#c1a16b" stroke="#c1a16b" stroke-width="0.5"/><polygon points="182.9,171.8 183.7,172 183.7,167.8 182.9,167.6" fill="#967d53" stroke="#967d53" stroke-width="0.5"/><polygon points="182.9,167.6 183.7,167.8 269.1,116.3 268.3,116.1" fill="#c1a16b" stroke="#c1a16b" stroke-width="0.5"/><polygon points="183.7,172 269.1,120.5 269.1,116.3 183.7,167.8" fill="#947c53" stroke="#947c53" stroke-width="0.5"/><polygon points="219.6,168 221.6,166.8 221.6,165.9 219.6,167.1" fill="#947c53" stroke="#947c53" stroke-width="0.5"/><polygon points="17,112.4 219.6,168 219.6,167.1 17,111.5" fill="#967d53" stroke="#967d53" stroke-width="0.5"/><polygon points="17,111.5 219.6,167.1 221.6,165.9 19,110.3" fill="#c1a16b" stroke="#c1a16b" stroke-width="0.5"/><polygon points="217.7,169.1 219.6,168 219.6,167.1 217.7,168.3" fill="#947c53" stroke="#947c53" stroke-width="0.5"/><polygon points="15.1,113.6 217.7,169.1 217.7,168.3 15.1,112.7" fill="#967d53" stroke="#967d53" stroke-width="0.5"/><polygon points="15.1,112.7 217.7,168.3 219.6,167.1 17,111.5" fill="#c1a16b" stroke="#c1a16b" stroke-width="0.5"/><polygon points="160.2,113.9 158.4,113.4 157.8,113.8 159.7,114.3" fill="#c1a16b" stroke="#c1a16b" stroke-width="0.5"/><polygon points="160.2,159.3 160.2,113.9 159.7,114.3 159.7,159.6" fill="#947c53" stroke="#947c53" stroke-width="0.5"/><polygon points="159.7,159.6 159.7,114.3 157.8,113.8 157.8,159.1" fill="#967d53" stroke="#967d53" stroke-width="0.5"/><polygon points="158.9,114.5 159.6,114.8 159.2,113.2 158.4,112.9" fill="#7d6845" stroke="#7d6845" stroke-width="0.5"/><polygon points="158.4,112.9 159.2,113.2 200.8,60.2 200,60" fill="#c5a56e" stroke="#c5a56e" stroke-width="0.5"/><polygon points="159.6,114.8 201.2,61.8 200.8,60.2 159.2,113.2" fill="#947c53" stroke="#947c53" stroke-width="0.5"/><polygon points="159.9,115.1 160.7,115.3 160.7,113.3 159.9,113.1" fill="#967d53" stroke="#967d53" stroke-width="0.5"/><polygon points="159.9,113.1 160.7,113.3 244,63.1 243.2,62.9" fill="#c1a16b" stroke="#c1a16b" stroke-width="0.5"/><polygon points="160.7,115.3 244,65.1 244,63.1 160.7,113.3" fill="#947c53" stroke="#947c53" stroke-width="0.5"/><polygon points="191.3,174.1 192.1,174.3 192.1,170.1 191.3,169.9" fill="#967d53" stroke="#967d53" stroke-width="0.5"/><polygon points="191.3,169.9 192.1,170.1 277.5,118.6 276.7,118.4" fill="#c1a16b" stroke="#c1a16b" stroke-width="0.5"/><polygon points="192.1,174.3 277.5,122.8 277.5,118.6 192.1,170.1" fill="#947c53" stroke="#947c53" stroke-width="0.5"/><polygon points="215.7,170.3 217.7,169.1 217.7,168.3 215.7,169.4" fill="#947c53" stroke="#947c53" stroke-width="0.5"/><polygon points="13.1,114.7 215.7,170.3 215.7,169.4 13.1,113.9" fill="#967d53" stroke="#967d53" stroke-width="0.5"/><polygon points="13.1,113.9 215.7,169.4 217.7,168.3 15.1,112.7" fill="#c1a16b" stroke="#c1a16b" stroke-width="0.5"/><polygon points="213.8,171.5 215.7,170.3 215.7,169.4 213.8,170.6" fill="#947c53" stroke="#947c53" stroke-width="0.5"/><polygon points="11.2,115.9 213.8,171.5 213.8,170.6 11.2,115" fill="#967d53" stroke="#967d53" stroke-width="0.5"/><polygon points="11.2,115 213.8,170.6 215.7,169.4 13.1,113.9" fill="#c1a16b" stroke="#c1a16b" stroke-width="0.5"/><polygon points="199.8,176.4 200.5,176.6 200.5,172.4 199.8,172.2" fill="#967d53" stroke="#967d53" stroke-width="0.5"/><polygon points="199.8,172.2 200.5,172.4 286,120.9 285.2,120.7" fill="#c1a16b" stroke="#c1a16b" stroke-width="0.5"/><polygon points="200.5,176.6 286,125.1 286,120.9 200.5,172.4" fill="#947c53" stroke="#947c53" stroke-width="0.5"/><polygon points="211.8,172.7 213.8,171.5 213.8,170.6 211.8,171.8" fill="#947c53" stroke="#947c53" stroke-width="0.5"/><polygon points="9.2,117.1 211.8,172.7 211.8,171.8 9.2,116.2" fill="#967d53" stroke="#967d53" stroke-width="0.5"/><polygon points="9.2,116.2 211.8,171.8 213.8,170.6 11.2,115" fill="#c1a16b" stroke="#c1a16b" stroke-width="0.5"/><polygon points="209.8,181.3 209.8,178.1 208.6,178.8 208.6,182" fill="#947c53" stroke="#947c53" stroke-width="0.5"/><polygon points="7.2,122.5 6,123.2 208.6,178.8 209.8,178.1" fill="#c1a16b" stroke="#c1a16b" stroke-width="0.5"/><polygon points="6,126.4 208.6,182 208.6,178.8 6,123.2" fill="#967d53" stroke="#967d53" stroke-width="0.5"/><polygon points="209.8,173.9 211.8,172.7 211.8,171.8 209.8,173" fill="#947c53" stroke="#947c53" stroke-width="0.5"/><polygon points="7.2,118.3 209.8,173.9 209.8,173 7.2,117.4" fill="#967d53" stroke="#967d53" stroke-width="0.5"/><polygon points="7.2,117.4 209.8,173 211.8,171.8 9.2,116.2" fill="#c1a16b" stroke="#c1a16b" stroke-width="0.5"/><polygon points="207.8,178.6 208.6,178.8 208.6,174.6 207.8,174.4" fill="#967d53" stroke="#967d53" stroke-width="0.5"/><polygon points="207.8,174.4 208.6,174.6 294,123.1 293.2,122.9" fill="#c1a16b" stroke="#c1a16b" stroke-width="0.5"/><polygon points="208.6,178.8 294,127.3 294,123.1 208.6,174.6" fill="#947c53" stroke="#947c53" stroke-width="0.5"/><polygon points="208.6,174.6 209.8,173.9 209.8,173 208.6,173.7" fill="#947c53" stroke="#947c53" stroke-width="0.5"/><polygon points="6,119 208.6,174.6 208.6,173.7 6,118.2" fill="#967d53" stroke="#967d53" stroke-width="0.5"/><polygon points="6,118.2 208.6,173.7 209.8,173 7.2,117.4" fill="#c1a16b" stroke="#c1a16b" stroke-width="0.5"/><polygon points="185.5,120.9 183.7,120.4 183.1,120.7 185,121.2" fill="#c1a16b" stroke="#c1a16b" stroke-width="0.5"/><polygon points="185.5,166.2 185.5,120.9 185,121.2 185,166.6" fill="#947c53" stroke="#947c53" stroke-width="0.5"/><polygon points="185,166.6 185,121.2 183.1,120.7 183.1,166.1" fill="#967d53" stroke="#967d53" stroke-width="0.5"/><polygon points="184.2,121.5 185,121.7 184.5,120.1 183.7,119.9" fill="#7d6845" stroke="#7d6845" stroke-width="0.5"/><polygon points="183.7,119.9 184.5,120.1 226.1,67.1 225.3,66.9" fill="#c5a56e" stroke="#c5a56e" stroke-width="0.5"/><polygon points="185,121.7 226.6,68.7 226.1,67.1 184.5,120.1" fill="#947c53" stroke="#947c53" stroke-width="0.5"/><polygon points="185.3,122.1 186.1,122.3 186.1,120.3 185.3,120" fill="#967d53" stroke="#967d53" stroke-width="0.5"/><polygon points="185.3,120 186.1,120.3 269.3,70 268.5,69.8" fill="#c1a16b" stroke="#c1a16b" stroke-width="0.5"/><polygon points="186.1,122.3 269.3,72.1 269.3,70 186.1,120.3" fill="#947c53" stroke="#947c53" stroke-width="0.5"/><polygon points="207,128 207.8,128.3 207.8,126.2 207,126" fill="#967d53" stroke="#967d53" stroke-width="0.5"/><polygon points="207,126 207.8,126.2 291.1,76 290.3,75.8" fill="#c1a16b" stroke="#c1a16b" stroke-width="0.5"/><polygon points="207.8,128.3 291.1,78 291.1,76 207.8,126.2" fill="#947c53" stroke="#947c53" stroke-width="0.5"/><polygon points="209.9,127.6 208.1,127.1 207.5,127.4 209.4,127.9" fill="#c1a16b" stroke="#c1a16b" stroke-width="0.5"/><polygon points="209.9,172.9 209.9,127.6 209.4,127.9 209.4,173.3" fill="#947c53" stroke="#947c53" stroke-width="0.5"/><polygon points="209.4,173.3 209.4,127.9 207.5,127.4 207.5,172.7" fill="#967d53" stroke="#967d53" stroke-width="0.5"/><polygon points="208.6,128.2 209.4,128.4 208.9,126.8 208.1,126.6" fill="#7d6845" stroke="#7d6845" stroke-width="0.5"/><polygon points="208.1,126.6 208.9,126.8 250.5,73.8 249.7,73.6" fill="#c5a56e" stroke="#c5a56e" stroke-width="0.5"/><polygon points="209.4,128.4 251,75.4 250.5,73.8 208.9,126.8" fill="#947c53" stroke="#947c53" stroke-width="0.5"/></svg>
