<svg xmlns="http://www.w3.org/2000/svg" viewBox="0 0 300 200" width="300" height="200" role="img"><polygon points="89.5,27.9 87.4,27.3 86.8,27.7 88.9,28.3" fill="#c1a16b" stroke="#c1a16b" stroke-width="0.5"/><polygon points="89.5,70.2 89.5,27.9 88.9,28.3 88.9,70.5" fill="#947c53" stroke="#947c53" stroke-width="0.5"/><polygon points="88.9,70.5 88.9,28.3 86.8,27.7 86.8,70" fill="#967d53" stroke="#967d53" stroke-width="0.5"/><polygon points="117.8,35.7 115.8,35.1 115.2,35.5 117.2,36" fill="#c1a16b" stroke="#c1a16b" stroke-width="0.5"/><polygon points="117.8,77.9 117.8,35.7 117.2,36 117.2,78.3" fill="#947c53" stroke="#947c53" stroke-width="0.5"/><polygon points="117.2,78.3 117.2,36 115.2,35.5 115.2,77.7" fill="#967d53" stroke="#967d53" stroke-width="0.5"/><polygon points="147.2,43.7 145.2,43.2 144.6,43.5 146.6,44.1" fill="#c1a16b" stroke="#c1a16b" stroke-width="0.5"/><polygon points="147.2,86 147.2,43.7 146.6,44.1 146.6,86.4" fill="#947c53" stroke="#947c53" stroke-width="0.5"/><polygon points="146.6,86.4 146.6,44.1 144.6,43.5 144.6,85.8" fill="#967d53" stroke="#967d53" stroke-width="0.5"/><polygon points="56.8,38.6 54.8,38 54.2,38.4 56.2,39" fill="#c1a16b" stroke="#c1a16b" stroke-width="0.5"/><polygon points="56.8,89.8 56.8,38.6 56.2,39 56.2,90.2" fill="#947c53" stroke="#947c53" stroke-width="0.5"/><polygon points="56.2,90.2 56.2,39 54.2,38.4 54.2,89.6" fill="#967d53" stroke="#967d53" stroke-width="0.5"/><polygon points="176.6,51.8 174.6,51.2 174,51.6 176,52.2" fill="#c1a16b" stroke="#c1a16b" stroke-width="0.5"/><polygon points="176.6,94.1 176.6,51.8 176,52.2 176,94.4" fill="#947c53" stroke="#947c53" stroke-width="0.5"/><polygon points="176,94.4 176,52.2 174,51.6 174,93.9" fill="#967d53" stroke="#967d53" stroke-width="0.5"/><polygon points="42.1,47.5 40.1,46.9 39.5,47.3 41.5,47.8" fill="#c1a16b" stroke="#c1a16b" stroke-width="0.5"/><polygon points="42.1,98.7 42.1,47.5 41.5,47.8 41.5,99" fill="#947c53" stroke="#947c53" stroke-width="0.5"/><polygon points="41.5,99 41.5,47.8 39.5,47.3 39.5,98.5" fill="#967d53" stroke="#967d53" stroke-width="0.5"/><polygon points="48.3,18.6 48.9,16.3 48,16 47.4,18.4" fill="#b39563" stroke="#b39563" stroke-width="0.5"/><polygon points="88.9,26.7 88,26.5 48,16 48.9,16.3" fill="#ad9160" stroke="#ad9160" stroke-width="0.5"/><polygon points="88.3,29.1 88.9,26.7 48.9,16.3 48.3,18.6" fill="#947c53" stroke="#947c53" stroke-width="0.5"/><polygon points="40.1,47.4 41,47.7 41,44.1 40.1,43.9" fill="#967d53" stroke="#967d53" stroke-width="0.5"/><polygon points="40.1,43.9 41,44.1 56.2,34.9 55.4,34.7" fill="#c1a16b" stroke="#c1a16b" stroke-width="0.5"/><polygon points="41,47.7 56.2,38.4 56.2,34.9 41,44.1" fill="#947c53" stroke="#947c53" stroke-width="0.5"/><polygon points="206,59.9 203.9,59.3 203.4,59.7 205.4,60.2" fill="#c1a16b" stroke="#c1a16b" stroke-width="0.5"/><polygon points="206,102.1 206,59.9 205.4,60.2 205.4,102.5" fill="#947c53" stroke="#947c53" stroke-width="0.5"/><polygon points="205.4,102.5 205.4,60.2 203.4,59.7 203.4,101.9" fill="#967d53" stroke="#967d53" stroke-width="0.5"/><polygon points="76.6,26.4 77.3,24 76.4,23.8 75.8,26.2" fill="#b39563" stroke="#b39563" stroke-width="0.5"/><polygon points="117.3,34.5 116.4,34.3 76.4,23.8 77.3,24" fill="#ad9160" stroke="#ad9160" stroke-width="0.5"/><polygon points="116.6,36.9 117.3,34.5 77.3,24 76.6,26.4" fill="#947c53" stroke="#947c53" stroke-width="0.5"/><polygon points="6,124.3 6.9,124.5 6.9,119.9 6,119.7" fill="#967d53" stroke="#967d53" stroke-width="0.5"/><polygon points="6,119.7 6.9,119.9 89.2,70.3 88.3,70" fill="#c1a16b" stroke="#c1a16b" stroke-width="0.5"/><polygon points="6.9,124.5 89.2,74.9 89.2,70.3 6.9,119.9" fill="#947c53" stroke="#947c53" stroke-width="0.5"/><polygon points="235.4,67.9 233.3,67.4 232.7,67.7 234.8,68.3" fill="#c1a16b" stroke="#c1a16b" stroke-width="0.5"/><polygon points="235.4,110.2 235.4,67.9 234.8,68.3 234.8,110.5" fill="#947c53" stroke="#947c53" stroke-width="0.5"/><polygon points="234.8,110.5 234.8,68.3 232.7,67.7 232.7,110" fill="#967d53" stroke="#967d53" stroke-width="0.5"/><polygon points="14.9,126.7 15.8,127 15.8,122.3 14.9,122.1" fill="#967d53" stroke="#967d53" stroke-width="0.5"/><polygon points="14.9,122.1 15.8,122.3 98.1,72.7 97.2,72.5" fill="#c1a16b" stroke="#c1a16b" stroke-width="0.5"/><polygon points="15.8,127 98.1,77.4 98.1,72.7 15.8,122.3" fill="#947c53" stroke="#947c53" stroke-width="0.5"/><polygon points="24.3,129.3 25.1,129.5 25.1,124.9 24.3,124.7" fill="#967d53" stroke="#967d53" stroke-width="0.5"/><polygon points="24.3,124.7 25.1,124.9 107.4,75.3 106.6,75" fill="#c1a16b" stroke="#c1a16b" stroke-width="0.5"/><polygon points="25.1,129.5 107.4,79.9 107.4,75.3 25.1,124.9" fill="#947c53" stroke="#947c53" stroke-width="0.5"/><polygon points="294,134.6 294,131.1 292.6,131.9 292.6,135.4" fill="#947c53" stroke="#947c53" stroke-width="0.5"/><polygon points="88.3,74.7 86.9,75.5 292.6,131.9 294,131.1" fill="#c1a16b" stroke="#c1a16b" stroke-width="0.5"/><polygon points="86.9,79 292.6,135.4 292.6,131.9 86.9,75.5" fill="#967d53" stroke="#967d53" stroke-width="0.5"/><polygon points="106,34.5 106.7,32.1 105.8,31.9 105.1,34.2" fill="#b39563" stroke="#b39563" stroke-width="0.5"/><polygon points="146.7,42.6 145.8,42.3 105.8,31.9 106.7,32.1" fill="#ad9160" stroke="#ad9160" stroke-width="0.5"/><polygon points="146,44.9 146.7,42.6 106.7,32.1 106,34.5" fill="#947c53" stroke="#947c53" stroke-width="0.5"/><polygon points="33.6,131.9 34.5,132.1 34.5,127.5 33.6,127.2" fill="#967d53" stroke="#967d53" stroke-width="0.5"/><polygon points="33.6,127.2 34.5,127.5 116.8,77.8 115.9,77.6" fill="#c1a16b" stroke="#c1a16b" stroke-width="0.5"/><polygon points="34.5,132.1 116.8,82.5 116.8,77.8 34.5,127.5" fill="#947c53" stroke="#947c53" stroke-width="0.5"/><polygon points="291.8,127.8 294,126.5 294,125.5 291.8,126.8" fill="#947c53" stroke="#947c53" stroke-width="0.5"/><polygon points="86.1,71.3 291.8,127.8 291.8,126.8 86.1,70.4" fill="#967d53" stroke="#967d53" stroke-width="0.5"/><polygon points="86.1,70.4 291.8,126.8 294,125.5 88.3,69.1" fill="#c1a16b" stroke="#c1a16b" stroke-width="0.5"/><polygon points="264.8,76 262.7,75.4 262.1,75.8 264.2,76.3" fill="#c1a16b" stroke="#c1a16b" stroke-width="0.5"/><polygon points="264.8,118.2 264.8,76 264.2,76.3 264.2,118.6" fill="#947c53" stroke="#947c53" stroke-width="0.5"/><polygon points="264.2,118.6 264.2,76.3 262.1,75.8 262.1,118" fill="#967d53" stroke="#967d53" stroke-width="0.5"/><polygon points="9.5,76.1 7.5,75.6 6.9,75.9 8.9,76.5" fill="#c1a16b" stroke="#c1a16b" stroke-width="0.5"/><polygon points="9.5,118.4 9.5,76.1 8.9,76.5 8.9,118.7" fill="#947c53" stroke="#947c53" stroke-width="0.5"/><polygon points="8.9,118.7 8.9,76.5 6.9,75.9 6.9,118.2" fill="#967d53" stroke="#967d53" stroke-width="0.5"/><polygon points="8.1,76.7 8.9,76.9 8.3,75.3 7.4,75.1" fill="#7d6845" stroke="#7d6845" stroke-width="0.5"/><polygon points="7.4,75.1 8.3,75.3 48.3,16.6 47.4,16.4" fill="#c4a46d" stroke="#c4a46d" stroke-width="0.5"/><polygon points="8.9,76.9 49,18.2 48.3,16.6 8.3,75.3" fill="#947c53" stroke="#947c53" stroke-width="0.5"/><polygon points="9.2,77.4 10.1,77.6 10.1,75.4 9.2,75.2" fill="#967d53" stroke="#967d53" stroke-width="0.5"/><polygon points="9.2,75.2 10.1,75.4 90,27.2 89.2,27" fill="#c1a16b" stroke="#c1a16b" stroke-width="0.5"/><polygon points="10.1,77.6 90,29.4 90,27.2 10.1,75.4" fill="#947c53" stroke="#947c53" stroke-width="0.5"/><polygon points="289.7,129.1 291.8,127.8 291.8,126.8 289.7,128.1" fill="#947c53" stroke="#947c53" stroke-width="0.5"/><polygon points="84,72.6 289.7,129.1 289.7,128.1 84,71.7" fill="#967d53" stroke="#967d53" stroke-width="0.5"/><polygon points="84,71.7 289.7,128.1 291.8,126.8 86.1,70.4" fill="#c1a16b" stroke="#c1a16b" stroke-width="0.5"/><polygon points="43,134.4 43.8,134.7 43.8,130 43,129.8" fill="#967d53" stroke="#967d53" stroke-width="0.5"/><polygon points="43,129.8 43.8,130 126.1,80.4 125.3,80.2" fill="#c1a16b" stroke="#c1a16b" stroke-width="0.5"/><polygon points="43.8,134.7 126.1,85 126.1,80.4 43.8,130" fill="#947c53" stroke="#947c53" stroke-width="0.5"/><polygon points="287.5,130.4 289.7,129.1 289.7,128.1 287.5,129.4" fill="#947c53" stroke="#947c53" stroke-width="0.5"/><polygon points="81.8,73.9 287.5,130.4 287.5,129.4 81.8,73" fill="#967d53" stroke="#967d53" stroke-width="0.5"/><polygon points="81.8,73 287.5,129.4 289.7,128.1 84,71.7" fill="#c1a16b" stroke="#c1a16b" stroke-width="0.5"/><polygon points="285.4,131.7 287.5,130.4 287.5,129.4 285.4,130.7" fill="#947c53" stroke="#947c53" stroke-width="0.5"/><polygon points="79.7,75.2 285.4,131.7 285.4,130.7 79.7,74.3" fill="#967d53" stroke="#967d53" stroke-width="0.5"/><polygon points="79.7,74.3 285.4,130.7 287.5,129.4 81.8,73" fill="#c1a16b" stroke="#c1a16b" stroke-width="0.5"/><polygon points="52.3,137 53.2,137.2 53.2,132.6 52.3,132.4" fill="#967d53" stroke="#967d53" stroke-width="0.5"/><polygon points="52.3,132.4 53.2,132.6 135.5,83 134.6,82.7" fill="#c1a16b" stroke="#c1a16b" stroke-width="0.5"/><polygon points="53.2,137.2 135.5,87.6 135.5,83 53.2,132.6" fill="#947c53" stroke="#947c53" stroke-width="0.5"/><polygon points="283.2,133 285.4,131.7 285.4,130.7 283.2,132" fill="#947c53" stroke="#947c53" stroke-width="0.5"/><polygon points="77.5,76.5 283.2,133 283.2,132 77.5,75.6" fill="#967d53" stroke="#967d53" stroke-width="0.5"/><polygon points="77.5,75.6 283.2,132 285.4,130.7 79.7,74.3" fill="#c1a16b" stroke="#c1a16b" stroke-width="0.5"/><polygon points="281.1,134.3 283.2,133 283.2,132 281.1,133.3" fill="#947c53" stroke="#947c53" stroke-width="0.5"/><polygon points="75.4,77.8 281.1,134.3 281.1,133.3 75.4,76.9" fill="#967d53" stroke="#967d53" stroke-width="0.5"/><polygon points="75.4,76.9 281.1,133.3 283.2,132 77.5,75.6" fill="#c1a16b" stroke="#c1a16b" stroke-width="0.5"/><polygon points="135.4,42.5 136,40.2 135.2,39.9 134.5,42.3" fill="#b39563" stroke="#b39563" stroke-width="0.5"/><polygon points="176,50.6 175.2,50.4 135.2,39.9 136,40.2" fill="#ad9160" stroke="#ad9160" stroke-width="0.5"/><polygon points="175.4,53 176,50.6 136,40.2 135.4,42.5" fill="#947c53" stroke="#947c53" stroke-width="0.5"/><polygon points="61.7,139.6 62.5,139.8 62.5,135.2 61.7,134.9" fill="#967d53" stroke="#967d53" stroke-width="0.5"/><polygon points="61.7,134.9 62.5,135.2 144.8,85.5 144,85.3" fill="#c1a16b" stroke="#c1a16b" stroke-width="0.5"/><polygon points="62.5,139.8 144.8,90.2 144.8,85.5 62.5,135.2" fill="#947c53" stroke="#947c53" stroke-width="0.5"/><polygon points="278.9,135.6 281.1,134.3 281.1,133.3 278.9,134.6" fill="#947c53" stroke="#947c53" stroke-width="0.5"/><polygon points="73.2,79.1 278.9,135.6 278.9,134.6 73.2,78.2" fill="#967d53" stroke="#967d53" stroke-width="0.5"/><polygon points="73.2,78.2 278.9,134.6 281.1,133.3 75.4,76.9" fill="#c1a16b" stroke="#c1a16b" stroke-width="0.5"/><polygon points="293.1,83.8 291.1,83.2 290.5,83.6 292.5,84.1" fill="#c1a16b" stroke="#c1a16b" stroke-width="0.5"/><polygon points="293.1,126 293.1,83.8 292.5,84.1 292.5,126.4" fill="#947c53" stroke="#947c53" stroke-width="0.5"/><polygon points="292.5,126.4 292.5,84.1 290.5,83.6 290.5,125.8" fill="#967d53" stroke="#967d53" stroke-width="0.5"/><polygon points="37.9,83.9 35.8,83.3 35.2,83.7 37.3,84.2" fill="#c1a16b" stroke="#c1a16b" stroke-width="0.5"/><polygon points="37.9,126.2 37.9,83.9 37.3,84.2 37.3,126.5" fill="#947c53" stroke="#947c53" stroke-width="0.5"/><polygon points="37.3,126.5 37.3,84.2 35.2,83.7 35.2,125.9" fill="#967d53" stroke="#967d53" stroke-width="0.5"/><polygon points="36.4,84.5 37.3,84.7 36.7,83.1 35.8,82.9" fill="#7d6845" stroke="#7d6845" stroke-width="0.5"/><polygon points="35.8,82.9 36.7,83.1 76.7,24.4 75.8,24.2" fill="#c4a46d" stroke="#c4a46d" stroke-width="0.5"/><polygon points="37.3,84.7 77.3,26 76.7,24.4 36.7,83.1" fill="#947c53" stroke="#947c53" stroke-width="0.5"/><polygon points="37.6,85.2 38.4,85.4 38.4,83.2 37.6,82.9" fill="#967d53" stroke="#967d53" stroke-width="0.5"/><polygon points="37.6,82.9 38.4,83.2 118.4,35 117.5,34.7" fill="#c1a16b" stroke="#c1a16b" stroke-width="0.5"/><polygon points="38.4,85.4 118.4,37.2 118.4,35 38.4,83.2" fill="#947c53" stroke="#947c53" stroke-width="0.5"/><polygon points="276.8,136.9 278.9,135.6 278.9,134.6 276.8,135.9" fill="#947c53" stroke="#947c53" stroke-width="0.5"/><polygon points="71.1,80.4 276.8,136.9 276.8,135.9 71.1,79.5" fill="#967d53" stroke="#967d53" stroke-width="0.5"/><polygon points="71.1,79.5 276.8,135.9 278.9,134.6 73.2,78.2" fill="#c1a16b" stroke="#c1a16b" stroke-width="0.5"/><polygon points="71,142.1 71.9,142.4 71.9,137.7 71,137.5" fill="#967d53" stroke="#967d53" stroke-width="0.5"/><polygon points="71,137.5 71.9,137.7 154.2,88.1 153.3,87.9" fill="#c1a16b" stroke="#c1a16b" stroke-width="0.5"/><polygon points="71.9,142.4 154.2,92.7 154.2,88.1 71.9,137.7" fill="#947c53" stroke="#947c53" stroke-width="0.5"/><polygon points="274.6,138.2 276.8,136.9 276.8,135.9 274.6,137.2" fill="#947c53" stroke="#947c53" stroke-width="0.5"/><polygon points="68.9,81.7 274.6,138.2 274.6,137.2 68.9,80.8" fill="#967d53" stroke="#967d53" stroke-width="0.5"/><polygon points="68.9,80.8 274.6,137.2 276.8,135.9 71.1,79.5" fill="#c1a16b" stroke="#c1a16b" stroke-width="0.5"/><polygon points="272.4,139.5 274.6,138.2 274.6,137.2 272.4,138.5" fill="#947c53" stroke="#947c53" stroke-width="0.5"/><polygon points="66.7,83 272.4,139.5 272.4,138.5 66.7,82.1" fill="#967d53" stroke="#967d53" stroke-width="0.5"/><polygon points="66.7,82.1 272.4,138.5 274.6,137.2 68.9,80.8" fill="#c1a16b" stroke="#c1a16b" stroke-width="0.5"/><polygon points="80.4,144.7 81.2,144.9 81.2,140.3 80.4,140.1" fill="#967d53" stroke="#967d53" stroke-width="0.5"/><polygon points="80.4,140.1 81.2,140.3 163.5,90.7 162.7,90.4" fill="#c1a16b" stroke="#c1a16b" stroke-width="0.5"/><polygon points="81.2,144.9 163.5,95.3 163.5,90.7 81.2,140.3" fill="#947c53" stroke="#947c53" stroke-width="0.5"/><polygon points="270.3,140.8 272.4,139.5 272.4,138.5 270.3,139.8" fill="#947c53" stroke="#947c53" stroke-width="0.5"/><polygon points="64.6,84.3 270.3,140.8 270.3,139.8 64.6,83.4" fill="#967d53" stroke="#967d53" stroke-width="0.5"/><polygon points="64.6,83.4 270.3,139.8 272.4,138.5 66.7,82.1" fill="#c1a16b" stroke="#c1a16b" stroke-width="0.5"/><polygon points="268.1,142.1 270.3,140.8 270.3,139.8 268.1,141.1" fill="#947c53" stroke="#947c53" stroke-width="0.5"/><polygon points="62.4,85.6 268.1,142.1 268.1,141.1 62.4,84.7" fill="#967d53" stroke="#967d53" stroke-width="0.5"/><polygon points="62.4,84.7 268.1,141.1 270.3,139.8 64.6,83.4" fill="#c1a16b" stroke="#c1a16b" stroke-width="0.5"/><polygon points="164.8,50.6 165.4,48.2 164.6,48 163.9,50.3" fill="#b39563" stroke="#b39563" stroke-width="0.5"/><polygon points="205.4,58.7 204.6,58.5 164.6,48 165.4,48.2" fill="#ad9160" stroke="#ad9160" stroke-width="0.5"/><polygon points="204.8,61.1 205.4,58.7 165.4,48.2 164.8,50.6" fill="#947c53" stroke="#947c53" stroke-width="0.5"/><polygon points="89.7,147.3 90.6,147.5 90.6,142.9 89.7,142.6" fill="#967d53" stroke="#967d53" stroke-width="0.5"/><polygon points="89.7,142.6 90.6,142.9 172.9,93.2 172,93" fill="#c1a16b" stroke="#c1a16b" stroke-width="0.5"/><polygon points="90.6,147.5 172.9,97.9 172.9,93.2 90.6,142.9" fill="#947c53" stroke="#947c53" stroke-width="0.5"/><polygon points="266,143.4 268.1,142.1 268.1,141.1 266,142.4" fill="#947c53" stroke="#947c53" stroke-width="0.5"/><polygon points="60.3,86.9 266,143.4 266,142.4 60.3,86" fill="#967d53" stroke="#967d53" stroke-width="0.5"/><polygon points="60.3,86 266,142.4 268.1,141.1 62.4,84.7" fill="#c1a16b" stroke="#c1a16b" stroke-width="0.5"/><polygon points="67.3,92 65.2,91.4 64.6,91.7 66.7,92.3" fill="#c1a16b" stroke="#c1a16b" stroke-width="0.5"/><polygon points="67.3,134.2 67.3,92 66.7,92.3 66.7,134.6" fill="#947c53" stroke="#947c53" stroke-width="0.5"/><polygon points="66.7,134.6 66.7,92.3 64.6,91.7 64.6,134" fill="#967d53" stroke="#967d53" stroke-width="0.5"/><polygon points="65.8,92.5 66.7,92.8 66.1,91.2 65.2,90.9" fill="#7d6845" stroke="#7d6845" stroke-width="0.5"/><polygon points="65.2,90.9 66.1,91.2 106.1,32.5 105.2,32.2" fill="#c4a46d" stroke="#c4a46d" stroke-width="0.5"/><polygon points="66.7,92.8 106.7,34 106.1,32.5 66.1,91.2" fill="#947c53" stroke="#947c53" stroke-width="0.5"/><polygon points="67,93.3 67.8,93.5 67.8,91.2 67,91" fill="#967d53" stroke="#967d53" stroke-width="0.5"/><polygon points="67,91 67.8,91.2 147.8,43 146.9,42.8" fill="#c1a16b" stroke="#c1a16b" stroke-width="0.5"/><polygon points="67.8,93.5 147.8,45.3 147.8,43 67.8,91.2" fill="#947c53" stroke="#947c53" stroke-width="0.5"/><polygon points="263.8,144.7 266,143.4 266,142.4 263.8,143.7" fill="#947c53" stroke="#947c53" stroke-width="0.5"/><polygon points="58.1,88.2 263.8,144.7 263.8,143.7 58.1,87.3" fill="#967d53" stroke="#967d53" stroke-width="0.5"/><polygon points="58.1,87.3 263.8,143.7 266,142.4 60.3,86" fill="#c1a16b" stroke="#c1a16b" stroke-width="0.5"/><polygon points="99.1,149.8 99.9,150.1 99.9,145.4 99.1,145.2" fill="#967d53" stroke="#967d53" stroke-width="0.5"/><polygon points="99.1,145.2 99.9,145.4 182.2,95.8 181.4,95.6" fill="#c1a16b" stroke="#c1a16b" stroke-width="0.5"/><polygon points="99.9,150.1 182.2,100.4 182.2,95.8 99.9,145.4" fill="#947c53" stroke="#947c53" stroke-width="0.5"/><polygon points="261.7,146 263.8,144.7 263.8,143.7 261.7,145" fill="#947c53" stroke="#947c53" stroke-width="0.5"/><polygon points="56,89.5 261.7,146 261.7,145 56,88.6" fill="#967d53" stroke="#967d53" stroke-width="0.5"/><polygon points="56,88.6 261.7,145 263.8,143.7 58.1,87.3" fill="#c1a16b" stroke="#c1a16b" stroke-width="0.5"/><polygon points="259.5,147.3 261.7,146 261.7,145 259.5,146.3" fill="#947c53" stroke="#947c53" stroke-width="0.5"/><polygon points="53.8,90.8 259.5,147.3 259.5,146.3 53.8,89.9" fill="#967d53" stroke="#967d53" stroke-width="0.5"/><polygon points="53.8,89.9 259.5,146.3 261.7,145 56,88.6" fill="#c1a16b" stroke="#c1a16b" stroke-width="0.5"/><polygon points="108.4,152.4 109.3,152.6 109.3,148 108.4,147.8" fill="#967d53" stroke="#967d53" stroke-width="0.5"/><polygon points="108.4,147.8 109.3,148 191.6,98.4 190.7,98.1" fill="#c1a16b" stroke="#c1a16b" stroke-width="0.5"/><polygon points="109.3,152.6 191.6,103 191.6,98.4 109.3,148" fill="#947c53" stroke="#947c53" stroke-width="0.5"/><polygon points="257.4,148.6 259.5,147.3 259.5,146.3 257.4,147.6" fill="#947c53" stroke="#947c53" stroke-width="0.5"/><polygon points="51.7,92.1 257.4,148.6 257.4,147.6 51.7,91.2" fill="#967d53" stroke="#967d53" stroke-width="0.5"/><polygon points="51.7,91.2 257.4,147.6 259.5,146.3 53.8,89.9" fill="#c1a16b" stroke="#c1a16b" stroke-width="0.5"/><polygon points="255.2,149.9 257.4,148.6 257.4,147.6 255.2,148.9" fill="#947c53" stroke="#947c53" stroke-width="0.5"/><polygon points="49.5,93.4 255.2,149.9 255.2,148.9 49.5,92.5" fill="#967d53" stroke="#967d53" stroke-width="0.5"/><polygon points="49.5,92.5 255.2,148.9 257.4,147.6 51.7,91.2" fill="#c1a16b" stroke="#c1a16b" stroke-width="0.5"/><polygon points="117.8,155 118.6,155.2 118.6,150.6 117.8,150.3" fill="#967d53" stroke="#967d53" stroke-width="0.5"/><polygon points="117.8,150.3 118.6,150.6 200.9,100.9 200.1,100.7" fill="#c1a16b" stroke="#c1a16b" stroke-width="0.5"/><polygon points="118.6,155.2 200.9,105.6 200.9,100.9 118.6,150.6" fill="#947c53" stroke="#947c53" stroke-width="0.5"/><polygon points="194.2,58.7 194.8,56.3 193.9,56 193.3,58.4" fill="#b39563" stroke="#b39563" stroke-width="0.5"/><polygon points="234.8,66.8 233.9,66.5 193.9,56 194.8,56.3" fill="#ad9160" stroke="#ad9160" stroke-width="0.5"/><polygon points="234.2,69.1 234.8,66.8 194.8,56.3 194.2,58.7" fill="#947c53" stroke="#947c53" stroke-width="0.5"/><polygon points="253.5,159 253.5,155.5 252.2,156.3 252.2,159.9" fill="#947c53" stroke="#947c53" stroke-width="0.5"/><polygon points="47.8,99.1 46.5,99.9 252.2,156.3 253.5,155.5" fill="#c1a16b" stroke="#c1a16b" stroke-width="0.5"/><polygon points="46.5,103.4 252.2,159.9 252.2,156.3 46.5,99.9" fill="#967d53" stroke="#967d53" stroke-width="0.5"/><polygon points="253,151.2 255.2,149.9 255.2,148.9 253,150.2" fill="#947c53" stroke="#947c53" stroke-width="0.5"/><polygon points="47.3,94.7 253,151.2 253,150.2 47.3,93.8" fill="#967d53" stroke="#967d53" stroke-width="0.5"/><polygon points="47.3,93.8 253,150.2 255.2,148.9 49.5,92.5" fill="#c1a16b" stroke="#c1a16b" stroke-width="0.5"/><polygon points="96.6,100 94.6,99.5 94,99.8 96.1,100.4" fill="#c1a16b" stroke="#c1a16b" stroke-width="0.5"/><polygon points="96.6,142.3 96.6,100 96.1,100.4 96.1,142.6" fill="#947c53" stroke="#947c53" stroke-width="0.5"/><polygon points="96.1,142.6 96.1,100.4 94,99.8 94,142.1" fill="#967d53" stroke="#967d53" stroke-width="0.5"/><polygon points="95.2,100.6 96.1,100.8 95.4,99.2 94.6,99" fill="#7d6845" stroke="#7d6845" stroke-width="0.5"/><polygon points="94.6,99 95.4,99.2 135.4,40.5 134.6,40.3" fill="#c4a46d" stroke="#c4a46d" stroke-width="0.5"/><polygon points="96.1,100.8 136.1,42.1 135.4,40.5 95.4,99.2" fill="#947c53" stroke="#947c53" stroke-width="0.5"/><polygon points="96.3,101.3 97.2,101.6 97.2,99.3 96.3,99.1" fill="#967d53" stroke="#967d53" stroke-width="0.5"/><polygon points="96.3,99.1 97.2,99.3 177.2,51.1 176.3,50.9" fill="#c1a16b" stroke="#c1a16b" stroke-width="0.5"/><polygon points="97.2,101.6 177.2,53.3 177.2,51.1 97.2,99.3" fill="#947c53" stroke="#947c53" stroke-width="0.5"/><polygon points="250.9,152.5 253,151.2 253,150.2 250.9,151.5" fill="#947c53" stroke="#947c53" stroke-width="0.5"/><polygon points="45.2,96 250.9,152.5 250.9,151.5 45.2,95.1" fill="#967d53" stroke="#967d53" stroke-width="0.5"/><polygon points="45.2,95.1 250.9,151.5 253,150.2 47.3,93.8" fill="#c1a16b" stroke="#c1a16b" stroke-width="0.5"/><polygon points="127.1,157.5 128,157.8 128,153.1 127.1,152.9" fill="#967d53" stroke="#967d53" stroke-width="0.5"/><polygon points="127.1,152.9 128,153.1 210.3,103.5 209.4,103.3" fill="#c1a16b" stroke="#c1a16b" stroke-width="0.5"/><polygon points="128,157.8 210.3,108.1 210.3,103.5 128,153.1" fill="#947c53" stroke="#947c53" stroke-width="0.5"/><polygon points="248.7,153.8 250.9,152.5 250.9,151.5 248.7,152.8" fill="#947c53" stroke="#947c53" stroke-width="0.5"/><polygon points="43,97.3 248.7,153.8 248.7,152.8 43,96.4" fill="#967d53" stroke="#967d53" stroke-width="0.5"/><polygon points="43,96.4 248.7,152.8 250.9,151.5 45.2,95.1" fill="#c1a16b" stroke="#c1a16b" stroke-width="0.5"/><polygon points="246.6,155.1 248.7,153.8 248.7,152.8 246.6,154.1" fill="#947c53" stroke="#947c53" stroke-width="0.5"/><polygon points="40.9,98.6 246.6,155.1 246.6,154.1 40.9,97.7" fill="#967d53" stroke="#967d53" stroke-width="0.5"/><polygon points="40.9,97.7 246.6,154.1 248.7,152.8 43,96.4" fill="#c1a16b" stroke="#c1a16b" stroke-width="0.5"/><polygon points="136.5,160.1 137.3,160.3 137.3,155.7 136.5,155.4" fill="#967d53" stroke="#967d53" stroke-width="0.5"/><polygon points="136.5,155.4 137.3,155.7 219.6,106.1 218.8,105.8" fill="#c1a16b" stroke="#c1a16b" stroke-width="0.5"/><polygon points="137.3,160.3 219.6,110.7 219.6,106.1 137.3,155.7" fill="#947c53" stroke="#947c53" stroke-width="0.5"/><polygon points="244.4,156.4 246.6,155.1 246.6,154.1 244.4,155.4" fill="#947c53" stroke="#947c53" stroke-width="0.5"/><polygon points="38.7,99.9 244.4,156.4 244.4,155.4 38.7,99" fill="#967d53" stroke="#967d53" stroke-width="0.5"/><polygon points="38.7,99 244.4,155.4 246.6,154.1 40.9,97.7" fill="#c1a16b" stroke="#c1a16b" stroke-width="0.5"/><polygon points="260.5,94.5 258.5,93.9 257.9,94.3 259.9,94.8" fill="#c1a16b" stroke="#c1a16b" stroke-width="0.5"/><polygon points="260.5,145.7 260.5,94.5 259.9,94.8 259.9,146.1" fill="#947c53" stroke="#947c53" stroke-width="0.5"/><polygon points="259.9,146.1 259.9,94.8 257.9,94.3 257.9,145.5" fill="#967d53" stroke="#967d53" stroke-width="0.5"/><polygon points="242.3,157.7 244.4,156.4 244.4,155.4 242.3,156.7" fill="#947c53" stroke="#947c53" stroke-width="0.5"/><polygon points="36.6,101.2 242.3,157.7 242.3,156.7 36.6,100.3" fill="#967d53" stroke="#967d53" stroke-width="0.5"/><polygon points="36.6,100.3 242.3,156.7 244.4,155.4 38.7,99" fill="#c1a16b" stroke="#c1a16b" stroke-width="0.5"/><polygon points="145.8,162.7 146.7,162.9 146.7,158.3 145.8,158" fill="#967d53" stroke="#967d53" stroke-width="0.5"/><polygon points="145.8,158 146.7,158.3 229,108.6 228.1,108.4" fill="#c1a16b" stroke="#c1a16b" stroke-width="0.5"/><polygon points="146.7,162.9 229,113.3 229,108.6 146.7,158.3" fill="#947c53" stroke="#947c53" stroke-width="0.5"/><polygon points="223.6,66.7 224.2,64.3 223.3,64.1 222.7,66.5" fill="#b39563" stroke="#b39563" stroke-width="0.5"/><polygon points="264.2,74.8 263.3,74.6 223.3,64.1 224.2,64.3" fill="#ad9160" stroke="#ad9160" stroke-width="0.5"/><polygon points="263.6,77.2 264.2,74.8 224.2,64.3 223.6,66.7" fill="#947c53" stroke="#947c53" stroke-width="0.5"/><polygon points="240.1,159 242.3,157.7 242.3,156.7 240.1,158" fill="#947c53" stroke="#947c53" stroke-width="0.5"/><polygon points="34.4,102.5 240.1,159 240.1,158 34.4,101.6" fill="#967d53" stroke="#967d53" stroke-width="0.5"/><polygon points="34.4,101.6 240.1,158 242.3,156.7 36.6,100.3" fill="#c1a16b" stroke="#c1a16b" stroke-width="0.5"/><polygon points="126,108.1 124,107.5 123.4,107.9 125.4,108.4" fill="#c1a16b" stroke="#c1a16b" stroke-width="0.5"/><polygon points="126,150.3 126,108.1 125.4,108.4 125.4,150.7" fill="#947c53" stroke="#947c53" stroke-width="0.5"/><polygon points="125.4,150.7 125.4,108.4 123.4,107.9 123.4,150.1" fill="#967d53" stroke="#967d53" stroke-width="0.5"/><polygon points="124.6,108.7 125.5,108.9 124.8,107.3 124,107.1" fill="#7d6845" stroke="#7d6845" stroke-width="0.5"/><polygon points="124,107.1 124.8,107.3 164.8,48.6 164,48.3" fill="#c4a46d" stroke="#c4a46d" stroke-width="0.5"/><polygon points="125.5,108.9 165.5,50.2 164.8,48.6 124.8,107.3" fill="#947c53" stroke="#947c53" stroke-width="0.5"/><polygon points="238,160.3 240.1,159 240.1,158 238,159.3" fill="#947c53" stroke="#947c53" stroke-width="0.5"/><polygon points="32.3,103.8 238,160.3 238,159.3 32.3,102.9" fill="#967d53" stroke="#967d53" stroke-width="0.5"/><polygon points="32.3,102.9 238,159.3 240.1,158 34.4,101.6" fill="#c1a16b" stroke="#c1a16b" stroke-width="0.5"/><polygon points="125.7,109.4 126.6,109.6 126.6,107.4 125.7,107.1" fill="#967d53" stroke="#967d53" stroke-width="0.5"/><polygon points="125.7,107.1 126.6,107.4 206.6,59.2 205.7,58.9" fill="#c1a16b" stroke="#c1a16b" stroke-width="0.5"/><polygon points="126.6,109.6 206.6,61.4 206.6,59.2 126.6,107.4" fill="#947c53" stroke="#947c53" stroke-width="0.5"/><polygon points="155.2,165.2 156,165.5 156,160.8 155.2,160.6" fill="#967d53" stroke="#967d53" stroke-width="0.5"/><polygon points="155.2,160.6 156,160.8 238.3,111.2 237.5,110.9" fill="#c1a16b" stroke="#c1a16b" stroke-width="0.5"/><polygon points="156,165.5 238.3,115.8 238.3,111.2 156,160.8" fill="#947c53" stroke="#947c53" stroke-width="0.5"/><polygon points="235.8,161.6 238,160.3 238,159.3 235.8,160.6" fill="#947c53" stroke="#947c53" stroke-width="0.5"/><polygon points="30.1,105.1 235.8,161.6 235.8,160.6 30.1,104.2" fill="#967d53" stroke="#967d53" stroke-width="0.5"/><polygon points="30.1,104.2 235.8,160.6 238,159.3 32.3,102.9" fill="#c1a16b" stroke="#c1a16b" stroke-width="0.5"/><polygon points="233.6,162.9 235.8,161.6 235.8,160.6 233.6,161.9" fill="#947c53" stroke="#947c53" stroke-width="0.5"/><polygon points="27.9,106.4 233.6,162.9 233.6,161.9 27.9,105.5" fill="#967d53" stroke="#967d53" stroke-width="0.5"/><polygon points="27.9,105.5 233.6,161.9 235.8,160.6 30.1,104.2" fill="#c1a16b" stroke="#c1a16b" stroke-width="0.5"/><polygon points="164.5,167.8 165.4,168 165.4,163.4 164.5,163.1" fill="#967d53" stroke="#967d53" stroke-width="0.5"/><polygon points="164.5,163.1 165.4,163.4 247.7,113.8 246.8,113.5" fill="#c1a16b" stroke="#c1a16b" stroke-width="0.5"/><polygon points="165.4,168 247.7,118.4 247.7,113.8 165.4,163.4" fill="#947c53" stroke="#947c53" stroke-width="0.5"/><polygon points="231.5,164.2 233.6,162.9 233.6,161.9 231.5,163.2" fill="#947c53" stroke="#947c53" stroke-width="0.5"/><polygon points="25.8,107.7 231.5,164.2 231.5,163.2 25.8,106.8" fill="#967d53" stroke="#967d53" stroke-width="0.5"/><polygon points="25.8,106.8 231.5,163.2 233.6,161.9 27.9,105.5" fill="#c1a16b" stroke="#c1a16b" stroke-width="0.5"/><polygon points="229.3,165.5 231.5,164.2 231.5,163.2 229.3,164.5" fill="#947c53" stroke="#947c53" stroke-width="0.5"/><polygon points="23.6,109 229.3,165.5 229.3,164.5 23.6,108.1" fill="#967d53" stroke="#967d53" stroke-width="0.5"/><polygon points="23.6,108.1 229.3,164.5 231.5,163.2 25.8,106.8" fill="#c1a16b" stroke="#c1a16b" stroke-width="0.5"/><polygon points="173.9,170.4 174.7,170.6 174.7,165.9 173.9,165.7" fill="#967d53" stroke="#967d53" stroke-width="0.5"/><polygon points="173.9,165.7 174.7,165.9 257,116.3 256.2,116.1" fill="#c1a16b" stroke="#c1a16b" stroke-width="0.5"/><polygon points="174.7,170.6 257,121 257,116.3 174.7,165.9" fill="#947c53" stroke="#947c53" stroke-width="0.5"/><polygon points="245.8,103.3 243.8,102.8 243.2,103.1 245.2,103.7" fill="#c1a16b" stroke="#c1a16b" stroke-width="0.5"/><polygon points="245.8,154.6 245.8,103.3 245.2,103.7 245.2,154.9" fill="#947c53" stroke="#947c53" stroke-width="0.5"/><polygon points="245.2,154.9 245.2,103.7 243.2,103.1 243.2,154.4" fill="#967d53" stroke="#967d53" stroke-width="0.5"/><polygon points="251.9,74.5 252.6,72.1 251.7,71.9 251,74.3" fill="#b39563" stroke="#b39563" stroke-width="0.5"/><polygon points="292.6,82.6 291.7,82.4 251.7,71.9 252.6,72.1" fill="#ad9160" stroke="#ad9160" stroke-width="0.5"/><polygon points="291.9,85 292.6,82.6 252.6,72.1 251.9,74.5" fill="#947c53" stroke="#947c53" stroke-width="0.5"/><polygon points="243.8,103.3 244.6,103.5 244.6,100 243.8,99.8" fill="#967d53" stroke="#967d53" stroke-width="0.5"/><polygon points="243.8,99.8 244.6,100 259.9,90.8 259,90.6" fill="#c1a16b" stroke="#c1a16b" stroke-width="0.5"/><polygon points="244.6,103.5 259.9,94.3 259.9,90.8 244.6,100" fill="#947c53" stroke="#947c53" stroke-width="0.5"/><polygon points="227.2,166.8 229.3,165.5 229.3,164.5 227.2,165.8" fill="#947c53" stroke="#947c53" stroke-width="0.5"/><polygon points="21.5,110.3 227.2,166.8 227.2,165.8 21.5,109.4" fill="#967d53" stroke="#967d53" stroke-width="0.5"/><polygon points="21.5,109.4 227.2,165.8 229.3,164.5 23.6,108.1" fill="#c1a16b" stroke="#c1a16b" stroke-width="0.5"/><polygon points="253.1,74.4 253.1,72.2 252.6,72.5 252.6,74.8" fill="#947c53" stroke="#947c53" stroke-width="0.5"/><polygon points="47.4,15.7 46.9,16.1 252.6,72.5 253.1,72.2" fill="#c1a16b" stroke="#c1a16b" stroke-width="0.5"/><polygon points="46.9,18.3 252.6,74.8 252.6,72.5 46.9,16.1" fill="#967d53" stroke="#967d53" stroke-width="0.5"/><polygon points="225,168.1 227.2,166.8 227.2,165.8 225,167.1" fill="#947c53" stroke="#947c53" stroke-width="0.5"/><polygon points="19.3,111.6 225,168.1 225,167.1 19.3,110.7" fill="#967d53" stroke="#967d53" stroke-width="0.5"/><polygon points="19.3,110.7 225,167.1 227.2,165.8 21.5,109.4" fill="#c1a16b" stroke="#c1a16b" stroke-width="0.5"/><polygon points="155.4,116.1 153.4,115.6 152.8,115.9 154.8,116.5" fill="#c1a16b" stroke="#c1a16b" stroke-width="0.5"/><polygon points="155.4,158.4 155.4,116.1 154.8,116.5 154.8,158.8" fill="#947c53" stroke="#947c53" stroke-width="0.5"/><polygon points="154.8,158.8 154.8,116.5 152.8,115.9 152.8,158.2" fill="#967d53" stroke="#967d53" stroke-width="0.5"/><polygon points="154,116.7 154.9,117 154.2,115.4 153.3,115.1" fill="#7d6845" stroke="#7d6845" stroke-width="0.5"/><polygon points="153.3,115.1 154.2,115.4 194.2,56.6 193.3,56.4" fill="#c4a46d" stroke="#c4a46d" stroke-width="0.5"/><polygon points="154.9,117 194.9,58.2 194.2,56.6 154.2,115.4" fill="#947c53" stroke="#947c53" stroke-width="0.5"/><polygon points="183.2,172.9 184.1,173.2 184.1,168.5 183.2,168.3" fill="#967d53" stroke="#967d53" stroke-width="0.5"/><polygon points="183.2,168.3 184.1,168.5 266.4,118.9 265.5,118.6" fill="#c1a16b" stroke="#c1a16b" stroke-width="0.5"/><polygon points="184.1,173.2 266.4,123.5 266.4,118.9 184.1,168.5" fill="#947c53" stroke="#947c53" stroke-width="0.5"/><polygon points="155.1,117.4 156,117.7 156,115.4 155.1,115.2" fill="#967d53" stroke="#967d53" stroke-width="0.5"/><polygon points="155.1,115.2 156,115.4 235.9,67.2 235.1,67" fill="#c1a16b" stroke="#c1a16b" stroke-width="0.5"/><polygon points="156,117.7 235.9,69.5 235.9,67.2 156,115.4" fill="#947c53" stroke="#947c53" stroke-width="0.5"/><polygon points="222.9,169.4 225,168.1 225,167.1 222.9,168.4" fill="#947c53" stroke="#947c53" stroke-width="0.5"/><polygon points="17.2,112.9 222.9,169.4 222.9,168.4 17.2,112" fill="#967d53" stroke="#967d53" stroke-width="0.5"/><polygon points="17.2,112 222.9,168.4 225,167.1 19.3,110.7" fill="#c1a16b" stroke="#c1a16b" stroke-width="0.5"/><polygon points="220.7,170.7 222.9,169.4 222.9,168.4 220.7,169.7" fill="#947c53" stroke="#947c53" stroke-width="0.5"/><polygon points="15,114.2 220.7,170.7 220.7,169.7 15,113.3" fill="#967d53" stroke="#967d53" stroke-width="0.5"/><polygon points="15,113.3 220.7,169.7 222.9,168.4 17.2,112" fill="#c1a16b" stroke="#c1a16b" stroke-width="0.5"/><polygon points="192.6,175.5 193.4,175.7 193.4,171.1 192.6,170.8" fill="#967d53" stroke="#967d53" stroke-width="0.5"/><polygon points="192.6,170.8 193.4,171.1 275.7,121.4 274.9,121.2" fill="#c1a16b" stroke="#c1a16b" stroke-width="0.5"/><polygon points="193.4,175.7 275.7,126.1 275.7,121.4 193.4,171.1" fill="#947c53" stroke="#947c53" stroke-width="0.5"/><polygon points="218.6,172 220.7,170.7 220.7,169.7 218.6,171" fill="#947c53" stroke="#947c53" stroke-width="0.5"/><polygon points="12.9,115.5 218.6,172 218.6,171 12.9,114.6" fill="#967d53" stroke="#967d53" stroke-width="0.5"/><polygon points="12.9,114.6 218.6,171 220.7,169.7 15,113.3" fill="#c1a16b" stroke="#c1a16b" stroke-width="0.5"/><polygon points="216.4,173.3 218.6,172 218.6,171 216.4,172.3" fill="#947c53" stroke="#947c53" stroke-width="0.5"/><polygon points="10.7,116.8 216.4,173.3 216.4,172.3 10.7,115.9" fill="#967d53" stroke="#967d53" stroke-width="0.5"/><polygon points="10.7,115.9 216.4,172.3 218.6,171 12.9,114.6" fill="#c1a16b" stroke="#c1a16b" stroke-width="0.5"/><polygon points="201.9,178 202.8,178.3 202.8,173.6 201.9,173.4" fill="#967d53" stroke="#967d53" stroke-width="0.5"/><polygon points="201.9,173.4 202.8,173.6 285.1,124 284.2,123.8" fill="#c1a16b" stroke="#c1a16b" stroke-width="0.5"/><polygon points="202.8,178.3 285.1,128.7 285.1,124 202.8,173.6" fill="#947c53" stroke="#947c53" stroke-width="0.5"/><polygon points="214.2,174.6 216.4,173.3 216.4,172.3 214.2,173.6" fill="#947c53" stroke="#947c53" stroke-width="0.5"/><polygon points="8.5,118.1 214.2,174.6 214.2,173.6 8.5,117.2" fill="#967d53" stroke="#967d53" stroke-width="0.5"/><polygon points="8.5,117.2 214.2,173.6 216.4,172.3 10.7,115.9" fill="#c1a16b" stroke="#c1a16b" stroke-width="0.5"/><polygon points="213.1,183.4 213.1,179.9 211.7,180.7 211.7,184.3" fill="#947c53" stroke="#947c53" stroke-width="0.5"/><polygon points="7.4,123.5 6,124.3 211.7,180.7 213.1,179.9" fill="#c1a16b" stroke="#c1a16b" stroke-width="0.5"/><polygon points="6,127.8 211.7,184.3 211.7,180.7 6,124.3" fill="#967d53" stroke="#967d53" stroke-width="0.5"/><polygon points="212.1,175.9 214.2,174.6 214.2,173.6 212.1,174.9" fill="#947c53" stroke="#947c53" stroke-width="0.5"/><polygon points="6.4,119.4 212.1,175.9 212.1,174.9 6.4,118.5" fill="#967d53" stroke="#967d53" stroke-width="0.5"/><polygon points="6.4,118.5 212.1,174.9 214.2,173.6 8.5,117.2" fill="#c1a16b" stroke="#c1a16b" stroke-width="0.5"/><polygon points="210.8,180.5 211.7,180.7 211.7,176.1 210.8,175.8" fill="#967d53" stroke="#967d53" stroke-width="0.5"/><polygon points="210.8,175.8 211.7,176.1 294,126.5 293.1,126.2" fill="#c1a16b" stroke="#c1a16b" stroke-width="0.5"/><polygon points="211.7,180.7 294,131.1 294,126.5 211.7,176.1" fill="#947c53" stroke="#947c53" stroke-width="0.5"/><polygon points="211.7,176.1 212.1,175.9 212.1,174.9 211.7,175.1" fill="#947c53" stroke="#947c53" stroke-width="0.5"/><polygon points="6,119.7 211.7,176.1 211.7,175.1 6,118.7" fill="#967d53" stroke="#967d53" stroke-width="0.5"/><polygon points="6,118.7 211.7,175.1 212.1,174.9 6.4,118.5" fill="#c1a16b" stroke="#c1a16b" stroke-width="0.5"/><polygon points="184.8,124.2 182.8,123.6 182.2,124 184.2,124.6" fill="#c1a16b" stroke="#c1a16b" stroke-width="0.5"/><polygon points="184.8,166.5 184.8,124.2 184.2,124.6 184.2,166.8" fill="#947c53" stroke="#947c53" stroke-width="0.5"/><polygon points="184.2,166.8 184.2,124.6 182.2,124 182.2,166.3" fill="#967d53" stroke="#967d53" stroke-width="0.5"/><polygon points="183.4,124.8 184.2,125 183.6,123.4 182.7,123.2" fill="#7d6845" stroke="#7d6845" stroke-width="0.5"/><polygon points="182.7,123.2 183.6,123.4 223.6,64.7 222.7,64.5" fill="#c4a46d" stroke="#c4a46d" stroke-width="0.5"/><polygon points="184.2,125 224.2,66.3 223.6,64.7 183.6,123.4" fill="#947c53" stroke="#947c53" stroke-width="0.5"/><polygon points="184.5,125.5 185.4,125.7 185.4,123.5 184.5,123.3" fill="#967d53" stroke="#967d53" stroke-width="0.5"/><polygon points="184.5,123.3 185.4,123.5 265.3,75.3 264.5,75" fill="#c1a16b" stroke="#c1a16b" stroke-width="0.5"/><polygon points="185.4,125.7 265.3,77.5 265.3,75.3 185.4,123.5" fill="#947c53" stroke="#947c53" stroke-width="0.5"/><polygon points="210,132.5 210.8,132.7 210.8,130.5 210,130.2" fill="#967d53" stroke="#967d53" stroke-width="0.5"/><polygon points="210,130.2 210.8,130.5 290.8,82.3 289.9,82" fill="#c1a16b" stroke="#c1a16b" stroke-width="0.5"/><polygon points="210.8,132.7 290.8,84.5 290.8,82.3 210.8,130.5" fill="#947c53" stroke="#947c53" stroke-width="0.5"/><polygon points="213.2,132 211.1,131.4 210.5,131.8 212.6,132.3" fill="#c1a16b" stroke="#c1a16b" stroke-width="0.5"/><polygon points="213.2,174.2 213.2,132 212.6,132.3 212.6,174.6" fill="#947c53" stroke="#947c53" stroke-width="0.5"/><polygon points="212.6,174.6 212.6,132.3 210.5,131.8 210.5,174" fill="#967d53" stroke="#967d53" stroke-width="0.5"/><polygon points="211.7,132.6 212.6,132.8 212,131.2 211.1,131" fill="#7d6845" stroke="#7d6845" stroke-width="0.5"/><polygon points="211.1,131 212,131.2 252,72.5 251.1,72.2" fill="#c4a46d" stroke="#c4a46d" stroke-width="0.5"/><polygon points="212.6,132.8 252.6,74.1 252,72.5 212,131.2" fill="#947c53" stroke="#947c53" stroke-width="0.5"/></svg>
